<svg width="33" height="33" viewBox="0 0 33 33" fill="none" xmlns="http://www.w3.org/2000/svg">
<path d="M3.41444 12.4366C4.4702 10.2792 5.19848 5.55328 5.43065 3.45997C4.90278 0.711578 6.28601 0.812549 7.0436 1.20658C10.8267 4.1914 17.9311 5.55328 21.0104 5.86112C26.1719 6.54083 29.9795 10.528 31.2381 12.4366C33.1736 18.0516 30.9692 23.2479 29.6251 25.1442C26.4871 30.7001 18.2733 31.9905 14.5585 31.9413C6.14181 32.5915 2.44911 27.6808 1.65485 25.1442C-0.104749 20.7852 2.09475 15.1333 3.41444 12.4366Z" stroke="white" stroke-width="1.89796"/>
<path d="M8.27539 31.0511C11.9426 28.155 21.6319 22.4592 31.0509 22.8453" stroke="white" stroke-width="1.26531" stroke-linecap="round"/>
<path d="M5.74414 15.1711C6.37102 16.0313 7.99197 17.4936 9.46066 16.4614C9.99799 16.318 10.7503 15.4291 9.46066 13.0205" stroke="white" stroke-width="1.26531" stroke-linecap="round"/>
<path d="M15.5508 10.7423C16.1777 11.6026 17.7986 13.0649 19.2673 12.0327C19.8046 11.8893 20.5569 11.0004 19.2673 8.5918" stroke="white" stroke-width="1.26531" stroke-linecap="round"/>
<path d="M13.2804 18.2091C14.5515 18.646 17.2931 18.7644 18.0903 15.7427" stroke="white" stroke-width="1.26531" stroke-linecap="round"/>
<ellipse cx="7.79178" cy="20.1826" rx="2.53061" ry="1.18138" transform="rotate(-22.3887 7.79178 20.1826)" fill="#FFDADA"/>
<ellipse cx="23.4012" cy="13.1787" rx="2.53061" ry="1.18138" transform="rotate(-22.3887 23.4012 13.1787)" fill="#FFDADA"/>
</svg>
