<svg width="1920" height="396" viewBox="0 0 1920 396" fill="none" xmlns="http://www.w3.org/2000/svg">
<path d="M1357 40.9935C1357 40.9935 1372.15 30.8835 1383 28.9935C1393.85 27.1035 1404 24.9935 1410.24 24.9335C1416.86 24.8735 1432.77 18.4935 1432.77 18.4935C1432.77 18.4935 1449.57 5.99355 1469.92 7.90355C1490.27 9.81355 1494.33 11.6835 1505.18 4.12355C1516.03 -3.43645 1556.72 0.333548 1570.29 7.90355C1583.86 15.4735 1593.29 24.9035 1617.76 23.0435C1642.23 21.1835 1661.16 34.3936 1661.16 34.3936L1691 58.9935H1337L1357 40.9935Z" fill="#6B7181"/>
<path d="M684 57.7804C684 57.7804 686.651 45.8804 668.131 41.9204C649.611 37.9604 645.651 39.2704 629.781 36.6304C613.911 33.9904 625.781 37.9504 605.981 28.6904C586.181 19.4304 584.791 18.1104 567.601 19.4304C550.411 20.7504 547.761 24.7204 527.931 20.7604C508.101 16.8004 499.001 23.3004 492.221 30.0004C484.001 38.1504 474.871 34.4704 459.001 33.1504C443.131 31.8304 426.001 41.1504 426.001 41.1504C426.001 41.1504 414.829 45.74 413.499 55C412.169 64.26 684 57.7804 684 57.7804Z" fill="#6B7081"/>
<path d="M1181.7 38.2503C1181.7 38.2503 1199.33 30.1103 1210.18 28.7503C1221.03 27.3903 1227.82 28.7503 1233.24 31.4603C1238.66 34.1703 1255.77 26.8503 1255.77 26.8503C1255.77 26.8503 1272.57 17.9003 1292.92 19.2603C1313.27 20.6203 1316.8 20.7403 1328.18 16.5403C1349 8.88027 1382 14.8803 1392 22.8803C1403.41 32.0003 1416.34 31.4603 1440.76 30.1103C1455.67 29.3681 1470.54 32.1571 1484.16 38.2503L1514 55.8803H1160L1170.85 47.0653L1181.7 38.2503Z" fill="#606572"/>
<path d="M1920 55H0V396H1920V55Z" fill="#9A808A"/>
</svg>
