<svg width="1016" height="616" viewBox="0 0 1016 616" fill="none" xmlns="http://www.w3.org/2000/svg">
<path fill-rule="evenodd" clip-rule="evenodd" d="M447.693 51.5923C447.144 51.0208 446.597 50.4525 446.054 49.8786C442.2 49.5808 432.2 45.1879 423.184 41.2272C418.854 39.3253 414.752 37.5231 411.665 36.3217C409.434 35.453 403.814 32.7055 396.406 29.0838C372.234 17.266 329.024 -3.85991 322.364 0.611402L305.54 5.57124L291.327 5.57124L284.655 5.57124L272.472 17.1442C269.185 22.9858 258.781 38.8352 253.908 40.9514C251.714 41.9041 249.027 45.5512 245.305 50.6011C240.76 56.7677 234.674 65.0263 226.062 73.025C214.621 83.6522 192.415 117.664 189.514 123.285C184.937 123.849 183.219 129.164 181.243 135.28C178.585 143.505 175.458 153.18 164.279 154.697C139.913 158.003 129.761 161.31 125.41 166.931C123.007 170.036 118.352 175.308 116.708 176.52C115.064 177.733 111.777 180.885 111.777 183.795C111.777 187.432 75.809 231.409 61.3058 247.942C49.0746 261.885 36.0466 322.925 28.2394 359.504C26.7891 366.299 25.519 372.25 24.4676 376.898C18.1852 404.672 -0.00085782 524.7 -0.000858182 581.904L465.232 732.457L1015.77 732.458L1015.77 530.427C1015.77 500.007 993.439 418.004 978.935 401.471C964.432 384.938 928.464 340.961 928.464 337.324C928.464 334.414 925.177 331.262 923.533 330.049C921.889 328.837 917.234 323.565 914.831 320.46C910.48 314.839 900.328 311.533 875.963 308.226C864.783 306.709 861.657 297.035 858.998 288.809C857.022 282.693 855.304 277.378 850.727 276.814C847.826 271.193 825.62 237.182 814.179 226.554C805.567 218.556 799.481 210.297 794.936 204.13C791.214 199.081 788.527 195.434 786.333 194.481C781.46 192.365 771.056 176.515 767.769 170.674L755.586 159.101L748.914 159.101L734.701 159.101L717.878 154.141C709.176 148.299 689.393 137.542 679.879 141.245C673.943 143.556 664.425 139.723 656.719 136.62C652.074 134.749 648.087 133.144 645.942 133.31C532.53 81.0886 502.857 75.2946 463.875 75.0195C458.093 62.4091 452.765 56.8673 447.693 51.5923Z" fill="#776577"/>
<path d="M265.556 417.564C269.659 421.056 271.196 427.204 276.198 429.854L276.176 437.368L48.0053 436.705C54.768 422.884 95.2432 374.757 101.583 370.426C106.655 366.961 114.283 354.513 117.464 348.722C123.184 339.881 132.547 329.257 136.514 325.051C146.044 311.633 151.619 298.205 155.593 291.494C159.567 284.783 164.704 285.984 168.258 287.576C171.813 289.168 218.359 329.243 232.538 349.056C246.716 368.87 242.618 380.104 249.412 393.791C256.096 407.255 260.428 413.2 265.556 417.564Z" fill="#887C88"/>
<path d="M228.791 413.898C229.09 419.593 238.904 426.318 243.774 428.968L243.744 439.25L94.2746 436.048C94.5482 432.622 95.5724 424.901 97.4806 421.427C99.8659 417.084 109.023 395.756 124.473 386.31C139.923 376.864 143.891 372.131 153.417 359.899C162.943 347.668 164.156 338.576 165.355 334.229C166.554 329.883 170.136 321.984 175.665 324.373C180.089 326.284 191.71 337.074 196.968 342.23C200.756 345.088 206.956 352.409 209.583 355.712C217.461 366.412 225.332 379.484 227.28 389.376C229.229 399.268 231.991 401.253 234.351 405.61C236.239 409.095 235.129 409.962 234.338 409.959C232.364 408.899 228.491 408.203 228.791 413.898Z" fill="#615C78"/>
<path d="M228.791 413.897C229.091 419.592 238.905 426.317 243.774 428.968L243.744 439.25L114.047 436.105C113.391 435.181 113.032 431.673 116.847 425.041C121.617 416.75 129.163 405.304 132.735 400.965C135.592 397.493 142.903 394.535 146.202 393.49C154.905 392.329 167.591 381.294 168.411 371.41C169.23 361.526 171.211 360.345 175.179 355.611C179.147 350.877 187.455 349.715 191.026 345.771C193.882 342.616 196.177 342.095 196.968 342.229C200.756 345.087 206.956 352.408 209.583 355.711C217.461 366.411 225.332 379.483 227.28 389.375C229.229 399.267 231.991 401.252 234.351 405.609C236.239 409.095 235.129 409.961 234.338 409.959C232.364 408.898 228.491 408.202 228.791 413.897Z" fill="#332D4E"/>
<path d="M241.707 158.053C271.466 166.65 290.247 166.65 309.822 181.199C317.978 187.15 326.685 197.731 330.984 210.627C333.298 214.485 341.565 222.597 356.114 224.184C370.663 225.771 391.935 248.652 400.752 259.895L416.624 285.025L422.906 310.485" stroke="#5E4F5E" stroke-opacity="0.29" stroke-width="3.96787" stroke-linecap="round"/>
</svg>
