<svg width="140" height="78" viewBox="0 0 140 78" fill="none" xmlns="http://www.w3.org/2000/svg">
<g opacity="0.8">
<path d="M35.2411 69.757C32.0595 67.8854 28.5607 64.3502 27.209 62.8166V59.6193L102.696 40.5137C105.451 42.3333 110.728 46.0192 109.792 46.2064C108.622 46.4403 106.439 49.9495 104.645 53.3807C103.21 56.1257 99.6284 59.8792 98.0168 61.4129C88.6589 68.5093 89.9067 67.1836 82.4984 71.1607C75.09 75.1378 69.2414 76.7754 65.1863 77.0873C61.1312 77.3992 55.7505 76.7754 51.7734 75.8396C47.7963 74.9038 39.2182 72.0965 35.2411 69.757Z" fill="#B78051"/>
<path d="M29.625 13.6861C29.5626 14.1228 28.8711 14.6998 28.5332 14.9338L107.451 32.9478L112.13 29.3606C108.699 28.7367 105.58 18.5211 98.4832 13.6861C91.3868 8.85107 77.3501 0.507083 66.3546 0.0391894C55.3591 -0.428704 47.1709 3.39242 39.9966 6.19978C32.8222 9.00714 29.7029 13.1402 29.625 13.6861Z" fill="#B78051"/>
<path d="M16.759 24.682C15.1369 26.8655 6.77724 33.442 2.80015 36.4573C1.86436 37.1717 1.99433 38.4186 2.17629 38.9528C0.3827 40.4345 1.78638 44.0217 3.96988 45.5033C5.71668 46.6886 6.77724 47.8688 7.08917 48.3107C8.89835 51.0556 10.9103 52.4177 11.6901 52.7557C12.5739 52.9636 14.6222 53.8006 15.7452 55.485C17.1489 57.5906 20.7871 60.0067 22.6856 60.7098C24.7911 61.4897 25.4149 62.7374 27.0525 63.4392C55.4381 72.6411 72.7502 64.531 83.5117 60.2419C94.2732 55.9529 102.617 49.7144 105.815 47.1409C109.012 44.5675 114.939 47.1409 117.59 48.3107C120.241 49.4804 124.764 51.8979 129.209 53.1456C132.765 54.1437 133.862 53.9254 133.966 53.6914C134.642 52.3398 136.103 49.3712 136.54 48.3107C136.976 47.2501 136.722 46.673 136.54 46.5171C136.358 46.2831 136.103 45.7996 136.54 45.7373C136.976 45.6749 137.501 45.3473 137.709 45.1914C138.957 43.7097 139.269 39.4987 139.035 38.5629C138.848 37.8143 138.073 37.4711 137.709 37.3932C136.981 37.2112 135.869 36.7069 137.241 36.1455C138.614 35.584 138.749 34.4038 138.645 33.884C138.099 29.9069 136.228 22.8885 134.278 22.5766C132.329 22.2646 127.104 23.1224 122.347 25.4619C118.541 27.3335 113.951 28.8411 112.131 29.361C110.197 30.1097 108.778 29.673 108.31 29.361C103.085 25.7218 89.7034 17.57 77.9749 14.0764C63.3143 9.70938 53.7225 10.1773 44.8325 10.7232C37.7205 11.1599 31.0037 13.7125 28.5343 14.9342C24.5572 17.5076 18.7865 21.9526 16.759 24.682Z" fill="#744215"/>
<path d="M31.4199 38.4841C33.8634 36.7165 39.4053 33.2125 42.0255 33.3372C44.6457 33.462 46.8344 34.3251 47.2503 34.5851C47.8742 36.7686 45.4567 37.0806 44.209 38.8741C43.0057 40.6037 43.3512 40.112 41.0117 42.3053C39.1895 44.0137 38.5943 44.4108 34.2273 43.7869" stroke="#B78051" stroke-width="0.858981" stroke-linecap="round"/>
<path d="M3.58078 36.7681C2.02114 36.8305 2.2031 37.9378 2.48903 38.4837C-0.00634027 39.4194 1.18931 41.1091 2.09905 41.837C9.3514 46.126 9.03947 48.9334 11.9248 49.7912C14.2331 50.4775 13.429 48.2319 12.8606 46.9059C12.3927 45.8144 5.53034 36.6901 3.58078 36.7681Z" fill="#B78051"/>
<path d="M2.48903 38.4837C2.2031 37.9378 2.02114 36.8305 3.58078 36.7681C5.53034 36.6901 12.3927 45.8144 12.8606 46.9059C13.429 48.2319 14.2331 50.4775 11.9248 49.7912C9.03947 48.9334 9.3514 46.126 2.09905 41.837C1.18931 41.1091 -0.00634025 39.4194 2.48903 38.4837ZM2.48903 38.4837C4.15263 39.7574 6.85597 41.993 8.18167 43.9425C8.94783 45.0693 10.7998 46.8409 11.5276 47.5687" stroke="#744215" stroke-width="0.687185" stroke-linecap="round"/>
<path d="M23.0761 41.7598C23.1801 43.1894 23.1853 46.5323 22.3743 48.4662C21.3605 50.8837 19.6449 50.5718 18.7871 50.8057C17.9293 51.0396 16.7596 50.9617 15.5898 51.9754" stroke="#B78051" stroke-width="0.858981" stroke-linecap="round"/>
<path d="M26.1178 33.1816C27.0276 34.4813 28.9563 37.9542 29.393 41.4478C29.9389 45.8148 27.4435 50.1038 25.104 51.8974C22.7645 53.691 22.6866 53.691 20.0352 54.7047" stroke="#B78051" stroke-width="0.858981" stroke-linecap="round"/>
<path d="M42.175 7.56445C40.6674 8.70819 37.6209 11.3232 37.4961 12.6333" stroke="#744215" stroke-width="0.687185" stroke-linecap="round"/>
<path d="M42.0422 70.375C40.5346 69.2313 37.4881 66.6163 37.3633 65.3062" stroke="#744215" stroke-width="0.687185" stroke-linecap="round"/>
<path d="M46.8462 8.20136C45.965 8.9589 44.1713 11.1558 44.0469 13.8829M52.2117 6.87566C51.5118 7.25444 50.0655 8.69376 49.8789 11.4209M61.0763 3.27734C59.6507 4.19271 56.4574 7.10293 55.0888 11.4209M66.053 4.31896C63.461 5.99187 58.1214 10.2467 57.4994 13.8829M71.3406 5.26589C70.563 6.87566 66.675 7.06505 64.3422 13.8829" stroke="#744215" stroke-width="0.687185" stroke-linecap="round"/>
<path d="M46.7134 69.7381C45.8321 68.9806 44.0385 66.7837 43.9141 64.0565M52.0789 71.0638C51.379 70.685 49.9327 69.2457 49.7461 66.5185M60.9435 74.6621C59.5179 73.7467 56.3246 70.8365 54.956 66.5185M65.9201 73.6205C63.3281 71.9476 57.9886 67.6927 57.3665 64.0565M71.2078 72.6736C70.4302 71.0638 66.5422 70.8744 64.2094 64.0565" stroke="#744215" stroke-width="0.687185" stroke-linecap="round"/>
<path d="M78.6884 11.559C77.5429 11.7546 74.874 12.7142 73.3631 14.9879M83.9705 13.1854C83.1755 13.1497 81.1945 13.6388 79.6302 15.8805M93.4224 14.6654C91.729 14.716 87.493 15.5664 84.0964 18.5632M97.1522 18.121C94.0688 18.2203 87.3007 19.1183 84.895 21.915M101.197 21.6555C99.7019 22.635 96.2714 20.7953 90.761 25.4386" stroke="#744215" stroke-width="0.687185" stroke-linecap="round"/>
<path d="M78.5556 66.3805C77.4101 66.1849 74.7412 65.2253 73.2303 62.9515M83.8377 64.7541C83.0427 64.7898 81.0617 64.3007 79.4974 62.059M93.2896 63.274C91.5962 63.2234 87.3602 62.373 83.9636 59.3762M97.0194 59.8185C93.936 59.7191 87.1679 58.8212 84.7622 56.0244M101.065 56.284C99.5691 55.3044 96.1386 57.1441 90.6282 52.5009" stroke="#744215" stroke-width="0.687185" stroke-linecap="round"/>
<path d="M17.3974 30.3667C16.7364 29.5396 15.1491 30.244 15.0711 30.8679C15.0711 31.1174 14.9154 31.3859 15.0713 31.7758C15.355 32.0044 16.271 32.0044 16.6956 32.0044H16.6956C17.1699 32.0044 18.0209 31.1468 17.3974 30.3667Z" fill="#3E2107"/>
<path d="M21.8792 29.506C21.2183 28.679 19.3892 29.0381 19.3112 29.6621C19.3112 29.9115 19.1557 30.3155 19.3116 30.7054C19.7795 31.0954 19.8575 31.0173 20.3257 31.0954C20.7936 31.1734 22.3331 30.074 21.8792 29.506Z" fill="#3E2107"/>
</g>
</svg>
