<svg width="1920" height="1080" viewBox="0 0 1920 1080" fill="none" xmlns="http://www.w3.org/2000/svg">
<g clip-path="url(#clip0_245_30)">
<path d="M-3366.35 925.835C-3770.11 879.081 -4805.68 865.713 -5273 864.874V1080H1919V617C1782.08 745.135 1248.67 1008.35 243.379 947.891C-1013.23 872.32 -1859.34 943.874 -2021.5 960.5C-2183.66 977.126 -2861.65 984.276 -3366.35 925.835Z" fill="#C7A1C7"/>
<path d="M1207.92 732.857C1202.45 732.015 1195.48 719.882 1192.67 713.921L1203.19 697.615L1420.95 677.102L1540.88 700.771L1547.19 751.267C1517.91 763.014 1457.46 786.508 1449.88 786.508C1440.41 786.508 1439.89 778.618 1438.31 775.988C1436.73 773.358 1432 774.41 1429.89 774.936C1427.79 775.462 1425.16 785.982 1420.95 784.93C1417.58 784.089 1416.74 784.93 1416.74 785.456C1415.9 790.927 1414.64 792.294 1414.11 792.294H1412.01C1411.17 792.294 1411.31 786.684 1411.48 783.878C1412.01 769.15 1408.33 772.832 1406.22 771.254C1404.12 769.676 1399.91 771.78 1399.39 775.988C1398.96 779.355 1398.51 780.196 1398.33 780.196C1395.39 781.459 1394.3 784.93 1394.13 786.508H1391.5C1390.97 786.508 1390.44 782.826 1387.81 781.248C1385.71 779.986 1384.83 776.865 1384.66 775.462C1382.03 760.735 1374.66 754.423 1373.61 746.533C1372.77 740.221 1370.81 740.045 1369.93 740.747C1369.4 742.675 1367.19 746.954 1362.57 748.637C1356.78 750.741 1360.46 756.527 1357.31 758.631C1354.78 760.314 1353.8 759.332 1353.62 758.631C1352.57 747.059 1350.47 749.689 1347.31 743.903C1344.79 739.274 1341 730.402 1339.42 726.545C1338.16 718.971 1335.74 721.285 1334.69 723.389C1334.69 725.668 1333.74 730.227 1329.95 730.227C1326.17 730.227 1325.92 732.682 1326.27 733.909C1325.01 742.325 1322.24 747.935 1321.01 749.689C1319.96 750.215 1317.54 750.951 1316.28 749.689C1315.02 748.426 1311.19 736.188 1309.44 730.227C1306.92 727.281 1304.53 729 1303.65 730.227C1296.29 739.695 1284.72 751.267 1280.51 754.423C1277.14 756.947 1271.74 756.877 1269.47 756.527C1267.71 756.176 1264.73 754.317 1266.84 749.689C1268.94 745.06 1268.76 742.5 1268.41 741.799C1266.31 739.695 1265.78 735.662 1265.78 733.909C1265.36 722.547 1262.8 722.863 1261.58 724.441C1258.77 727.948 1252.32 735.487 1248.95 737.591C1244.74 740.221 1244.22 740.221 1242.64 737.591C1241.06 734.961 1242.64 732.857 1236.33 731.279C1230.02 729.701 1230.02 723.915 1227.91 720.759C1226.23 718.234 1221.95 719.707 1220.02 720.759C1218.27 725.142 1213.39 733.699 1207.92 732.857Z" fill="#5F4172"/>
<path d="M1123.76 870.141C1019.62 868.563 990.162 875.401 947.031 881.712C922.484 886.275 869.604 895.821 854.456 897.505C839.307 899.188 826.753 939.233 825 948L1918.54 932.22V906.96C1919.94 816.489 1928.09 618.38 1919.07 615.56C1910.65 612.93 1891.19 612.404 1879.62 611.878H1673.95C1666.38 611.878 1656.42 608.02 1652.39 606.091C1642.92 604.513 1621.67 602.304 1612.41 606.091C1603.16 609.878 1589.27 610.475 1583.48 610.3L1489.86 608.196C1465.13 606.793 1410.85 605.25 1391.5 610.3C1372.14 615.349 1362.39 615.56 1359.94 615.034C1324.34 617.313 1240.22 625.028 1188.46 637.651C1123.76 653.431 1121.13 661.847 1112.72 665.529C1105.99 668.475 1101.15 676.575 1099.57 680.257C1095.01 689.374 1092.63 709.292 1119.56 716.025C1146.49 722.757 1186.18 718.83 1202.66 716.025C1251.06 702.559 1349.77 699.894 1393.07 700.245C1403.94 699.894 1425.47 699.824 1424.63 702.349C1423.58 705.505 1423.58 704.453 1415.69 707.609C1409.38 710.133 1408.5 712.869 1408.85 713.921C1408.85 720.758 1424.63 720.232 1435.15 720.758C1440.76 720.583 1455.25 721.495 1468.29 726.544C1481.34 731.594 1510.19 733.207 1522.99 733.382C1526.33 735.311 1530.36 740.851 1519.84 747.584C1506.69 756 1450.93 784.93 1410.96 792.294C1378.98 798.185 1322.59 818.067 1297.87 828.587C1281.56 835.776 1251.06 846.997 1231.07 848.049C1208.95 849.213 1159.01 858.569 1150.06 863.303C1142.91 867.09 1129.2 869.615 1123.76 870.141Z" fill="#C7A1C7"/>
</g>
<defs>
<clipPath id="clip0_245_30">
<rect width="1920" height="1080" fill="white"/>
</clipPath>
</defs>
</svg>
