<svg width="1920" height="1080" viewBox="0 0 1920 1080" fill="none" xmlns="http://www.w3.org/2000/svg">
<g clip-path="url(#clip0_245_30)">
<path d="M-3366.35 925.835C-3770.11 879.081 -4805.68 865.713 -5273 864.874V1080H1919V752.5C1782.08 880.635 1248.67 1008.35 243.379 947.891C-1013.23 872.32 -1859.34 943.874 -2021.5 960.5C-2183.66 977.126 -2861.65 984.276 -3366.35 925.835Z" fill="#C7A1C7"/>
<path d="M1351.22 794.046C1346.84 793.373 1341.26 783.67 1339.02 778.903L1347.43 765.863L1521.57 749.459L1617.48 768.387L1622.52 808.768C1599.11 818.162 1550.76 836.95 1544.71 836.95C1537.14 836.95 1536.71 830.64 1535.45 828.537C1534.19 826.434 1530.41 827.275 1528.72 827.696C1527.04 828.116 1524.94 836.529 1521.57 835.688C1518.88 835.015 1518.21 835.688 1518.21 836.108C1517.53 840.483 1516.52 841.577 1516.1 841.577H1514.42C1513.75 841.577 1513.86 837.09 1514 834.847C1514.42 823.069 1511.48 826.013 1509.79 824.751C1508.11 823.49 1504.75 825.172 1504.33 828.537C1503.99 831.229 1503.63 831.902 1503.49 831.902C1501.13 832.912 1500.26 835.688 1500.12 836.95H1498.02C1497.6 836.95 1497.18 834.005 1495.07 832.743C1493.39 831.734 1492.69 829.238 1492.55 828.116C1490.45 816.339 1484.56 811.291 1483.72 804.982C1483.04 799.934 1481.47 799.794 1480.77 800.355C1480.35 801.897 1478.58 805.318 1474.88 806.664C1470.26 808.347 1473.2 812.974 1470.68 814.656C1468.66 816.002 1467.87 815.217 1467.73 814.656C1466.89 805.403 1465.21 807.506 1462.68 802.879C1460.67 799.177 1457.64 792.083 1456.37 788.998C1455.37 782.941 1453.43 784.792 1452.59 786.474C1452.59 788.297 1451.83 791.942 1448.8 791.942C1445.77 791.942 1445.58 793.905 1445.86 794.887C1444.85 801.617 1442.63 806.104 1441.65 807.506C1440.81 807.926 1438.88 808.515 1437.87 807.506C1436.86 806.496 1433.8 796.71 1432.4 791.942C1430.38 789.587 1428.47 790.961 1427.77 791.942C1421.88 799.514 1412.63 808.768 1409.26 811.291C1406.57 813.31 1402.25 813.254 1400.43 812.974C1399.03 812.693 1396.65 811.207 1398.33 807.506C1400.01 803.804 1399.87 801.757 1399.59 801.196C1397.91 799.514 1397.49 796.289 1397.49 794.887C1397.15 785.801 1395.1 786.054 1394.12 787.316C1391.88 790.12 1386.72 796.149 1384.03 797.831C1380.66 799.934 1380.24 799.934 1378.98 797.831C1377.72 795.728 1378.98 794.046 1373.93 792.784C1368.88 791.522 1368.88 786.895 1367.2 784.371C1365.86 782.352 1362.43 783.53 1360.89 784.371C1359.49 787.876 1355.59 794.719 1351.22 794.046Z" fill="#5F4172"/>
<path d="M1283.92 903.828C1200.63 902.566 1177.08 908.034 1142.59 913.082C1122.96 916.731 1080.67 924.365 1068.56 925.711C1056.44 927.057 1046.4 959.08 1045 966.091L1919.49 953.472V933.272C1920.61 860.924 1927.12 702.5 1919.91 700.244C1913.18 698.141 1897.61 697.72 1888.36 697.3H1723.89C1717.84 697.3 1709.87 694.215 1706.65 692.672C1699.08 691.41 1682.08 689.644 1674.68 692.672C1667.28 695.701 1656.17 696.178 1651.55 696.038L1576.67 694.355C1556.9 693.234 1513.5 692 1498.02 696.038C1482.54 700.076 1474.74 700.244 1472.78 699.823C1444.32 701.646 1377.04 707.815 1335.65 717.91C1283.92 730.529 1281.81 737.259 1275.08 740.204C1269.7 742.559 1265.83 749.037 1264.57 751.981C1260.92 759.272 1259.02 775.2 1280.55 780.584C1302.09 785.968 1333.83 782.827 1347.01 780.584C1385.71 769.816 1464.65 767.685 1499.28 767.965C1507.97 767.685 1525.19 767.629 1524.52 769.648C1523.68 772.172 1523.68 771.33 1517.37 773.854C1512.32 775.873 1511.62 778.06 1511.9 778.902C1511.9 784.37 1524.52 783.949 1532.93 784.37C1537.42 784.23 1549 784.959 1559.43 788.997C1569.86 793.035 1592.94 794.325 1603.17 794.465C1605.84 796.007 1609.06 800.438 1600.65 805.822C1590.13 812.552 1545.55 835.686 1513.58 841.575C1488.01 846.286 1442.91 862.186 1423.14 870.598C1410.11 876.347 1385.71 885.32 1369.73 886.162C1352.04 887.093 1312.1 894.574 1304.95 898.36C1299.23 901.388 1288.26 903.407 1283.92 903.828Z" fill="#C7A1C7"/>
</g>
<defs>
<clipPath id="clip0_245_30">
<rect width="1920" height="1080" fill="white"/>
</clipPath>
</defs>
</svg>
