<svg width="176" height="90" viewBox="0 0 176 90" fill="none" xmlns="http://www.w3.org/2000/svg">
<path fill-rule="evenodd" clip-rule="evenodd" d="M87.22 74.6293C86.3158 72.445 90.8682 68.3662 100.479 66.032C108.883 63.9907 117.19 68.2998 122.137 71.5723C123.925 69.4345 126.275 66.9883 128.076 66.1788C129.107 65.7152 128.967 66.7622 128.707 68.6898C128.313 71.6172 127.645 76.5756 130.395 81.3586C130.123 82.3862 128.174 82.645 122.651 76.8019C117.779 79.2463 112.729 80.1733 104.195 80.1733C100.017 80.1733 91.1896 78.5976 87.22 74.6293Z" fill="#523E52" fill-opacity="0.55"/>
<path fill-rule="evenodd" clip-rule="evenodd" d="M12 44.6085C12.5472 42.582 14.2931 39.7331 20.3341 38.2592C25.3309 37.0402 30.2724 39.4081 33.4244 41.4165C34.3641 40.1387 35.5132 38.7911 36.4127 38.3162C36.9836 38.0147 36.9006 38.768 36.7557 40.0819C36.6504 41.0377 36.5123 42.2902 36.5694 43.6492C36.5885 43.6629 36.6065 43.6757 36.6236 43.6877C36.6066 43.6988 36.5896 43.7099 36.5726 43.721C36.6396 45.1458 36.9244 46.6833 37.6875 48.1163C37.5421 48.7607 36.5273 48.9368 33.6871 45.489C30.7977 47.0823 27.6945 48.109 22.6702 48.109C20.0437 48.109 14.4952 47.1141 12 44.6085Z" fill="#523E52" fill-opacity="0.55"/>
<path fill-rule="evenodd" clip-rule="evenodd" d="M134.279 12.6396C135.696 10.7432 137.379 8.80836 138.709 8.10593C139.58 7.64606 139.452 8.71798 139.22 10.6531C138.864 13.6316 138.263 18.655 140.684 23.2857C140.442 24.3594 138.641 24.5938 133.439 17.9046C128.928 20.4118 124.105 22.0315 116.25 22.0315C112.182 22.0315 106.228 20.4081 102.363 16.5271C104.124 13.5925 107.938 10.3655 113.805 8.89881C122.864 6.63463 130.089 9.97092 134.279 12.6396Z" fill="#523E52" fill-opacity="0.55"/>
</svg>
