<svg width="176" height="90" viewBox="0 0 176 90" fill="none" xmlns="http://www.w3.org/2000/svg">
<path fill-rule="evenodd" clip-rule="evenodd" d="M87.3296 36.8552C88.5638 34.6143 90.2347 32.0147 92.6794 31.4537C92.7602 31.4352 92.703 31.8415 92.6035 32.5494C92.2329 35.1847 91.2745 41.9992 94.654 46.6335C94.4218 47.6631 92.7567 47.9209 88.0342 42.0434C84.0604 44.8096 79.9141 46.6212 72.9594 46.6212C69.517 46.6212 62.2449 45.0473 58.9746 41.0834C59.6918 37.8774 62.4766 36.1393 70.3941 33.8077C77.0223 31.8558 83.3535 34.4746 87.3296 36.8552Z" fill="#523E52" fill-opacity="0.55"/>
<path fill-rule="evenodd" clip-rule="evenodd" d="M65.4989 12.4639C66.2275 11.4698 67.1244 10.4135 67.8249 10.0436C68.926 9.46225 68.9391 14.8397 68.808 17.601C68.6975 18.0912 67.9346 18.23 65.8121 15.6825C63.7472 17.0951 61.6737 18.2506 57.8016 18.2506C55.7762 18.2506 49.2934 17.3704 49 14.8958C49.422 13.3331 50.6932 10.8969 55.4545 10.3281C59.9116 9.79566 63.3285 11.1858 65.4989 12.4639Z" fill="#523E52" fill-opacity="0.55"/>
<path fill-rule="evenodd" clip-rule="evenodd" d="M135.844 49.0696C136.421 46.9305 138.264 43.9233 144.641 42.3676C149.914 41.081 155.13 43.5795 158.457 45.6993C159.449 44.3506 160.661 42.9283 161.611 42.4271C163.118 41.6313 163.136 48.9919 162.956 52.7716C162.803 53.4518 161.732 53.6377 158.735 49.9995C155.685 51.6811 152.41 52.7645 147.107 52.7645C144.334 52.7645 138.478 51.7144 135.844 49.0696Z" fill="#523E52" fill-opacity="0.55"/>
</svg>
