<svg width="1516" height="333" viewBox="0 0 1516 333" fill="none" xmlns="http://www.w3.org/2000/svg">
<path d="M129.977 335.843L117.387 342.577H172.726H187.366C192.479 342.577 198.199 337.893 194.686 337.893C191.875 337.893 183.755 335.745 180.046 334.672L202.884 314.176C204.055 315.737 209.443 318.685 221.623 317.982C233.804 317.279 234.702 315.152 233.628 314.176C231.871 313.883 227.011 312.595 221.623 309.784C216.236 306.973 215.084 304.904 215.182 304.221C219.379 300.512 228.124 292.919 229.529 292.216C230.935 291.513 236.751 291.142 239.484 291.045C253.246 288.702 256.759 285.481 261.444 284.603C266.129 283.725 270.521 281.382 269.35 280.504C268.179 279.625 262.908 279.918 255.003 279.625C248.678 279.391 249.049 277.185 250.025 276.112C253.734 272.989 262.557 264.576 268.179 255.909C273.8 247.242 276.572 244.294 277.255 243.904C288.382 243.025 293.359 240.976 299.508 237.755C304.427 235.178 305.071 233.753 304.779 233.363C304.388 232.777 301.734 231.958 294.238 233.363C286.742 234.769 285.259 233.949 285.454 233.363C292.871 222.432 307.894 200.794 309.463 200.862C316.198 201.155 319.809 200.569 321.761 200.277C332.302 198.813 334.937 197.056 331.716 195.006C328.495 192.957 317.076 190.614 315.905 190.321C314.968 190.087 320.395 182.416 323.225 178.609C327.91 170.997 326.153 168.947 325.275 168.654C319.653 168.654 310.537 179.976 307.707 185.051C306.535 182.474 303.022 176.267 300.679 173.339C297.676 169.584 297.166 169.533 296.287 169.825C293.93 170.611 297.166 184.758 299.508 189.15C301.382 192.664 301.07 194.518 300.679 195.006C296.971 199.496 288.909 209.412 286.332 213.16C283.756 216.908 282.526 216.674 282.233 216.088C280.769 214.331 280.476 212.379 279.891 211.403C278.134 207.304 277.548 204.669 277.255 202.912C277.015 201.468 276.963 198.812 276.084 198.227C275.382 197.758 274.62 197.934 274.327 198.227C273.742 198.52 271.107 204.961 270.521 208.475C270.228 217.845 271.399 216.087 272.863 221.065C274.035 225.047 273.351 227.409 272.863 228.092C269.935 233.948 263.787 242.732 256.759 249.759C249.732 256.787 242.119 264.107 241.241 261.179C240.363 258.251 240.363 255.908 238.899 252.98C237.727 250.638 238.215 243.416 238.606 240.097C238.372 237.287 236.751 237.755 235.971 238.341C234.331 240.215 232.945 242.83 232.457 243.904C224.551 260.008 228.943 269.085 228.943 271.134C228.943 272.774 228.553 273.574 228.358 273.769L210.204 291.63C209.267 293.036 207.862 292.801 207.276 292.509C203.177 290.752 202.884 283.724 202.006 280.211C201.127 276.697 200.249 276.99 198.199 278.454C196.15 279.918 191.172 292.801 191.758 297.486C192.226 301.234 191.758 302.561 191.465 302.756L184.731 310.955C177.996 319.153 165.991 326.18 158.964 328.23C153.343 329.87 146.472 330.084 143.739 329.987C141.982 329.694 140.576 329.987 138.468 322.96C136.36 315.932 134.662 315.347 134.076 315.932C130.328 322.96 129.782 332.134 129.977 335.843Z" fill="#672540"/>
<path d="M-41.019 238.632L-53.6094 245.366H1.7298H16.3698C21.4834 245.366 27.2034 240.682 23.6898 240.682C20.8789 240.682 12.7586 238.534 9.04979 237.461L31.8882 216.965C33.0594 218.526 38.4469 221.474 50.6274 220.771C62.8078 220.069 63.7058 217.941 62.6322 216.965C60.8754 216.672 56.0149 215.384 50.6274 212.573C45.2399 209.762 44.0882 207.693 44.1858 207.01C48.3826 203.301 57.1275 195.708 58.533 195.005C59.9384 194.302 65.7554 193.931 68.4882 193.834C82.2498 191.491 85.7634 188.271 90.4482 187.392C95.1329 186.514 99.5249 184.171 98.3538 183.293C97.1826 182.415 91.9122 182.707 84.0066 182.415C77.6821 182.18 78.053 179.975 79.029 178.901C82.7378 175.778 91.5608 167.365 97.1826 158.698C102.804 150.031 105.576 147.083 106.259 146.693C117.386 145.815 122.363 143.765 128.512 140.544C133.431 137.967 134.075 136.543 133.783 136.152C133.392 135.567 130.737 134.747 123.242 136.152C115.746 137.558 114.263 136.738 114.458 136.152C121.875 125.221 136.897 103.583 138.467 103.651C145.202 103.944 148.813 103.359 150.765 103.066C161.306 101.602 163.941 99.8449 160.72 97.7953C157.499 95.7456 146.08 93.4033 144.909 93.1105C143.972 92.8763 149.399 85.205 152.229 81.3986C156.914 73.7858 155.157 71.7362 154.279 71.4434C148.657 71.4434 139.541 82.7649 136.711 87.8402C135.539 85.2635 132.026 79.0562 129.683 76.1281C126.68 72.3732 126.17 72.3218 125.291 72.6145C122.934 73.4 126.17 87.5473 128.512 91.9393C130.386 95.4529 130.074 97.3073 129.683 97.7953C125.975 102.285 117.913 112.201 115.336 115.949C112.76 119.697 111.53 119.463 111.237 118.877C109.773 117.12 109.48 115.168 108.895 114.192C107.138 110.093 106.552 107.458 106.259 105.701C106.019 104.257 105.967 101.601 105.088 101.016C104.385 100.547 103.624 100.723 103.331 101.016C102.746 101.309 100.111 107.751 99.5249 111.264C99.2321 120.634 100.403 118.876 101.867 123.854C103.039 127.836 102.355 130.198 101.867 130.881C98.9393 136.737 92.7906 145.521 85.7634 152.548C78.7362 159.576 71.1234 166.896 70.245 163.968C69.3666 161.04 69.3666 158.697 67.9026 155.769C66.7314 153.427 67.2194 146.205 67.6098 142.887C67.3755 140.076 65.7554 140.544 64.9746 141.13C63.3349 143.004 61.949 145.619 61.461 146.693C53.5554 162.797 57.9474 171.874 57.9474 173.923C57.9474 175.563 57.557 176.363 57.3618 176.559L39.2082 194.419C38.2712 195.825 36.8658 195.59 36.2802 195.298C32.181 193.541 31.8882 186.513 31.0098 183C30.1314 179.486 29.253 179.779 27.2034 181.243C25.1538 182.707 20.1762 195.59 20.7618 200.275C21.2303 204.023 20.7618 205.35 20.469 205.545L13.7346 213.744C7.00019 221.942 -5.0046 228.969 -12.0318 231.019C-17.6536 232.659 -24.5246 232.873 -27.2574 232.776C-29.0142 232.483 -30.4196 232.776 -32.5278 225.749C-34.6359 218.722 -36.3342 218.136 -36.9198 218.722C-40.6676 225.749 -41.2142 234.923 -41.019 238.632Z" fill="#672540"/>
<path d="M-57.4448 230.033C-58.5753 234.353 -58.3987 239.867 -53.6037 243.456L33.2805 240.678C34.0001 240.235 34.8818 237.145 33.0631 233.162C29.3768 225.089 23.382 224.021 18.3007 221.978C16.5707 221.283 20.0732 218.733 28.1356 214.733C39.8612 207.742 46.8798 200.797 49.6142 197.664C53.26 193.487 51.2973 186.987 47.9412 183.818C44.585 180.649 40.8069 179.53 38.0557 178.463C32.4562 175.87 30.0202 175.57 29.802 175.262C28.8399 174.558 30.2255 172.539 43.4638 170.099C60.0117 167.05 72.5962 157.197 72.3322 148.069C72.0682 138.941 69.0182 131.163 60.8009 129.221C54.2271 127.667 53.4077 126.832 53.8198 126.608C57.5253 124.495 67.0697 118.057 75.6029 109.215C86.2693 98.1628 88.2733 91.4827 88.1095 85.8175C87.9456 80.1523 81.2843 73.3223 73.7488 73.2482C66.2134 73.1741 65.5406 71.6205 65.8178 70.3515C66.095 69.0825 68.152 59.9157 69.6477 51.1764C70.8835 43.9556 64.681 38.6289 62.6433 36.9089C58.5814 35.9024 52.6109 34.6745 48.9479 38.257C45.2848 41.8396 40.9453 50.4667 40.1137 54.2738C39.4485 57.3194 36.2884 67.0429 35.8663 66.174C30.3092 54.7348 24.5165 54.0504 22.7303 53.7924C19.1428 52.752 11.1845 53.9508 6.34165 60.1544C0.288149 67.9088 1.52057 77.526 2.31352 81.5517C3.45616 87.3527 10.8735 104.38 10.3296 103.662C16.169 112.9 17.6157 116.216 15.257 117.867C11.736 120.331 -17.2879 98.8624 -21.8928 108.724C-28.114 122.047 -19.5448 127.095 -15.709 131.938C-12.7593 135.663 -14.0819 146.419 -20.3842 139.218C-24.9112 134.046 -35.7637 128.146 -38.6133 127.884C-43.8551 127.527 -56.903 134.997 -59.3058 147.423C-62.3093 162.956 -30.914 169.996 -28.646 172.443C-28.0425 173.095 -26.6916 174.901 -27.3279 174.607C-31.5078 170.66 -34.4195 171.638 -36.4905 172.334L-36.5131 172.342C-42.6904 175.816 -44.9072 182.376 -45.2434 185.222C-47.1382 195.679 -43.9691 210.096 -42.2016 214.423C-41.1699 216.949 -40.5243 217.558 -40.1925 218.77C-44.2967 217.364 -50.0602 219.629 -51.7321 220.752C-54.1954 222.406 -56.5813 226.733 -57.4448 230.033Z" fill="#673B81"/>
<path fill-rule="evenodd" clip-rule="evenodd" d="M-13.1718 222.148C-11.269 219.002 -8.52834 214.114 -5.36841 207.952C-9.77552 207.356 -13.7539 201.115 -15.2406 197.943C-15.8512 195.195 -14.0755 195.42 -13.1114 195.875C-10.9838 201.648 -6.47239 204.036 -3.98093 204.66C-3.94399 204.685 -3.90681 204.712 -3.86945 204.739C-3.8383 204.761 -3.80703 204.784 -3.7757 204.808C2.81225 191.64 10.808 173.661 16.8405 154.632C17.2289 153.419 17.6456 152.119 18.0865 150.746C15.043 147.512 13.2583 144.126 13.2569 141.734C13.2548 137.022 15.6142 138.749 15.8433 140.428C16.7543 142.981 18.2738 145.099 19.481 146.406C23.3695 134.318 28.5528 118.301 32.9574 104.92C32.1521 104.651 31.2865 104.288 30.4274 103.807C27.3065 102.059 24.1846 99.012 22.8885 95.1204C21.5923 91.2287 22.1995 88.7832 23.4939 90.0781C24.9165 93.4603 28.736 100.466 32.6326 101.434C32.9749 101.616 33.4051 101.819 33.9112 102.027C36.8124 93.2419 39.286 85.8891 40.6859 82.0145C41.345 81.5291 41.9955 83.2484 39.3241 94.0087C38.6552 96.4765 37.8112 99.5317 36.8323 103.005C39.7583 103.789 43.6317 104.293 47.6243 103.533C49.1712 102.943 52.8276 101.32 55.0788 99.5421C55.713 99.5914 56.4945 100.088 54.5476 101.682C54.2359 101.937 53.9105 102.247 53.554 102.587C51.1268 104.902 47.2566 108.593 36.44 105.624C36.3415 105.622 36.2265 105.616 36.0966 105.605C32.5492 118.088 27.5513 134.945 22.6907 149.513C24.5115 149.974 25.7647 150.309 26.6922 150.556L26.6923 150.556L26.6925 150.557L26.6926 150.557C27.9638 150.896 28.6228 151.072 29.2925 151.186C30.0134 151.309 30.7465 151.36 32.2689 151.465L32.2701 151.465L32.2725 151.466C33.0215 151.517 33.9613 151.583 35.1842 151.676C41.711 152.175 38.2697 153.844 35.7332 154.616C31.4103 154.855 25.1974 153.521 21.6609 152.57C20.4371 156.168 19.2293 159.589 18.0632 162.724C12.9667 176.429 5.87288 193.335 0.112428 206.619C2.3815 208.142 6.54511 209.705 11.7367 208.244C14.2898 207.871 13.9869 210.392 11.3176 211.185C9.82248 211.63 2.49177 212.143 -1.34201 209.961C-3.76576 215.512 -5.87569 220.246 -7.38777 223.584L-13.1718 222.148Z" fill="#936FA8"/>
<path d="M-23.9419 359.294C-23.9928 363.445 -22.5903 368.379 -17.4369 370.545L60.6634 348.612C61.2156 348.051 61.3184 345.067 58.773 341.881C53.6139 335.422 47.9412 335.799 42.8768 335.092C41.1525 334.851 43.7516 331.768 50.1558 326.357C59.2053 317.429 64 309.594 65.7718 306.157C68.1342 301.574 64.8912 296.149 61.1362 294.04C57.3811 291.932 53.7058 291.768 50.9725 291.42C45.3145 290.333 43.0395 290.607 42.7724 290.378C41.742 289.958 42.5426 287.827 53.9882 282.666C68.2953 276.215 77.4781 264.513 75.1823 256.338C72.8866 248.163 68.3704 241.828 60.487 241.913C54.1802 241.981 53.2497 241.411 53.5728 241.117C56.4541 238.382 63.6518 230.441 69.3916 220.556C76.5663 208.201 76.8771 201.727 75.4521 196.653C74.0272 191.579 66.4525 186.907 59.6078 188.525C52.7632 190.143 51.8036 188.892 51.7688 187.686C51.7341 186.479 51.5325 177.75 50.9187 169.531C50.4115 162.741 43.5913 159.323 41.3573 158.227C37.45 158.227 31.7635 158.454 29.2515 162.505C26.7396 166.556 24.7514 175.309 24.8557 178.929C24.9391 181.825 24.2666 191.303 23.6884 190.614C16.0756 181.537 10.6726 182.215 8.99601 182.382C5.51093 182.245 -1.43008 185.106 -4.42043 191.785C-8.15837 200.134 -4.87477 208.534 -3.24923 211.988C-0.906834 216.966 9.65055 230.668 8.99601 230.142C16.3684 237.169 18.4265 239.838 16.6612 241.854C14.026 244.864 -17.1098 231.987 -19.0604 241.913C-21.6956 255.323 -12.7937 257.96 -8.22683 261.472C-4.71492 264.172 -3.48979 274.171 -10.8227 269.084C-16.0901 265.43 -27.2529 262.535 -29.894 262.936C-34.7242 263.785 -44.8638 273.441 -44.2412 285.188C-43.463 299.872 -13.4293 299.203 -10.8227 300.904C-10.1291 301.357 -8.498 302.684 -9.14096 302.561C-13.8177 299.935 -16.2355 301.468 -17.9553 302.559L-17.9741 302.571C-22.7887 307.086 -23.3191 313.5 -22.9825 316.143C-22.3433 325.999 -16.2234 338.297 -13.6469 341.805C-12.143 343.853 -11.4207 344.258 -10.8472 345.276C-14.8828 344.926 -19.5946 348.258 -20.8566 349.645C-22.7159 351.688 -23.903 356.125 -23.9419 359.294Z" fill="#E3577A"/>
<path fill-rule="evenodd" clip-rule="evenodd" d="M14.318 342.283C15.3343 339.018 16.718 333.995 18.1949 327.728C14.0677 328.177 9.05905 323.437 6.99853 320.908C5.82733 318.566 7.48653 318.371 8.46253 318.566C11.6884 323.297 16.3128 324.442 18.7103 324.446C18.7827 324.474 18.8562 324.503 18.9304 324.534C21.9374 311.179 25.1375 293.166 26.3228 274.646C26.4019 273.465 26.4871 272.2 26.5776 270.863C23.0922 268.626 20.7133 265.971 20.1741 263.813C19.1123 259.562 21.6383 260.592 22.2236 262.056C23.6236 264.156 25.477 265.726 26.8649 266.635C27.6688 254.858 28.7622 239.245 29.7432 226.186C28.9534 226.124 28.0879 225.991 27.2017 225.749C23.9809 224.87 20.4673 222.821 18.4177 219.6C16.3681 216.379 16.3681 214.037 17.8321 214.915C19.8817 217.648 24.9179 223.114 28.6657 223.114C29.0166 223.201 29.4517 223.288 29.9567 223.363C30.6091 214.786 31.1964 207.598 31.5932 203.789C32.0812 203.203 33.0572 204.609 33.0572 214.915C33.0063 217.292 32.9288 220.237 32.8232 223.591C35.6504 223.642 39.2733 223.229 42.7201 221.65C43.9889 220.771 46.9364 218.487 48.5761 216.379C49.1617 216.282 49.9815 216.555 48.5761 218.429C48.3511 218.729 48.1262 219.082 47.8797 219.468L47.8796 219.468L47.8795 219.468C46.2012 222.1 43.5249 226.297 33.0577 226.042C32.9677 226.062 32.8618 226.082 32.7413 226.101C32.3351 238.158 31.5987 254.487 30.4715 268.718C32.2247 268.726 33.4354 268.748 34.3313 268.764C35.5597 268.785 36.1964 268.796 36.8288 268.749C37.5095 268.699 38.1852 268.58 39.588 268.334C40.2788 268.213 41.1459 268.062 42.2767 267.872C48.3021 266.86 45.5598 269.136 43.4354 270.401C39.5728 271.585 33.6443 271.773 30.2262 271.707C29.9267 275.227 29.6019 278.584 29.2508 281.674C27.7159 295.181 25.0915 312.023 22.8603 325.298C25.2586 326.165 29.3824 326.642 33.7572 324.161C35.9863 323.252 36.2789 325.595 34.0391 326.909C32.7846 327.645 26.2584 329.75 22.2943 328.64C21.3469 334.19 20.5004 338.934 19.8812 342.283H14.318Z" fill="#B84A65"/>
<path d="M56.391 343.987C52.3849 343.455 50.3352 344.04 40.6723 339.941C37.3058 338.513 28.2824 333.446 25.9402 311.193C25.7138 309.042 25.9399 295.382 41.1657 299.774C44.679 300.787 55.886 304.678 55.2203 301.824C54.0797 296.934 43.2262 279.482 47.0217 268.737C47.864 265.782 51.1207 257.904 61.1235 259.661C67.5177 260.246 78.0826 269.961 81.8648 274.886C83.0361 275.765 82.2601 273.413 81.8648 272.543C80.4008 269.323 76.8872 263.467 75.4232 254.683C73.8537 245.266 74.252 234.479 77.7658 224.525C80.7555 216.054 92.4057 210.763 100.019 216.912C105.359 221.226 108.625 231.379 109.881 236.187C102.779 201.568 114.792 181.353 116.708 178.187C121.139 170.867 126.663 171.237 131.055 174.456C135.447 177.674 139.839 186.461 142.956 199.05C143.411 199.904 142.766 195.856 142.956 192.338C143.193 187.94 147.973 173.816 155.726 166.657C161.929 160.931 170.749 162.952 174.383 164.678C176.237 165.262 180.726 168.782 183.852 178.187C184.419 179.056 184.866 179.102 186.394 176.8C193.129 166.657 202.219 162.482 204.898 161.894C213.039 160.109 216.26 160.987 220.652 164.208C223.287 166.657 226.114 168.96 225.63 176.8C225.024 186.601 214.796 193.429 213.625 195.537C212.161 198.173 214.796 197.001 219.774 197.294C240.27 198.5 236.707 214.568 232.657 220.718C228.85 226.498 228.013 228.145 214.796 237.993C213.039 239.302 212.161 239.75 208.354 241.8C206.305 243.264 210.956 242.949 214.503 245.313C219.774 248.827 223.201 251.462 220.066 259.661C216.26 269.616 205.55 274.854 187.566 280.449C174.39 284.549 163.966 283.085 163.556 284.549C163.263 286.891 169.761 286.683 175.268 290.405C178.01 292.014 181.417 297.432 178.196 304.752C175.748 310.315 170.876 313.243 168.241 314.707C164.341 316.874 158.579 318.513 146.574 321.149C137.126 323.222 132.328 322.711 134.276 323.198C137.79 324.077 139.668 324.559 141.596 326.126C150.966 333.739 140.387 343.643 139.547 343.987L56.391 343.987Z" fill="#A16BBA"/>
<path fill-rule="evenodd" clip-rule="evenodd" d="M160.577 227.104C163.552 224.07 168.326 219.354 173.453 214.571C171.454 211.083 170.588 208.858 170.277 206.001L170.245 205.707V205.707C169.933 202.852 169.69 200.628 170.598 198.663C171.346 197.044 172.032 198.526 171.947 199.231C171.947 200.954 172.188 202.181 172.375 203.131L172.375 203.131C172.506 203.796 172.61 204.325 172.587 204.794C173.681 207.538 175.056 210.639 176.327 211.919C181.594 207.112 186.949 202.542 190.896 199.878C190.578 200.379 188.465 202.917 182.554 209.062C181.198 210.472 179.692 211.98 178.075 213.575C178.475 214.033 179.286 214.688 180.921 215.631C184.567 217.733 186.371 217.717 189.619 217.688H189.619C190.015 217.684 190.432 217.681 190.876 217.681C194.39 217.68 194.776 218.758 193.804 219.73C192.926 220.608 184.727 220.315 183.556 220.023C180.833 219.342 177.627 217.801 175.203 216.392C174.777 216.808 174.346 217.229 173.909 217.655L173.909 217.655C167.483 223.926 160.015 231.213 153.34 238.976C152.09 240.429 149.976 242.841 147.197 245.985C148.91 246.404 150.942 246.469 152.227 246.469C152.501 246.454 152.794 246.44 153.102 246.425L153.103 246.425C155.43 246.314 158.594 246.162 160.577 245.204C161.37 244.586 163.176 243.62 163.646 244.325C164.233 245.208 160.935 248.471 158.083 249.174C155.231 249.877 154.277 249.889 148.714 249.889C146.746 249.889 145.301 249.607 144.308 249.248C136.189 258.404 124.171 271.844 111.554 285.836C112.64 286.317 114.08 286.821 115.92 287.368C116.862 287.659 120.77 288.306 123.24 287.953C125.29 287.66 125.29 289.124 124.411 289.417C123.467 290.395 118.262 291.174 114.749 290.588C112.726 290.251 110.608 289.584 108.834 288.851C100.111 298.513 91.2164 308.309 83.2224 317.026C85.0442 318.079 87.7308 319.152 90.739 319.152C92.5934 319.25 93.9598 319.738 96.5943 321.038C97.4727 321.819 97.1799 323.205 88.9815 322.502C86.7066 321.997 82.9098 321.041 80.3883 320.113C71.5308 329.744 64.0131 337.782 59.428 342.423L55.3105 342.414C57.359 340.603 64.8098 331.597 73.5214 321.067C74.5711 319.798 75.6391 318.507 76.7182 317.204C74.7005 314.852 70.9246 310.372 72.2919 303.763C73.6973 296.97 74.8302 302.658 74.9278 306.562C75.3014 308.953 77.1621 312.316 79.1962 314.214C89.1303 302.239 99.5239 289.878 104.917 284.607C101.267 282.521 100.316 277.537 99.7625 274.636C99.6757 274.182 99.5988 273.779 99.5227 273.446C98.9611 270.987 100.122 266.714 101.005 266.134C101.712 265.67 102.129 266.502 102.248 266.975C102.633 276.81 105.898 280.602 108.027 281.557C117.972 271.771 129.791 259.82 142.826 246.098C141.608 244.425 139.789 241.703 139.051 240.226C138.105 238.336 137.294 236.42 137.603 232.346C137.886 228.612 139.903 229.249 140.139 230.875C140.174 231.116 140.209 231.401 140.247 231.714L140.247 231.715C140.422 233.16 140.671 235.217 141.393 236.42C143.001 240.096 145.069 241.577 146.373 242.352C150.977 237.473 155.721 232.385 160.577 227.104Z" fill="#8C4EB4"/>
<path d="M15.1816 329.951C14.0104 333.933 14.0265 339.063 18.4024 342.541H99.524C100.207 342.151 101.113 339.306 99.524 335.55C96.3032 327.937 90.74 326.766 86.0552 324.716C84.4602 324.018 87.7962 321.753 95.4248 318.275C106.551 312.126 113.286 305.879 115.921 303.049C119.434 299.275 117.779 293.176 114.734 290.13C111.689 287.085 108.195 285.934 105.657 284.86C100.504 282.283 98.2394 281.932 98.0442 281.639C97.1658 280.956 98.5127 279.121 110.927 277.247C126.446 274.904 138.451 266.121 138.451 257.63C138.451 249.138 135.815 241.818 128.203 239.769C122.112 238.129 121.371 237.329 121.761 237.133C125.275 235.279 134.351 229.579 142.55 221.615C152.798 211.66 154.847 205.511 154.847 200.241C154.847 194.971 151.334 187.065 144.307 186.772C137.279 186.479 136.694 185.015 136.987 183.844C137.279 182.673 140.207 175.353 139.622 166.862C139.153 160.069 135.327 155.052 133.473 153.393C130.838 150.465 123.518 150.172 120.004 153.393C116.491 156.614 111.806 165.983 110.927 169.497C110.225 172.308 108.878 171.644 108.292 170.961C104.544 163.231 100.289 160.713 98.6298 160.42C95.3114 159.346 87.5034 158.604 82.8186 164.226C76.9626 171.253 76.377 187.943 76.6698 191.749C76.9041 194.795 75.9866 194.189 75.4986 193.506C70.1111 186.713 64.2746 187.943 62.0298 189.407C60.273 190.578 56.5252 195.439 55.5882 205.511C54.6513 215.583 56.5328 232.518 59.9802 237.133C62.6313 240.683 67.7143 250.162 62.0298 243.282C57.9465 238.34 53.5545 236.583 50.9034 236.255C46.0234 235.767 35.6193 237.661 33.0426 249.138C29.8218 263.485 41.5497 274.94 43.5993 277.283C44.1446 277.906 45.3561 279.625 44.7705 279.332C40.9779 275.54 38.2354 276.363 36.2847 276.948L36.2634 276.954C30.4074 279.999 28.1626 286.031 27.7722 288.666C25.7226 298.329 28.2898 311.822 29.8218 315.897C30.7161 318.275 31.3018 318.86 31.5786 319.996C27.7881 318.567 22.3507 320.502 20.7609 321.495C18.4185 322.959 16.0761 326.91 15.1816 329.951Z" fill="#E890A6"/>
<path fill-rule="evenodd" clip-rule="evenodd" d="M98.2343 222.802C95.8849 228.185 93.8274 233.204 92.4989 236.582C89.5491 244.849 86.6413 252.784 83.8103 260.34C82.3941 259.712 80.0754 257.897 78.1518 253.857C77.4686 252.393 75.9265 249.173 75.2238 248.001C74.6382 247.221 73.467 246.596 73.467 250.344C73.467 254.294 75.7565 257.411 77.1768 259.345C77.4411 259.705 77.6752 260.023 77.859 260.299C78.5878 261.392 80.7811 262.911 82.4546 263.945C76.2236 280.453 70.3986 295.054 65.3608 307.225C63.0403 307.171 58.5845 304.942 54.435 296.021C54.1422 295.63 53.4394 295.025 52.971 295.728C52.3854 296.606 52.971 300.998 54.435 303.048C54.6332 303.325 54.8595 303.667 55.1144 304.053C56.7417 306.513 59.5375 310.74 63.6883 311.246C57.5657 325.895 52.7626 336.589 50.043 342.283H54.7278C56.2433 338.471 58.0471 333.953 60.0294 328.988C61.9462 324.187 64.0299 318.968 66.1815 313.564C68.5192 314.034 72.3967 314.564 75.5166 314.174C79.2644 313.706 81.1774 311.051 81.6654 309.782C81.9582 308.416 82.1338 306.151 80.4942 308.025C78.8545 309.899 76.4926 310.563 75.5166 310.661C71.8515 311.068 69.101 310.177 67.8033 309.489C73.9913 293.926 80.527 277.349 85.1416 265.113C86.0871 265.449 87.6737 265.707 90.1566 265.569C94.7783 265.314 96.2386 264.167 98.0913 262.712C98.3623 262.499 98.6417 262.28 98.9405 262.056C101.283 260.299 102.161 257.371 101.283 256.785C100.58 256.317 99.4285 257.957 98.9405 258.835C97.3009 260.709 94.3533 261.373 93.0845 261.47C92.0957 261.668 88.8109 261.462 86.5785 261.276C88.2827 256.687 89.6246 252.921 90.4493 250.344C93.4359 241.011 97.2554 231.797 100.618 223.764C103.636 224.131 109.39 224.439 111.822 223.113C114.398 221.707 115.628 218.623 115.921 217.257C115.921 215.598 115.687 213.04 114.75 216.086C113.578 219.892 111.822 221.942 107.137 221.356C103.697 220.926 102.46 220.299 102.205 219.972C103.501 216.867 104.687 213.986 105.675 211.401C108.72 203.437 109.677 200.275 109.774 199.689C106.819 204.245 103.141 211.805 99.8212 219.213C98.0759 218.603 94.918 216.7 94.2538 213.158C93.8634 212.084 93.1412 209.117 93.3754 205.838C93.1802 205.154 92.6142 204.198 91.9115 205.838C91.0331 207.887 90.4475 213.45 91.9115 216.086C93.3172 218.616 94.9927 220.336 98.2343 222.802Z" fill="#E67591"/>
<path d="M166.282 323.977C158.552 329.599 154.667 337.836 153.691 341.252V342.423H274.618C283.753 327.198 287.013 315.193 287.501 311.094C288.477 304.945 287.969 292.12 278.131 290.012C268.293 287.904 259.002 290.891 255.586 292.647C242.995 300.26 237.432 307.873 236.847 311.094C236.261 314.315 235.09 317.535 234.797 315.779C234.563 314.373 233.528 312.655 233.04 311.972C228.355 306.116 219.864 304.945 210.202 309.923C202.472 313.905 197.221 329.931 195.562 337.446C194.859 330.184 191.17 325.441 189.413 323.977C184.923 321.634 174.012 318.355 166.282 323.977Z" fill="#EFCB94"/>
<path fill-rule="evenodd" clip-rule="evenodd" d="M233.626 342.576L264.956 320.908C267.103 319.932 265.132 322.899 240.068 342.576H233.626ZM230.405 331.157C230.601 330.571 231.108 331.274 231.577 338.77C231.674 339.941 231.928 342.342 232.162 342.576H228.62C228.354 339.624 228.367 333.648 230.405 331.157Z" fill="#DCB06D"/>
<path d="M1414.44 339.012C1416.29 336.988 1420.26 331.499 1421.41 325.74C1421.35 325.132 1420.11 324.672 1415.62 327.695C1411.13 330.718 1410.47 329.894 1409.33 329.24C1407.72 328.019 1403.91 324.685 1401.47 321.122C1398.42 316.669 1394.85 307.051 1394.84 299.227L1394.83 291.404C1394.76 291.155 1395.11 290.179 1397.13 288.261C1399.65 285.862 1402.83 276.188 1402.35 274.395C1401.87 272.602 1401.5 272.024 1399.36 273.618C1397.21 275.211 1393.76 279.083 1390.6 278.169C1390.13 278.063 1389.22 277.539 1389.34 276.3L1387.34 257.628C1387.32 257.426 1387.47 256.787 1388.24 255.852C1389.19 254.683 1395.94 251.558 1398.96 238.678C1399.18 237.838 1399.61 235.698 1399.55 233.863C1399.38 233.164 1398.68 232.14 1397.23 233.633C1395.9 235.708 1392.8 240.056 1391.04 240.844C1388.84 241.83 1387.74 243.166 1385.87 244.426C1384 245.685 1383.08 237.952 1382.36 230.66C1381.64 223.368 1382.23 215.484 1383.3 210.776C1383.34 210.158 1384.06 208.491 1386.58 206.767C1389.75 204.613 1389.59 206.162 1393.8 200.681C1395.11 198.403 1396.62 193.498 1396.42 193.057C1396.39 192.753 1396.04 192.297 1395.42 192.236C1394.65 192.159 1393.38 193.65 1392.56 194.361C1391.58 195.226 1390.01 196.455 1387.09 197.972C1386.3 198.255 1385.22 199.232 1383.57 199.55C1383.13 199.747 1382.31 199.306 1382.6 195.964C1382.88 192.622 1382.92 183.198 1382.9 178.904C1382.9 178.444 1383.59 177.24 1386.3 176.112C1389.69 174.701 1398.15 168.144 1397.17 166.595C1396.81 166.017 1396.49 165.808 1393.02 166.546C1390.32 167.121 1385.41 169.02 1383.54 169.942C1384.3 165.724 1384.39 155.007 1381.19 152.379C1380.55 152.136 1378.59 152.484 1377.7 159.015C1377.54 162.509 1377.05 169.421 1376.4 169.117C1375.6 168.736 1367.99 164.735 1365.2 164.399C1362.4 164.063 1363.08 166.297 1368.41 172.058L1368.5 172.16C1369.5 173.262 1371.3 175.251 1375.15 178.139C1376.08 178.834 1374.53 198.196 1373.66 207.898C1373.49 208.323 1372.26 208.097 1368.65 203.793C1365.03 199.488 1363.13 198.715 1362.63 198.866C1362.28 198.952 1361.99 200.066 1363.59 203.834C1365.59 208.545 1367.47 212.041 1373.41 217.741C1373.61 218.283 1373.82 221.26 1372.97 228.831C1372.13 236.401 1373.23 245.323 1373.88 248.838C1373.94 249.907 1373.12 251.338 1369.4 248.516C1364.76 244.988 1361.89 242.358 1360.81 242.312C1359.73 242.265 1361.14 245.654 1363.4 248.345C1365.66 251.035 1366.16 254.514 1372.92 262.282C1374.43 263.615 1377.58 266.545 1378.05 267.602C1378.52 268.66 1379.96 277.078 1380.62 281.155C1380.36 281.59 1378.73 282.232 1374.35 281.317C1369.96 280.403 1366.59 278.866 1365.45 278.212C1364.38 278.267 1363.9 279.9 1370.52 285.993C1377.14 292.087 1381.59 292.924 1382.98 292.58L1386.43 314.944C1383.81 313.823 1378.18 311.253 1376.58 309.939C1374.57 308.297 1375.64 313.642 1378.56 316.032L1386.91 322.874C1388.18 324.667 1391.55 329.658 1394.84 335.28L1399.44 341.722L1401.47 344.357L1403.54 346.553C1401.42 346.797 1399.44 347.139 1395.92 346.553C1395.44 347.48 1395.75 349.862 1400.9 351.97C1403.12 352.799 1407.34 354.605 1410.56 353.434L1414.44 357.826L1436.62 357.826L1429.01 352.555L1423.45 348.456L1418.47 343.771L1414.44 339.012Z" fill="#672540"/>
<path d="M1271.26 313.246C1273.1 311.222 1277.08 305.734 1278.22 299.974C1278.16 299.366 1276.92 298.907 1272.43 301.93C1267.95 304.952 1267.28 304.128 1266.14 303.474C1264.54 302.253 1260.72 298.919 1258.28 295.357C1255.23 290.903 1251.67 281.285 1251.66 273.461L1251.65 265.638C1251.57 265.39 1251.93 264.414 1253.94 262.495C1256.47 260.097 1259.65 250.422 1259.16 248.629C1258.68 246.836 1258.32 246.259 1256.17 247.852C1254.03 249.446 1250.58 253.317 1247.42 252.404C1246.95 252.297 1246.04 251.774 1246.16 250.534L1244.15 231.863C1244.13 231.66 1244.28 231.021 1245.05 230.086C1246.01 228.917 1252.75 225.792 1255.77 212.912C1256 212.072 1256.43 209.932 1256.37 208.097C1256.2 207.398 1255.49 206.374 1254.04 207.868C1252.72 209.943 1249.62 214.29 1247.86 215.079C1245.65 216.065 1244.56 217.401 1242.69 218.66C1240.82 219.92 1239.9 212.187 1239.17 204.895C1238.45 197.602 1239.05 189.718 1240.12 185.01C1240.16 184.392 1240.87 182.726 1243.4 181.002C1246.56 178.847 1246.41 180.397 1250.62 174.915C1251.93 172.638 1253.43 167.732 1253.24 167.292C1253.21 166.988 1252.86 166.531 1252.24 166.47C1251.46 166.394 1250.19 167.884 1249.38 168.595C1248.39 169.46 1246.82 170.69 1243.91 172.207C1243.12 172.49 1242.04 173.466 1240.38 173.784C1239.94 173.981 1239.13 173.54 1239.41 170.198C1239.69 166.856 1239.73 157.433 1239.71 153.139C1239.72 152.678 1240.41 151.474 1243.12 150.346C1246.51 148.936 1254.96 142.379 1253.99 140.829C1253.62 140.251 1253.31 140.043 1249.84 140.78C1247.13 141.356 1242.23 143.254 1240.36 144.176C1241.11 139.959 1241.21 129.241 1238 126.614C1237.36 126.37 1235.4 126.718 1234.52 133.25C1234.35 136.744 1233.86 143.655 1233.22 143.351C1232.41 142.971 1224.8 138.97 1222.01 138.634C1219.21 138.297 1219.9 140.531 1225.22 146.292L1225.32 146.395C1226.31 147.497 1228.11 149.485 1231.97 152.374C1232.89 153.068 1231.35 172.431 1230.47 182.132C1230.31 182.557 1229.08 182.332 1225.46 178.027C1221.84 173.722 1219.94 172.949 1219.45 173.101C1219.1 173.186 1218.8 174.3 1220.4 178.069C1222.4 182.78 1224.28 186.275 1230.22 191.976C1230.43 192.518 1230.63 195.494 1229.79 203.065C1228.94 210.636 1230.04 219.558 1230.7 223.073C1230.75 224.141 1229.93 225.572 1226.22 222.75C1221.57 219.223 1218.7 216.593 1217.62 216.546C1216.55 216.5 1217.96 219.888 1220.22 222.579C1222.48 225.269 1222.98 228.749 1229.73 236.516C1231.25 237.849 1234.39 240.779 1234.86 241.837C1235.34 242.894 1236.78 251.312 1237.44 255.389C1237.17 255.824 1235.55 256.466 1231.16 255.552C1226.78 254.637 1223.4 253.1 1222.26 252.446C1221.19 252.501 1220.71 254.134 1227.33 260.228C1233.95 266.321 1238.4 267.158 1239.8 266.815L1243.25 289.178C1240.63 288.057 1234.99 285.487 1233.39 284.173C1231.39 282.531 1232.46 287.877 1235.38 290.266L1243.73 297.108C1245 298.901 1248.37 303.893 1251.66 309.515L1256.25 315.956L1258.28 318.591L1260.35 320.787C1258.24 321.031 1256.25 321.373 1252.74 320.787C1252.25 321.715 1252.56 324.096 1257.72 326.204C1259.93 327.034 1264.16 328.839 1267.38 327.668L1271.26 332.061L1293.44 332.061L1285.82 326.789L1280.26 322.69L1275.28 318.005L1271.26 313.246Z" fill="#672540"/>
<path d="M1310.11 350.33C1312.63 351.9 1313.52 353.19 1320.92 355.38C1323.5 356.142 1330.99 357.484 1342.72 345.951C1343.85 344.837 1350.1 336.979 1339.41 332.356C1336.94 331.29 1328.77 328.261 1330.48 326.952C1333.41 324.71 1347.73 319.879 1350.59 312.008C1351.5 309.938 1353.33 303.946 1346.83 300.268C1342.93 297.612 1332.4 298.188 1327.95 299.215C1326.87 299.166 1328.41 298.194 1329.04 297.886C1331.38 296.742 1336.11 295.061 1341.04 290.761C1346.34 286.151 1351.15 279.844 1353.81 272.553C1356.07 266.35 1351.93 257.903 1344.74 257.834C1339.69 257.786 1333.09 262.022 1330.14 264.163C1350.34 247.838 1352.97 230.753 1353.37 228.061C1354.27 221.837 1350.96 219.465 1346.97 219.239C1342.97 219.013 1336.37 221.946 1328.72 227.633C1328.06 227.906 1330.32 225.91 1331.86 223.825C1333.78 221.219 1337.67 210.971 1336.61 203.285C1335.77 197.137 1329.82 194.162 1326.95 193.443C1325.63 192.909 1321.43 192.808 1315.27 196.684C1314.54 196.912 1314.26 196.729 1314.47 194.709C1315.39 185.806 1312.18 179.189 1310.94 177.604C1307.15 172.786 1304.91 171.779 1300.92 171.555C1298.28 171.713 1295.6 171.699 1292.21 176.374C1287.97 182.218 1290.58 190.872 1290.26 192.616C1289.86 194.795 1288.91 192.899 1285.95 190.74C1273.76 181.846 1268.27 192.628 1267.7 198.011C1267.15 203.069 1266.86 204.395 1269.76 216.16C1270.14 217.724 1270.43 218.388 1271.63 221.33C1272.11 223.119 1269.62 220.766 1266.5 220.451C1261.87 219.981 1258.69 219.875 1256.64 225.992C1254.15 233.42 1257.78 241.397 1265.37 252.976C1270.93 261.46 1277.53 265.5 1277.08 266.522C1276.15 267.988 1272.56 264.834 1267.7 264.372C1265.39 264.004 1260.92 265.486 1259.33 271.145C1258.12 275.446 1259.51 279.384 1260.33 281.446C1261.53 284.498 1264.03 288.122 1269.61 295.227C1274 300.818 1276.96 302.771 1275.63 302.137C1273.23 300.993 1271.94 300.389 1270.11 300.377C1261.23 300.319 1262.61 310.882 1262.93 311.47L1310.11 350.33Z" fill="#A16BBA"/>
<path fill-rule="evenodd" clip-rule="evenodd" d="M1305.61 235.319C1305.34 232.207 1304.84 227.299 1304.16 222.189C1306.93 221.145 1308.46 220.287 1309.97 218.811L1310.13 218.659C1311.64 217.185 1312.81 216.037 1313.22 214.497C1313.55 213.228 1312.47 213.749 1312.19 214.189C1311.38 215.167 1310.67 215.75 1310.12 216.202L1310.12 216.202C1309.74 216.518 1309.43 216.77 1309.22 217.047C1307.32 218.092 1305.09 219.209 1303.77 219.342C1303.03 214.153 1302.13 209.057 1301.13 205.701C1301.08 206.134 1301.09 208.561 1301.57 214.81C1301.68 216.245 1301.83 217.804 1302.01 219.464C1301.57 219.538 1300.8 219.53 1299.43 219.301C1296.38 218.79 1295.36 217.938 1293.53 216.404L1293.53 216.404C1293.31 216.217 1293.07 216.02 1292.82 215.812C1290.83 214.17 1290.11 214.601 1290.2 215.607C1290.29 216.515 1295.08 220.181 1295.88 220.562C1297.75 221.448 1300.29 222.072 1302.32 222.405C1302.37 222.84 1302.41 223.281 1302.46 223.726L1302.46 223.727C1303.18 230.288 1304.01 237.913 1304.17 245.437C1304.2 246.846 1304.27 249.203 1304.38 252.286C1303.21 251.723 1302.03 250.81 1301.3 250.209C1301.15 250.072 1300.99 249.927 1300.83 249.775C1299.56 248.625 1297.83 247.06 1297.15 245.589C1296.99 244.868 1296.42 243.476 1295.82 243.657C1295.08 243.883 1295.42 247.276 1296.71 249.008C1298 250.739 1298.54 251.192 1301.7 253.792C1302.81 254.711 1303.77 255.226 1304.5 255.487C1304.83 264.477 1305.36 277.719 1305.98 291.554C1305.14 291.32 1304.09 290.933 1302.79 290.384C1302.12 290.109 1299.6 288.65 1298.36 287.295C1297.34 286.171 1296.65 287.002 1297.02 287.579C1297.09 288.575 1299.68 291.449 1301.95 292.759C1303.26 293.513 1304.77 294.123 1306.12 294.537C1306.55 304.096 1307.02 313.811 1307.49 322.494C1305.96 322.24 1303.93 321.594 1302.22 320.187C1301.13 319.376 1300.12 319.015 1298.02 318.521C1297.16 318.554 1296.68 319.477 1301.66 322.91C1303.18 323.686 1305.79 324.919 1307.65 325.57C1308.18 335.174 1308.69 343.248 1309.12 348.024L1311.46 349.943C1311.14 347.958 1311.12 339.366 1311.1 329.32L1311.1 329.32C1311.1 328.109 1311.1 326.877 1311.09 325.634C1313.34 325.242 1317.57 324.463 1319.88 320.076C1322.26 315.564 1318.96 318.262 1317.08 320.432C1315.75 321.614 1313.13 322.652 1311.08 322.779C1311.04 311.342 1310.92 299.47 1310.32 293.959C1313.37 294.481 1316.24 292.097 1317.91 290.71C1318.17 290.493 1318.4 290.3 1318.6 290.147C1320.07 289.014 1321.41 286.047 1321.18 285.305C1320.99 284.711 1320.37 284.988 1320.08 285.201C1315.26 290.602 1311.64 291.228 1309.99 290.775C1308.92 280.575 1307.79 268.27 1306.81 254.392C1308.28 254.012 1310.59 253.317 1311.7 252.824C1313.12 252.193 1314.47 251.486 1316.2 249.03C1317.78 246.778 1316.34 246.197 1315.45 247.009C1315.32 247.13 1315.16 247.275 1314.99 247.435L1314.99 247.436L1314.99 247.436C1314.22 248.174 1313.12 249.225 1312.15 249.57C1309.52 250.904 1307.65 250.778 1306.55 250.609C1306.21 245.689 1305.9 240.585 1305.61 235.319Z" fill="#8C4EB4"/>
<path d="M1303.55 360.985C1302.22 363.659 1301.59 367.296 1304.25 370.309L1361.72 380.483C1362.25 380.292 1363.25 378.39 1362.6 375.529C1361.27 369.732 1357.48 368.205 1354.41 366.165C1353.37 365.471 1356.02 364.284 1361.86 362.776C1370.51 359.816 1376.07 356.235 1378.29 354.56C1381.25 352.327 1380.85 347.798 1379.07 345.259C1377.29 342.72 1374.96 341.466 1373.3 340.387C1369.97 337.915 1368.41 337.382 1368.31 337.15C1367.77 336.556 1368.96 335.425 1377.99 335.654C1389.28 335.941 1398.88 331.224 1399.95 325.208C1401.01 319.192 1400.06 313.676 1394.93 311.269C1390.82 309.344 1390.39 308.683 1390.7 308.594C1393.42 307.721 1400.56 304.821 1407.37 300.207C1415.88 294.44 1418.1 290.34 1418.76 286.607C1419.42 282.873 1415.97 277.479 1411.03 276.391C1406.09 275.302 1405.86 274.191 1406.21 273.398C1406.57 272.605 1409.16 266.884 1411.33 261.366C1413.12 256.806 1409.77 252.461 1408.66 251.053C1406.13 249.833 1402.37 248.204 1399.48 250.045C1396.59 251.886 1392.57 256.939 1391.5 259.318C1390.65 261.221 1387.26 267.154 1387.1 266.527C1385 258.266 1381.28 257.018 1380.14 256.603C1377.93 255.426 1372.54 255.113 1368.51 258.508C1363.48 262.752 1362.99 269.222 1362.96 271.969C1362.93 275.927 1365.49 288.105 1365.23 287.559C1367.81 294.416 1368.31 296.789 1366.54 297.544C1363.89 298.672 1347.73 280.603 1343.37 286.427C1337.47 294.296 1342.42 298.785 1344.28 302.488C1345.72 305.335 1343.39 312.198 1340.22 306.611C1337.95 302.598 1331.62 297.235 1329.78 296.67C1326.39 295.712 1316.8 298.805 1313.53 306.613C1309.45 316.373 1329.13 325.319 1330.29 327.236C1330.59 327.746 1331.24 329.115 1330.86 328.835C1328.65 325.672 1326.6 325.911 1325.15 326.081L1325.13 326.083C1320.6 327.506 1318.25 331.497 1317.64 333.315C1314.98 339.904 1315.11 349.786 1315.68 352.864C1316.02 354.661 1316.36 355.149 1316.41 355.989C1313.91 354.501 1309.81 355.19 1308.56 355.694C1306.72 356.438 1304.56 358.943 1303.55 360.985Z" fill="#E3577A"/>
<path fill-rule="evenodd" clip-rule="evenodd" d="M1333.66 361.91C1335.34 360.112 1337.8 357.288 1340.72 353.687C1337.9 352.691 1336.13 348.053 1335.59 345.77C1335.56 343.886 1336.7 344.278 1337.27 344.709C1337.88 348.783 1340.52 350.969 1342.08 351.721C1342.11 351.762 1342.15 351.804 1342.19 351.848C1348.31 344.13 1356.01 333.454 1362.56 321.82C1362.98 321.079 1363.43 320.286 1363.91 319.448C1362.35 316.91 1361.64 314.446 1361.96 312.878C1362.6 309.792 1363.91 311.248 1363.84 312.38C1364.09 314.178 1364.8 315.775 1365.42 316.798C1369.61 309.415 1375.2 299.636 1379.91 291.478C1379.42 291.191 1378.9 290.834 1378.4 290.4C1376.59 288.825 1374.95 286.399 1374.63 283.672C1374.31 280.944 1375.04 279.426 1375.71 280.452C1376.19 282.864 1377.74 287.979 1380.17 289.149C1380.37 289.316 1380.63 289.508 1380.93 289.715C1384.04 284.359 1386.66 279.883 1388.11 277.538C1388.61 277.311 1388.8 278.527 1385.58 285.207C1384.81 286.732 1383.84 288.617 1382.72 290.757C1384.54 291.674 1387.01 292.537 1389.74 292.589C1390.84 292.416 1393.46 291.857 1395.18 291.002C1395.59 291.122 1396.04 291.555 1394.54 292.331C1394.3 292.455 1394.05 292.613 1393.77 292.787C1391.86 293.969 1388.81 295.853 1382.11 292.419C1382.04 292.404 1381.97 292.384 1381.88 292.359C1377.85 300.047 1372.28 310.401 1367.1 319.273C1368.24 319.826 1369.01 320.218 1369.59 320.508L1369.59 320.508L1369.59 320.508L1369.59 320.508C1370.38 320.906 1370.79 321.112 1371.21 321.279C1371.67 321.459 1372.15 321.593 1373.13 321.872L1373.13 321.872C1373.62 322.009 1374.23 322.182 1375.02 322.412C1379.24 323.637 1376.75 324.257 1374.98 324.413C1372.11 323.974 1368.21 322.245 1366.01 321.134C1364.72 323.322 1363.46 325.396 1362.27 327.289C1357.05 335.565 1350.09 345.662 1344.5 353.57C1345.78 354.88 1348.31 356.476 1351.92 356.234C1353.65 356.341 1353.1 357.951 1351.24 358.103C1350.2 358.188 1345.31 357.515 1343.09 355.559C1340.74 358.86 1338.71 361.67 1337.27 363.648L1333.66 361.91Z" fill="#B84A65"/>
<path d="M1184.39 365.889C1191.59 378.71 1207.97 379.383 1211.06 379.754L1277.01 375.572C1281.17 363.559 1282.2 326.602 1280.73 321.917C1279.19 316.995 1272.73 311.604 1268.43 311.962C1264.92 312.254 1264.63 312.649 1262.87 313.133C1257.32 314.663 1251.5 317.905 1251.16 317.818C1249.4 318.403 1247.35 320.16 1248.52 316.939C1250.9 310.416 1254.09 310.79 1256.43 299.664C1258.72 288.776 1253.5 283.267 1246.18 280.632C1242.87 279.44 1237.69 279.754 1236.81 279.754C1234.47 280.046 1233.36 280.893 1233.59 280.046C1235.05 274.776 1237.7 257.32 1234.18 253.402C1230.65 249.483 1225.1 249.888 1223.05 249.302C1221.25 248.787 1221.59 248.434 1221.59 244.325C1221.59 236.712 1219.54 231.149 1216.61 227.928C1208.47 218.972 1202.7 219.137 1200.21 219.144C1196.29 218.729 1185.86 223.536 1185.02 236.548C1184.71 241.304 1186.36 251.373 1188.06 254.573C1189.42 257.133 1188.95 257.558 1188.06 257.442C1180.1 254.201 1175.25 255.175 1173.83 256.067C1170.64 257.488 1164.34 262.158 1164.62 269.47C1164.96 278.611 1175.69 291.411 1178.45 294.045C1180.66 296.153 1179.57 296.316 1178.75 296.135C1170.21 294.687 1166.69 299.505 1166 302.095C1165.48 304.14 1165.94 310.26 1171.98 318.375C1178.02 326.491 1190.74 337.823 1196.39 338.949C1200.74 339.815 1210.86 343.463 1202.03 342.15C1195.69 341.206 1191.25 342.837 1189.06 344.366C1185.1 347.267 1178.63 355.632 1184.39 365.889Z" fill="#EFCB94"/>
<path d="M1283.18 388.962C1282.94 392.838 1284.02 397.514 1288.73 399.778L1362.73 382.924C1363.27 382.426 1363.51 379.642 1361.28 376.546C1356.76 370.271 1351.44 370.358 1346.74 369.462C1345.14 369.157 1347.72 366.397 1353.95 361.639C1362.82 353.719 1367.67 346.621 1369.49 343.492C1371.91 339.32 1369.13 334.099 1365.72 331.954C1362.31 329.809 1358.88 329.485 1356.34 329.032C1351.11 327.753 1348.97 327.903 1348.73 327.676C1347.79 327.235 1348.63 325.282 1359.57 320.993C1373.24 315.632 1382.36 305.125 1380.6 297.38C1378.84 289.634 1374.91 283.504 1367.54 283.216C1361.65 282.986 1360.8 282.41 1361.12 282.15C1363.94 279.729 1371.03 272.644 1376.86 263.675C1384.14 252.465 1384.73 246.43 1383.63 241.623C1382.54 236.815 1377.69 230.334 1371.22 231.526C1364.75 232.719 1363.91 231.506 1363.93 230.376C1363.96 229.247 1365.11 221.961 1362.81 214.337C1360.97 208.238 1356.44 204.457 1354.4 203.329C1351.39 201.205 1344.65 202.459 1342.12 206.127C1339.58 209.795 1337.25 219.315 1337.18 222.703C1337.13 225.413 1335.76 225.088 1335.08 224.586C1330.06 218.313 1325.65 216.9 1324.08 216.978C1320.83 216.688 1313.55 217.633 1310.45 223.735C1306.57 231.362 1309.5 246.708 1310.56 250.119C1311.4 252.848 1310.44 252.487 1309.85 251.965C1303.53 246.888 1298.46 249.222 1296.72 251.024C1295.36 252.457 1292.95 257.67 1294.18 267.053C1295.42 276.435 1300.66 291.492 1304.76 294.986C1307.92 297.673 1314.52 305.264 1307.91 300.169C1303.16 296.509 1298.79 295.819 1296.3 296.071C1291.75 296.639 1282.65 300.528 1282.68 311.533C1282.73 325.29 1295.8 333.303 1298.16 335.014C1298.79 335.469 1300.25 336.785 1299.65 336.64C1295.41 333.968 1293.08 335.289 1291.42 336.228L1291.4 336.238C1286.69 340.232 1285.9 346.201 1286.09 348.686C1286.23 357.926 1291.37 369.701 1293.61 373.1C1294.92 375.083 1295.58 375.496 1296.07 376.474C1292.31 375.959 1287.76 378.853 1286.51 380.09C1284.68 381.912 1283.36 386.002 1283.18 388.962Z" fill="#E890A6"/>
<path fill-rule="evenodd" clip-rule="evenodd" d="M1336.68 273.965C1335.65 279.364 1334.82 284.37 1334.31 287.727C1333.34 295.881 1332.33 303.724 1331.32 311.204C1329.9 310.926 1327.4 309.752 1324.81 306.467C1323.88 305.273 1321.81 302.655 1320.92 301.733C1320.23 301.142 1319.03 300.816 1319.81 304.235C1320.63 307.838 1323.36 310.206 1325.06 311.675C1325.38 311.948 1325.66 312.19 1325.88 312.403C1326.77 313.249 1329.09 314.179 1330.83 314.774C1328.58 331.128 1326.3 345.657 1324.23 357.806C1322.1 358.239 1317.57 357.131 1311.94 349.855C1311.59 349.56 1310.82 349.154 1310.54 349.892C1310.19 350.815 1311.63 354.7 1313.4 356.266C1313.63 356.478 1313.91 356.743 1314.22 357.041C1316.22 358.947 1319.65 362.222 1323.54 361.822C1321 376.456 1318.84 387.209 1317.54 392.968L1321.81 391.995C1322.4 388.204 1323.11 383.708 1323.89 378.768C1324.64 373.99 1325.46 368.795 1326.3 363.418C1328.53 363.361 1332.17 363.039 1334.94 362.035C1338.26 360.829 1339.45 358.01 1339.63 356.751C1339.62 355.444 1339.31 353.342 1338.2 355.392C1337.09 357.442 1335.08 358.538 1334.21 358.83C1330.95 359.963 1328.26 359.722 1326.93 359.363C1329.34 343.882 1331.86 327.402 1333.52 315.282C1334.46 315.391 1335.96 315.297 1338.19 314.656C1342.36 313.463 1343.45 312.113 1344.84 310.401C1345.04 310.151 1345.25 309.893 1345.48 309.626C1347.25 307.537 1347.44 304.683 1346.52 304.332C1345.78 304.05 1345.07 305.785 1344.81 306.688C1343.7 308.738 1341.15 309.956 1340.01 310.308C1339.15 310.694 1336.11 311.189 1334.04 311.483C1334.64 306.943 1335.08 303.229 1335.3 300.706C1336.08 291.573 1337.65 282.374 1339.05 274.348C1341.88 274.056 1347.19 273.142 1349.14 271.426C1351.2 269.609 1351.68 266.54 1351.66 265.233C1351.32 263.719 1350.57 261.435 1350.35 264.408C1350.07 268.123 1348.89 270.358 1344.5 270.797C1341.27 271.12 1340.01 270.803 1339.71 270.558C1340.25 267.457 1340.73 264.583 1341.1 262.02C1342.22 254.122 1342.43 251.039 1342.4 250.484C1340.65 255.254 1338.87 262.914 1337.38 270.362C1335.66 270.168 1332.39 269.088 1331.04 265.995C1330.46 265.097 1329.19 262.54 1328.72 259.5C1328.4 258.918 1327.69 258.163 1327.39 259.804C1327.01 261.857 1327.63 267.053 1329.52 269.153C1331.32 271.168 1333.21 272.39 1336.68 273.965Z" fill="#E67591"/>
<path fill-rule="evenodd" clip-rule="evenodd" d="M1236.84 341.284C1237.54 342.765 1237.97 343.661 1238.04 343.872L1240.97 342.701C1236.79 337.056 1231.9 326.3 1227.24 314.362C1230.5 311.285 1232.41 307.592 1231.6 304.638C1230.9 302.062 1230.14 302.979 1229.84 303.76C1229.61 306.571 1228.57 308.445 1228.09 309.03C1227.44 309.913 1226.76 310.666 1226.07 311.305C1222.37 301.587 1218.88 291.323 1216.08 282.541C1221 280.222 1222.43 277.384 1222.52 276.235C1222.52 273.19 1221.55 273.99 1221.06 274.771C1219.97 277.312 1217.4 279.431 1215.49 280.665C1212.61 271.533 1210.56 264.256 1209.93 261.302C1208.29 253.572 1207.1 252.616 1206.71 253.104C1208.01 262.375 1210.36 272.153 1213.23 281.723C1210.38 282.345 1206.23 281.861 1204.37 281.505C1201.79 280.803 1202.71 281.993 1203.49 282.677C1205.18 283.523 1209.31 284.663 1213.74 283.422C1216.92 293.794 1220.65 303.869 1224.23 312.726C1221.42 314.532 1218.65 314.793 1217.25 314.594C1213.5 314.594 1214.71 316.155 1215.79 316.936C1217.84 317.381 1222.38 317.697 1225.48 315.793C1230.37 327.649 1234.79 336.962 1236.84 341.284Z" fill="#DCB06D"/>
</svg>
