<svg width="1920" height="1086" viewBox="0 0 1920 1086" fill="none" xmlns="http://www.w3.org/2000/svg">
<g clip-path="url(#clip0_314_45)">
<path d="M251 671.316C110 671.316 69 682.279 0 688.475V1086H1920V656.063C1850.16 656.064 1391.48 658.612 1171 656.064C1006 654.157 937.089 695.372 619 721.364C482.082 732.552 344.776 671.316 251 671.316Z" fill="#D1B2B2"/>
<path d="M369.228 676.61C275.725 653.772 84.1166 667.094 0 676.61V1086H1459H1920V1025.29V1015.76C1920 1015.76 1879 984.653 1873.5 981.643C1872.56 981.129 1841 964.403 1825.5 963.08C1792.93 960.298 1789.5 963.08 1772.5 965.086C1748.46 967.924 1738.5 972.97 1703.5 965.086C1679 959.568 1630.89 932.388 1611.5 900.365C1564.3 822.432 1526.5 805.039 1465.03 808.049C1428.19 809.853 1390.1 795.181 1383.94 790.457C1368.93 778.95 1349.8 773.589 1340.68 772.568C1326 770.922 1316.77 769.142 1316.77 769.142C1316.77 769.142 1292.92 764.737 1281.48 759.246C1264 750.854 1261.37 750.111 1253.02 734.886C1249.06 727.655 1235.95 711.288 1196.1 711.288C1088.71 711.288 991.983 719.747 951 719.747C910.5 719.747 909.06 711.028 925.5 707.706C997.5 693.156 1066.5 656.385 1017 667.067C938.5 684.007 788.689 683.767 706.959 676.61C598 667.067 486.106 705.156 369.228 676.61Z" fill="url(#paint0_linear_314_45)"/>
</g>
<defs>
<linearGradient id="paint0_linear_314_45" x1="1012" y1="419.219" x2="1012" y2="1075.97" gradientUnits="userSpaceOnUse">
<stop stop-color="#131549"/>
<stop offset="1" stop-color="#8277AB"/>
</linearGradient>
<clipPath id="clip0_314_45">
<rect width="1920" height="1086" fill="white"/>
</clipPath>
</defs>
</svg>
