<svg width="1920" height="430" viewBox="0 0 1920 430" fill="none" xmlns="http://www.w3.org/2000/svg">
<path d="M251 15.3158C110 15.3158 69 26.2787 0 32.4752V430H1920V0.0634753C1850.16 0.0637371 1391.48 2.61212 1171 0.0638935C1006 -1.84308 937.089 39.3725 619 65.3639C482.082 76.5516 344.776 15.3158 251 15.3158Z" fill="#D1B2B2"/>
<path d="M369.228 21.5098C275.725 -1.2492 84.1166 12.0269 0 21.5098V430H734H1465.03H1920V403V375V356C1920 339.5 1879 328.5 1873.5 325.5C1872.56 324.988 1841 308.319 1825.5 307C1792.93 304.228 1789.5 307 1772.5 309C1748.46 311.828 1738.5 316.857 1703.5 309C1679 303.5 1630.89 276.413 1611.5 244.5C1564.3 166.833 1526.5 149.5 1465.03 152.5C1428.19 154.298 1390.1 139.676 1383.94 134.967C1368.93 123.5 1349.8 118.158 1340.68 117.14C1326 115.5 1316.77 113.726 1316.77 113.726C1316.77 113.726 1292.92 109.336 1281.48 103.864C1264 95.5 1261.37 94.7599 1253.02 79.5873C1249.06 72.3803 1235.95 56.0697 1196.1 56.0697C1088.71 56.0697 991.983 64.5 951 64.5C910.5 64.5 909.06 55.8109 925.5 52.5C997.5 38 1066.5 1.35484 1017 12C938.5 28.8817 788.689 28.643 706.959 21.5098C598 12 486.106 49.9585 369.228 21.5098Z" fill="url(#paint0_linear_317_43)"/>
<defs>
<linearGradient id="paint0_linear_317_43" x1="1012" y1="-235" x2="1012" y2="419.5" gradientUnits="userSpaceOnUse">
<stop stop-color="#131549"/>
<stop offset="1" stop-color="#8277AB"/>
</linearGradient>
</defs>
</svg>
