<svg width="172" height="165" viewBox="0 0 172 165" fill="none" xmlns="http://www.w3.org/2000/svg">
<path d="M90.7693 140.071C87.4553 132.9 89.3885 121.224 90.7693 116.283C92.1499 107.899 97.7888 100.838 100.436 98.3562C104.003 97.0922 112.863 94.3574 119.768 93.53C128.398 92.4958 138.754 93.8747 146.349 93.53C152.425 93.2542 160.848 89.2781 164.3 87.3246C164.991 86.8648 166.164 85.2559 165.336 82.4981C164.507 79.7403 161.999 80.4297 160.848 81.1191C157.741 83.4173 149.801 87.8759 142.897 87.3246C134.267 86.6354 119.768 87.6693 111.137 89.393C104.233 90.772 104.578 89.0481 105.614 88.0137C110.585 81.9462 118.042 73.5346 121.148 70.0872C123.082 67.3293 127.477 66.8694 129.434 66.9843C138.754 66.9843 146.349 65.9503 153.599 63.5368C160.848 61.1233 168.788 50.7812 170.859 46.2995C172.516 42.7141 172.01 40.4389 171.55 39.7495C170.274 36.5431 166.822 36.5431 165.336 39.7495C162.919 48.7132 153.253 58.3659 146.349 58.3659C139.445 58.3659 139.79 59.0554 133.231 60.0896C127.984 60.917 128.053 59.2852 128.743 58.3659C131.229 54.2291 132.08 50.4366 132.195 49.0574C132.886 44.231 135.303 37.3361 143.588 32.8546C151.873 28.3732 155.325 18.0305 156.015 13.5488C156.568 9.96344 156.015 8.81395 155.325 7.68812C153.358 4.4817 150.252 5.1712 149.906 8.61866C149.321 16.4441 145.659 22.742 143.588 24.5807C141.516 26.3044 137.374 29.2691 137.374 27.3387C137.374 24.9256 141.516 6.30898 140.826 3.20626C140.135 0.103544 138.409 -0.585949 135.303 0.44829C132.196 1.48253 129.434 23.5463 130.469 29.7517C131.505 35.9572 128.053 37.3361 128.053 35.2677C128.053 33.613 125.061 26.764 123.565 23.5463C119.077 16.3067 121.148 6.30887 121.148 3.89564C121.148 1.48242 118.732 0.103431 116.661 1.82716C115.004 3.20615 114.359 8.14752 114.244 10.4458C113.899 13.2038 113.899 20.3056 116.661 26.6489C119.422 32.9922 122.414 42.3923 123.565 46.2995C125.291 56.9866 113.899 65.95 110.447 71.466C107.685 75.8787 106.534 73.3046 106.304 71.466C103.888 66.6395 106.304 53.8839 108.03 50.7812C109.411 48.299 108.606 46.2995 108.03 45.61C105.821 43.9552 103.427 45.3801 102.507 46.2995C98.3643 55.2629 97.3287 63.5368 99.4 72.5002C101.057 79.6709 100.09 83.0724 99.4 83.8768C99.1238 87.4621 92.3806 95.0236 89.0436 98.3562C87.7778 100.769 85.1772 104.768 84.901 101.459C84.6248 98.1493 81.7941 93.185 80.4132 91.1165C79.1475 88.3585 77.5825 78.9814 81.4489 63.5368C86.2819 44.231 84.901 44.5757 84.901 37.3361C84.901 31.5443 82.5996 30.556 81.4489 30.7859C77.5825 29.9585 78.2269 35.4974 79.0324 38.3703C79.8609 46.0926 78.2269 51.9303 77.3063 53.8839C76.0405 55.7225 73.4399 60.9167 73.1638 66.9843C72.8876 73.0518 71.2076 72.5002 70.4021 71.466C68.1006 68.4782 61.9098 59.8135 55.5579 49.0574C47.618 35.6123 50.3797 39.4045 48.3084 34.2333C46.6514 30.0964 45.7769 27.4532 45.5467 26.6486C43.3373 24.1665 41.4041 26.0741 40.7137 27.3381C41.0589 35.2673 43.1302 44.9202 48.3084 50.0914C52.451 54.2284 52.566 55.9521 52.1058 56.2969C49.8964 57.6758 46.8125 56.4118 45.5467 55.6074C32.4286 48.0229 33.8094 45.2652 30.7025 42.1625C28.217 39.6803 26.675 39.2896 26.2148 39.4045C23.1078 39.4041 22.7626 41.0133 23.1078 42.1625C25.8696 46.1845 32.8428 55.2628 38.6424 59.3998C45.8919 64.571 46.5824 62.5025 50.3797 64.571C53.4176 66.2258 55.5579 68.0184 56.2483 68.7079C63.4978 73.8791 69.3664 82.8426 70.4021 85.9453C71.2306 88.4276 68.9061 88.3585 67.6404 88.0137C63.774 87.738 58.4347 85.1409 56.2483 83.8768C46.5823 80.7741 46.9276 80.0846 42.4398 76.2924C38.8496 73.2587 37.4917 73.1897 37.2616 73.5345C34.4999 74.3619 34.9602 76.867 35.5355 78.0162C38.0211 81.0499 42.3247 84.5663 44.1659 85.9453C54.8675 92.1508 61.7717 93.5297 67.6404 95.5982C72.3353 97.253 75.3501 101.344 76.2707 103.183C79.3086 106.216 79.1475 128.119 78.6872 138.692C78.342 145.472 77.9967 159.514 79.3776 161.445C81.1037 163.858 79.3776 164.203 86.9723 164.892C93.048 165.444 94.7969 163.743 94.9119 162.824C97.3974 159.79 93.1858 146.391 90.7693 140.071Z" fill="#AB5C4B"/>
<path d="M44.1183 145.683C41.9608 140.989 43.2193 133.347 44.1183 130.113C45.0171 124.625 48.688 120.003 50.4111 118.379C52.7334 117.551 58.5016 115.761 62.9964 115.22C68.6148 114.543 75.3569 115.445 80.3011 115.22C84.2565 115.039 89.74 112.437 91.9873 111.158C92.4368 110.857 93.2009 109.804 92.6616 107.999C92.1223 106.194 90.4891 106.645 89.74 107.096C87.7173 108.6 82.5484 111.519 78.0537 111.158C72.4353 110.707 62.9964 111.384 57.378 112.512C52.8832 113.414 53.108 112.286 53.7822 111.609C57.0184 107.637 61.8727 102.132 63.8953 99.8753C65.1538 98.0701 68.0155 97.7691 69.289 97.8442C75.3569 97.8442 80.3011 97.1675 85.0205 95.5877C89.7399 94.008 94.909 87.2386 96.2574 84.3051C97.3361 81.9583 97.0065 80.4691 96.7069 80.0179C95.8763 77.9191 93.629 77.9191 92.6616 80.0179C91.0884 85.885 84.7958 92.2031 80.3011 92.2031C75.8064 92.2031 76.0311 92.6544 71.7611 93.3314C68.3451 93.8729 68.3901 92.8048 68.8396 92.2031C70.4577 89.4954 71.012 87.0131 71.0869 86.1103C71.5364 82.9512 73.1097 78.4381 78.5034 75.5048C83.8971 72.5715 86.1444 65.8018 86.5938 62.8683C86.9534 60.5215 86.5938 59.7691 86.1444 59.0322C84.8642 56.9335 82.8416 57.3848 82.6169 59.6413C82.2356 64.7634 79.8518 68.8857 78.5034 70.0892C77.155 71.2174 74.4581 73.158 74.4581 71.8944C74.4581 70.3149 77.1549 58.1295 76.7055 56.0986C76.256 54.0678 75.1323 53.6165 73.1097 54.2934C71.0871 54.9704 69.289 69.4121 69.9632 73.4739C70.6374 77.5356 68.39 78.4381 68.39 77.0843C68.39 76.0012 66.4422 71.5182 65.4683 69.4121C62.5466 64.6735 63.8953 58.1294 63.8953 56.5499C63.8953 54.9703 62.3222 54.0677 60.9737 55.196C59.895 56.0986 59.4755 59.3329 59.4006 60.8373C59.1758 62.6425 59.1758 67.2909 60.9737 71.4429C62.7716 75.5949 64.7192 81.7477 65.4683 84.3051C66.592 91.3003 59.1757 97.1673 56.9283 100.778C55.1305 103.666 54.3813 101.981 54.2315 100.778C52.6584 97.6186 54.2316 89.2695 55.3553 87.2386C56.2542 85.6139 55.7298 84.3051 55.3553 83.8538C53.917 82.7707 52.3588 83.7034 51.7595 84.3051C49.0627 90.1721 48.3885 95.5877 49.7369 101.455C50.8156 106.148 50.1864 108.375 49.7369 108.901C49.5571 111.248 45.1673 116.197 42.9948 118.379C42.1708 119.958 40.4778 122.576 40.298 120.409C40.1182 118.243 38.2753 114.994 37.3764 113.64C36.5524 111.835 35.5336 105.697 38.0506 95.5877C41.1969 82.9512 40.298 83.1768 40.298 78.4381C40.298 74.6472 38.7997 74.0003 38.0506 74.1508C35.5336 73.6092 35.9531 77.2347 36.4775 79.1151C37.0168 84.1697 35.9531 87.9908 35.3538 89.2695C34.5297 90.4729 32.8367 93.8727 32.6569 97.8442C32.4771 101.816 31.3834 101.455 30.8591 100.778C29.3608 98.8221 25.3305 93.1507 21.1954 86.1103C16.0265 77.3099 17.8244 79.792 16.4759 76.4073C15.3972 73.6995 14.8279 71.9693 14.6781 71.4427C13.2397 69.8181 11.9812 71.0667 11.5317 71.8941C11.7565 77.0841 13.1049 83.4023 16.4759 86.7871C19.1728 89.4949 19.2477 90.6232 18.948 90.8489C17.5097 91.7515 15.5021 90.9241 14.6781 90.3975C6.13808 85.4332 7.03703 83.6281 5.0144 81.5972C3.39629 79.9725 2.39248 79.7168 2.09283 79.792C0.0701981 79.7918 -0.154533 80.8451 0.0701981 81.5972C1.86809 84.2299 6.40776 90.172 10.1833 92.8799C14.9028 96.2646 15.3523 94.9107 17.8244 96.2646C19.802 97.3478 21.1954 98.5212 21.6449 98.9725C26.3643 102.357 30.1848 108.224 30.8591 110.255C31.3984 111.88 29.8852 111.835 29.0612 111.609C26.5441 111.428 23.0682 109.729 21.6449 108.901C15.3523 106.87 15.577 106.419 12.6554 103.937C10.3182 101.951 9.4342 101.906 9.28439 102.132C7.4865 102.673 7.78614 104.313 8.16071 105.065C9.7788 107.051 12.5805 109.353 13.7791 110.255C20.7459 114.317 25.2406 115.219 29.0612 116.573C32.1176 117.657 34.0803 120.334 34.6796 121.538C36.6572 123.523 36.5524 137.86 36.2527 144.78C36.028 149.218 35.8032 158.409 36.7022 159.673C37.8259 161.253 36.7022 161.478 41.6464 161.929C45.6017 162.291 46.7403 161.177 46.8151 160.576C48.4332 158.59 45.6914 149.819 44.1183 145.683Z" fill="#AB7F4B"/>
</svg>
