<svg width="1920" height="1080" viewBox="0 0 1920 1080" fill="none" xmlns="http://www.w3.org/2000/svg">
<g clip-path="url(#clip0_344_615)">
<path d="M1315.03 901.567C1312.58 896.265 1314.01 887.633 1315.03 883.979C1316.05 877.78 1320.21 872.559 1322.17 870.724C1324.8 869.789 1331.34 867.767 1336.44 867.156C1342.81 866.391 1350.46 867.41 1356.06 867.156C1360.55 866.952 1366.77 864.012 1369.32 862.567C1369.83 862.227 1370.69 861.038 1370.08 858.999C1369.47 856.96 1367.62 857.469 1366.77 857.979C1364.47 859.678 1358.61 862.975 1353.51 862.567C1347.14 862.058 1336.44 862.822 1330.07 864.097C1324.97 865.116 1325.23 863.842 1325.99 863.077C1329.66 858.59 1335.16 852.371 1337.46 849.822C1338.89 847.783 1342.13 847.443 1343.58 847.528C1350.46 847.528 1356.06 846.763 1361.42 844.979C1366.77 843.194 1372.63 835.547 1374.16 832.234C1375.38 829.583 1375.01 827.9 1374.67 827.391C1373.73 825.02 1371.18 825.02 1370.08 827.391C1368.3 834.018 1361.16 841.155 1356.06 841.155C1350.97 841.155 1351.22 841.665 1346.38 842.43C1342.5 843.042 1342.56 841.835 1343.07 841.155C1344.9 838.097 1345.53 835.293 1345.61 834.273C1346.12 830.704 1347.91 825.606 1354.02 822.293C1360.14 818.979 1362.69 811.332 1363.2 808.018C1363.61 805.367 1363.2 804.517 1362.69 803.685C1361.24 801.314 1358.94 801.824 1358.69 804.373C1358.26 810.159 1355.55 814.815 1354.02 816.175C1352.5 817.449 1349.44 819.641 1349.44 818.214C1349.44 816.43 1352.5 802.665 1351.99 800.371C1351.48 798.077 1350.2 797.567 1347.91 798.331C1345.61 799.096 1343.58 815.41 1344.34 819.998C1345.1 824.587 1342.56 825.606 1342.56 824.077C1342.56 822.853 1340.35 817.789 1339.24 815.41C1335.93 810.057 1337.46 802.665 1337.46 800.88C1337.46 799.096 1335.67 798.076 1334.15 799.351C1332.92 800.371 1332.45 804.024 1332.36 805.724C1332.11 807.763 1332.11 813.014 1334.15 817.704C1336.18 822.394 1338.39 829.345 1339.24 832.234C1340.52 840.136 1332.11 846.763 1329.56 850.842C1327.52 854.104 1326.67 852.201 1326.5 850.842C1324.72 847.273 1326.5 837.841 1327.77 835.547C1328.79 833.712 1328.2 832.234 1327.77 831.724C1326.14 830.5 1324.38 831.554 1323.7 832.234C1320.64 838.861 1319.87 844.979 1321.4 851.606C1322.63 856.908 1321.91 859.423 1321.4 860.018C1321.2 862.669 1316.22 868.26 1313.76 870.724C1312.82 872.508 1310.9 875.465 1310.7 873.018C1310.49 870.571 1308.41 866.9 1307.39 865.371C1306.45 863.332 1305.3 856.398 1308.15 844.979C1311.72 830.704 1310.7 830.959 1310.7 825.606C1310.7 821.324 1309 820.593 1308.15 820.763C1305.3 820.151 1305.77 824.247 1306.37 826.371C1306.98 832.081 1305.77 836.397 1305.09 837.841C1304.16 839.201 1302.24 843.041 1302.03 847.528C1301.83 852.014 1300.59 851.606 1299.99 850.842C1298.3 848.632 1293.73 842.226 1289.04 834.273C1283.17 824.332 1285.21 827.135 1283.68 823.312C1282.46 820.253 1281.82 818.299 1281.65 817.704C1280.01 815.869 1278.59 817.279 1278.08 818.214C1278.33 824.076 1279.86 831.214 1283.68 835.037C1286.74 838.096 1286.83 839.371 1286.49 839.626C1284.86 840.645 1282.58 839.711 1281.65 839.116C1271.96 833.508 1272.98 831.469 1270.69 829.175C1268.85 827.339 1267.71 827.05 1267.37 827.135C1265.08 827.135 1264.82 828.325 1265.08 829.175C1267.12 832.149 1272.27 838.861 1276.55 841.92C1281.9 845.743 1282.41 844.214 1285.21 845.743C1287.46 846.967 1289.04 848.292 1289.55 848.802C1294.9 852.626 1299.23 859.253 1299.99 861.547C1300.61 863.383 1298.89 863.332 1297.96 863.077C1295.1 862.873 1291.16 860.953 1289.55 860.018C1282.41 857.724 1282.66 857.214 1279.35 854.41C1276.7 852.167 1275.7 852.116 1275.53 852.371C1273.49 852.983 1273.83 854.835 1274.25 855.685C1276.09 857.928 1279.27 860.528 1280.63 861.547C1288.53 866.136 1293.62 867.155 1297.96 868.685C1301.42 869.908 1303.65 872.933 1304.33 874.293C1306.57 876.536 1306.45 892.731 1306.11 900.548C1305.86 905.561 1305.6 915.944 1306.62 917.371C1307.9 919.156 1306.62 919.411 1312.23 919.92C1316.71 920.328 1318 919.071 1318.09 918.391C1319.92 916.148 1316.82 906.241 1315.03 901.567Z" fill="#50515F"/>
</g>
<defs>
<clipPath id="clip0_344_615">
<rect width="1920" height="1080" fill="white"/>
</clipPath>
</defs>
</svg>
