<svg width="1920" height="1080" viewBox="0 0 1920 1080" fill="none" xmlns="http://www.w3.org/2000/svg">
<g clip-path="url(#clip0_344_615)">
<path d="M1470.32 927.631C1466.3 918.896 1468.65 904.673 1470.32 898.654C1472 888.44 1478.85 879.839 1482.07 876.816C1486.4 875.276 1497.16 871.944 1505.55 870.937C1516.03 869.677 1528.61 871.357 1537.84 870.937C1545.22 870.601 1555.45 865.757 1559.65 863.377C1560.49 862.817 1561.91 860.857 1560.9 857.498C1559.9 854.138 1556.85 854.978 1555.45 855.818C1551.68 858.617 1542.03 864.049 1533.65 863.377C1523.16 862.538 1505.55 863.797 1495.07 865.897C1486.68 867.577 1487.1 865.477 1488.36 864.217C1494.4 856.825 1503.45 846.578 1507.23 842.379C1509.58 839.019 1514.92 838.459 1517.29 838.599C1528.61 838.599 1537.84 837.339 1546.65 834.399C1555.45 831.459 1565.1 818.861 1567.61 813.401C1569.63 809.034 1569.01 806.262 1568.45 805.422C1566.9 801.516 1562.71 801.516 1560.9 805.422C1557.97 816.342 1546.23 828.1 1537.84 828.1C1529.45 828.1 1529.87 828.94 1521.9 830.2C1515.53 831.208 1515.61 829.22 1516.45 828.1C1519.47 823.061 1520.51 818.441 1520.65 816.761C1521.49 810.881 1524.42 802.482 1534.49 797.023C1544.55 791.564 1548.74 778.964 1549.58 773.505C1550.25 769.137 1549.58 767.737 1548.74 766.366C1546.35 762.46 1542.58 763.299 1542.16 767.499C1541.45 777.032 1537 784.704 1534.49 786.944C1531.97 789.044 1526.94 792.655 1526.94 790.303C1526.94 787.364 1531.97 764.685 1531.13 760.906C1530.29 757.126 1528.2 756.286 1524.42 757.546C1520.65 758.806 1517.29 785.684 1518.55 793.243C1519.81 800.802 1515.61 802.482 1515.61 799.962C1515.61 797.947 1511.98 789.603 1510.16 785.684C1504.71 776.865 1507.23 764.685 1507.23 761.746C1507.23 758.806 1504.29 757.126 1501.78 759.226C1499.76 760.906 1498.98 766.925 1498.84 769.725C1498.42 773.085 1498.42 781.736 1501.78 789.463C1505.13 797.191 1508.76 808.642 1510.16 813.401C1512.26 826.42 1498.42 837.339 1494.23 844.059C1490.87 849.434 1489.47 846.298 1489.19 844.059C1486.26 838.179 1489.2 822.64 1491.29 818.861C1492.97 815.837 1491.99 813.401 1491.29 812.561C1488.61 810.545 1485.7 812.281 1484.58 813.401C1479.55 824.32 1478.29 834.399 1480.81 845.318C1482.82 854.054 1481.65 858.197 1480.81 859.177C1480.47 863.545 1472.28 872.756 1468.23 876.816C1466.69 879.755 1463.53 884.627 1463.2 880.595C1462.86 876.564 1459.42 870.516 1457.74 867.996C1456.21 864.637 1454.3 853.214 1459 834.399C1464.87 810.881 1463.2 811.301 1463.2 802.482C1463.2 795.427 1460.4 794.223 1459 794.503C1454.3 793.495 1455.09 800.242 1456.07 803.742C1457.07 813.149 1455.09 820.261 1453.97 822.64C1452.43 824.88 1449.27 831.208 1448.94 838.599C1448.6 845.99 1446.56 845.318 1445.58 844.059C1442.79 840.419 1435.27 829.864 1427.55 816.761C1417.91 800.382 1421.26 805.002 1418.74 798.702C1416.73 793.663 1415.67 790.443 1415.39 789.463C1412.71 786.439 1410.36 788.763 1409.52 790.303C1409.94 799.962 1412.45 811.721 1418.74 818.02C1423.78 823.06 1423.92 825.16 1423.36 825.58C1420.67 827.26 1416.93 825.72 1415.39 824.74C1399.45 815.501 1401.13 812.141 1397.36 808.362C1394.34 805.338 1392.46 804.862 1391.91 805.002C1388.13 805.001 1387.71 806.962 1388.13 808.362C1391.49 813.261 1399.96 824.32 1407 829.36C1415.81 835.659 1416.65 833.139 1421.26 835.659C1424.95 837.675 1427.55 839.859 1428.39 840.699C1437.2 846.998 1444.32 857.917 1445.58 861.697C1446.59 864.721 1443.77 864.637 1442.23 864.217C1437.53 863.881 1431.04 860.717 1428.39 859.177C1416.65 855.398 1417.07 854.558 1411.61 849.938C1407.25 846.242 1405.6 846.158 1405.32 846.578C1401.97 847.586 1402.53 850.638 1403.23 852.038C1406.25 855.734 1411.47 860.017 1413.71 861.697C1426.71 869.256 1435.1 870.936 1442.23 873.456C1447.93 875.472 1451.59 880.455 1452.71 882.695C1456.4 886.391 1456.21 913.073 1455.65 925.952C1455.23 934.211 1454.81 951.317 1456.49 953.669C1458.58 956.609 1456.49 957.029 1465.71 957.869C1473.09 958.541 1475.22 956.469 1475.36 955.349C1478.38 951.653 1473.26 935.331 1470.32 927.631Z" fill="#504F74"/>
</g>
<defs>
<clipPath id="clip0_344_615">
<rect width="1920" height="1080" fill="white"/>
</clipPath>
</defs>
</svg>
