<svg width="216" height="239" viewBox="0 0 216 239" fill="none" xmlns="http://www.w3.org/2000/svg">
<path d="M98.0816 202.37C93.2853 192.01 96.0831 175.142 98.0816 168.002C100.08 155.889 108.241 145.688 112.071 142.102C117.234 140.276 130.058 136.325 140.05 135.129C152.54 133.635 167.529 135.628 178.521 135.129C187.314 134.731 199.505 128.986 204.501 126.164C205.5 125.5 207.199 123.175 206 119.191C204.801 115.207 201.17 116.203 199.505 117.199C195.008 120.519 183.517 126.961 173.524 126.164C161.034 125.168 140.05 126.662 127.56 129.153C117.567 131.145 118.067 128.654 119.566 127.16C126.76 118.393 137.552 106.241 142.049 101.26C144.846 97.2754 151.208 96.611 154.039 96.7769C167.529 96.7769 178.521 95.2831 189.013 91.7962C199.504 88.3092 210.996 73.3672 213.994 66.8922C216.392 61.7121 215.659 58.425 214.993 57.429C213.146 52.7965 208.15 52.7965 206 57.429C202.502 70.3795 188.513 84.3253 178.521 84.3253C168.528 84.3253 169.028 85.3215 159.535 86.8157C151.941 88.0111 152.041 85.6535 153.04 84.3253C156.637 78.3487 157.87 72.8694 158.036 70.8768C159.036 63.9037 162.533 53.9421 174.524 47.4674C186.515 40.9927 191.511 26.05 192.51 19.5749C193.31 14.3949 192.51 12.7341 191.511 11.1076C188.665 6.47504 184.169 7.4712 183.669 12.452C182.821 23.758 177.522 32.8571 174.524 35.5135C171.526 38.0038 165.531 42.2872 165.531 39.4981C165.531 36.0118 171.526 9.11504 170.527 4.63232C169.528 0.149597 167.03 -0.846563 162.533 0.647677C158.037 2.14192 154.039 34.019 155.538 42.9845C157.037 51.9499 152.041 53.9421 152.041 50.9538C152.041 48.5631 147.711 38.6678 145.546 34.019C139.05 23.5595 142.048 9.11487 142.048 5.62831C142.048 2.14175 138.551 0.149434 135.553 2.63983C133.155 4.63215 132.223 11.7713 132.056 15.0918C131.557 19.0765 131.557 29.3369 135.553 38.5016C139.55 47.6663 143.88 61.2472 145.546 66.8922C148.044 82.3326 131.556 95.2827 126.56 103.252C122.563 109.627 120.898 105.908 120.565 103.252C117.067 96.2788 120.565 77.8499 123.063 73.3672C125.061 69.781 123.896 66.8922 123.063 65.896C119.865 63.5052 116.401 65.5639 115.069 66.8922C109.074 79.8422 107.575 91.7962 110.572 104.746C112.971 115.106 111.572 120.021 110.572 121.183C110.173 126.363 100.414 137.287 95.584 142.102C93.752 145.589 89.9882 151.367 89.5885 146.585C89.1889 141.803 85.092 134.631 83.0935 131.643C81.2616 127.658 78.9967 114.11 84.5924 91.7962C91.587 63.9037 89.5885 64.4017 89.5885 53.9421C89.5885 45.5743 86.2578 44.1465 84.5924 44.4785C78.9967 43.2832 79.9293 51.2856 81.095 55.4363C82.2941 66.5933 79.9293 75.0275 78.597 77.8499C76.765 80.5063 73.0012 88.0107 72.6015 96.7769C72.2018 105.543 69.7704 104.746 68.6046 103.252C65.2738 98.9353 56.314 86.4169 47.121 70.8768C35.6298 51.4517 39.6268 56.9305 36.6291 49.4593C34.2309 43.4824 32.9652 39.6635 32.6321 38.5012C29.4346 34.915 26.6367 37.6711 25.6375 39.4974C26.1371 50.9532 29.1348 64.8994 36.6291 72.3706C42.6245 78.3476 42.791 80.838 42.1249 81.3361C38.9273 83.3284 34.4641 81.5021 32.6321 80.3399C13.6467 69.3822 15.6451 65.3978 11.1486 60.9151C7.55133 57.3289 5.3197 56.7644 4.65355 56.9305C0.156982 56.93 -0.342636 59.2548 0.156982 60.9151C4.15393 66.726 14.2462 79.8422 22.6398 85.8191C33.1317 93.2903 34.131 90.3018 39.6268 93.2903C44.0234 95.6811 47.121 98.2711 48.1203 99.2673C58.6122 106.738 67.1057 119.689 68.6046 124.171C69.8037 127.758 66.4396 127.658 64.6077 127.16C59.0119 126.761 51.2845 123.009 48.1203 121.183C34.131 116.7 34.6306 115.704 28.1356 110.225C22.9396 105.842 20.9744 105.742 20.6413 106.24C16.6444 107.436 17.3105 111.055 18.1432 112.716C21.7405 117.099 27.9691 122.179 30.6337 124.171C46.1218 133.137 56.1142 135.129 64.6077 138.118C71.4025 140.508 75.7658 146.419 77.0981 149.075C81.4947 153.458 81.2616 185.103 80.5954 200.378C80.0958 210.173 79.5962 230.462 81.5947 233.251C84.0928 236.737 81.5947 237.235 92.5863 238.232C101.38 239.029 103.911 236.571 104.077 235.243C107.674 230.86 101.579 211.501 98.0816 202.37Z" fill="#407080"/>
</svg>
