<svg width="1920" height="1080" viewBox="0 0 1920 1080" fill="none" xmlns="http://www.w3.org/2000/svg">
<path d="M1501.33 695.156C1496.81 685.422 1499.45 669.571 1501.33 662.863C1503.21 651.481 1510.89 641.896 1514.5 638.526C1519.36 636.81 1531.43 633.097 1540.84 631.974C1552.6 630.57 1566.71 632.442 1577.05 631.974C1585.33 631.6 1596.81 626.202 1601.51 623.55C1602.45 622.926 1604.05 620.741 1602.92 616.997C1601.79 613.254 1598.37 614.189 1596.81 615.125C1592.57 618.245 1581.76 624.298 1572.35 623.55C1560.59 622.614 1540.84 624.018 1529.08 626.358C1519.67 628.23 1520.14 625.89 1521.55 624.485C1528.33 616.248 1538.49 604.829 1542.72 600.149C1545.35 596.405 1551.34 595.78 1554.01 595.936C1566.71 595.936 1577.05 594.533 1586.93 591.256C1596.81 587.98 1607.62 573.939 1610.45 567.855C1612.7 562.988 1612.01 559.899 1611.39 558.963C1609.65 554.61 1604.95 554.61 1602.92 558.963C1599.63 571.132 1586.46 584.236 1577.05 584.236C1567.65 584.236 1568.12 585.172 1559.18 586.576C1552.03 587.699 1552.13 585.484 1553.07 584.236C1556.45 578.62 1557.61 573.472 1557.77 571.599C1558.71 565.047 1562 555.687 1573.29 549.603C1584.58 543.519 1589.28 529.478 1590.22 523.394C1590.97 518.526 1590.22 516.966 1589.28 515.437C1586.6 511.084 1582.37 512.02 1581.9 516.7C1581.1 527.324 1576.11 535.874 1573.29 538.37C1570.47 540.71 1564.82 544.735 1564.82 542.114C1564.82 538.838 1570.47 513.565 1569.53 509.353C1568.59 505.141 1566.24 504.205 1562 505.609C1557.77 507.013 1554.01 536.966 1555.42 545.39C1556.83 553.815 1552.13 555.687 1552.13 552.879C1552.13 550.632 1548.05 541.334 1546.01 536.966C1539.9 527.138 1542.72 513.565 1542.72 510.289C1542.72 507.012 1539.43 505.14 1536.6 507.481C1534.35 509.353 1533.47 516.061 1533.31 519.181C1532.84 522.925 1532.84 532.566 1536.6 541.178C1540.37 549.789 1544.44 562.551 1546.01 567.855C1548.36 582.364 1532.84 594.532 1528.14 602.02C1524.38 608.011 1522.81 604.517 1522.49 602.02C1519.2 595.468 1522.5 578.151 1524.85 573.939C1526.73 570.57 1525.63 567.855 1524.85 566.919C1521.84 564.673 1518.58 566.607 1517.32 567.855C1511.68 580.024 1510.27 591.256 1513.09 603.425C1515.35 613.159 1514.03 617.777 1513.09 618.869C1512.71 623.736 1503.53 634.002 1498.98 638.526C1497.25 641.802 1493.71 647.231 1493.33 642.738C1492.96 638.245 1489.1 631.506 1487.22 628.698C1485.5 624.953 1483.36 612.223 1488.63 591.256C1495.22 565.047 1493.33 565.515 1493.33 555.687C1493.33 547.824 1490.2 546.482 1488.63 546.794C1483.36 545.671 1484.24 553.19 1485.34 557.091C1486.47 567.574 1484.24 575.499 1482.99 578.151C1481.26 580.648 1477.72 587.699 1477.34 595.936C1476.97 604.173 1474.68 603.425 1473.58 602.02C1470.45 597.964 1462.01 586.201 1453.36 571.599C1442.54 553.346 1446.3 558.495 1443.48 551.474C1441.22 545.858 1440.03 542.27 1439.72 541.178C1436.71 537.808 1434.07 540.398 1433.13 542.114C1433.6 552.878 1436.43 565.983 1443.48 573.003C1449.12 578.619 1449.28 580.959 1448.65 581.427C1445.64 583.299 1441.44 581.583 1439.72 580.491C1421.85 570.195 1423.73 566.451 1419.49 562.239C1416.11 558.869 1414.01 558.339 1413.38 558.495C1409.15 558.494 1408.68 560.679 1409.15 562.239C1412.91 567.699 1422.41 580.023 1430.31 585.64C1440.19 592.66 1441.13 589.852 1446.3 592.66C1450.44 594.907 1453.36 597.34 1454.3 598.276C1464.17 605.297 1472.17 617.465 1473.58 621.677C1474.71 625.047 1471.54 624.953 1469.82 624.485C1464.55 624.111 1457.28 620.585 1454.3 618.869C1441.13 614.657 1441.6 613.721 1435.49 608.573C1430.59 604.454 1428.74 604.361 1428.43 604.829C1424.67 605.952 1425.29 609.353 1426.08 610.913C1429.46 615.031 1435.33 619.805 1437.84 621.677C1452.42 630.102 1461.82 631.974 1469.82 634.782C1476.22 637.028 1480.32 642.582 1481.58 645.078C1485.72 649.197 1485.5 678.932 1484.87 693.284C1484.4 702.489 1483.93 721.553 1485.81 724.174C1488.16 727.45 1485.81 727.918 1496.16 728.854C1504.43 729.603 1506.82 727.294 1506.97 726.046C1510.36 721.927 1504.62 703.737 1501.33 695.156Z" fill="#407080"/>
</svg>
