<svg width="149" height="165" viewBox="0 0 149 165" fill="none" xmlns="http://www.w3.org/2000/svg">
<path d="M67.7693 140.071C64.4553 132.9 66.3885 121.224 67.7693 116.283C69.1499 107.899 74.7888 100.838 77.4357 98.3562C81.0029 97.0922 89.8634 94.3574 96.7676 93.53C105.398 92.4958 115.754 93.8747 123.349 93.53C129.425 93.2542 137.848 89.2781 141.3 87.3246C141.991 86.8648 143.164 85.2559 142.336 82.4981C141.507 79.7403 138.999 80.4297 137.848 81.1191C134.741 83.4173 126.801 87.8759 119.897 87.3246C111.267 86.6354 96.7676 87.6693 88.1373 89.393C81.233 90.772 81.5782 89.0481 82.6139 88.0137C87.585 81.9462 95.0416 73.5346 98.1485 70.0872C100.082 67.3293 104.477 66.8694 106.434 66.9843C115.754 66.9843 123.349 65.9503 130.599 63.5368C137.848 61.1233 145.788 50.7812 147.859 46.2995C149.516 42.7141 149.01 40.4389 148.55 39.7495C147.274 36.5431 143.822 36.5431 142.336 39.7495C139.919 48.7132 130.253 58.3659 123.349 58.3659C116.445 58.3659 116.79 59.0554 110.231 60.0896C104.984 60.917 105.053 59.2852 105.743 58.3659C108.229 54.2291 109.08 50.4366 109.195 49.0574C109.886 44.231 112.303 37.3361 120.588 32.8546C128.873 28.3732 132.325 18.0305 133.015 13.5488C133.568 9.96344 133.015 8.81395 132.325 7.68812C130.358 4.4817 127.252 5.1712 126.906 8.61866C126.321 16.4441 122.659 22.742 120.588 24.5807C118.516 26.3044 114.374 29.2691 114.374 27.3387C114.374 24.9256 118.516 6.30898 117.826 3.20626C117.135 0.103544 115.409 -0.585949 112.303 0.44829C109.196 1.48253 106.434 23.5463 107.469 29.7517C108.505 35.9572 105.053 37.3361 105.053 35.2677C105.053 33.613 102.061 26.764 100.565 23.5463C96.0768 16.3067 98.1485 6.30887 98.1485 3.89564C98.1485 1.48242 95.732 0.103431 93.6607 1.82716C92.0037 3.20615 91.3593 8.14752 91.2442 10.4458C90.899 13.2038 90.899 20.3056 93.6607 26.6489C96.4224 32.9922 99.4141 42.3923 100.565 46.2995C102.291 56.9866 90.8988 65.95 87.4466 71.466C84.6849 75.8787 83.5342 73.3046 83.3041 71.466C80.8876 66.6395 83.3042 53.8839 85.0303 50.7812C86.4111 48.299 85.6056 46.2995 85.0303 45.61C82.8209 43.9552 80.4274 45.3801 79.5069 46.2995C75.3643 55.2629 74.3287 63.5368 76.4 72.5002C78.057 79.6709 77.0904 83.0724 76.4 83.8768C76.1238 87.4621 69.3806 95.0236 66.0436 98.3562C64.7778 100.769 62.1772 104.768 61.901 101.459C61.6248 98.1493 58.7941 93.185 57.4132 91.1165C56.1475 88.3585 54.5825 78.9814 58.4489 63.5368C63.2819 44.231 61.901 44.5757 61.901 37.3361C61.901 31.5443 59.5996 30.556 58.4489 30.7859C54.5825 29.9585 55.2269 35.4974 56.0324 38.3703C56.8609 46.0926 55.2269 51.9303 54.3063 53.8839C53.0405 55.7225 50.4399 60.9167 50.1638 66.9843C49.8876 73.0518 48.2076 72.5002 47.4021 71.466C45.1006 68.4782 38.9098 59.8135 32.5579 49.0574C24.618 35.6123 27.3797 39.4045 25.3084 34.2333C23.6514 30.0964 22.7769 27.4532 22.5467 26.6486C20.3373 24.1665 18.4041 26.0741 17.7137 27.3381C18.0589 35.2673 20.1302 44.9202 25.3084 50.0914C29.451 54.2284 29.566 55.9521 29.1058 56.2969C26.8964 57.6758 23.8125 56.4118 22.5467 55.6074C9.4286 48.0229 10.8094 45.2652 7.70253 42.1625C5.217 39.6803 3.67505 39.2896 3.21475 39.4045C0.107834 39.4041 -0.237366 41.0133 0.107834 42.1625C2.86955 46.1845 9.84285 55.2628 15.6424 59.3998C22.8919 64.571 23.5824 62.5025 27.3797 64.571C30.4176 66.2258 32.5579 68.0184 33.2483 68.7079C40.4978 73.8791 46.3664 82.8426 47.4021 85.9453C48.2306 88.4276 45.9061 88.3585 44.6404 88.0137C40.774 87.738 35.4347 85.1409 33.2483 83.8768C23.5823 80.7741 23.9276 80.0846 19.4398 76.2924C15.8496 73.2587 14.4917 73.1897 14.2616 73.5345C11.4999 74.3619 11.9602 76.867 12.5355 78.0162C15.0211 81.0499 19.3247 84.5663 21.1659 85.9453C31.8675 92.1508 38.7717 93.5297 44.6404 95.5982C49.3353 97.253 52.3501 101.344 53.2707 103.183C56.3086 106.216 56.1475 128.119 55.6872 138.692C55.342 145.472 54.9967 159.514 56.3776 161.445C58.1037 163.858 56.3776 164.203 63.9723 164.892C70.048 165.444 71.7969 163.743 71.9119 162.824C74.3974 159.79 70.1858 146.391 67.7693 140.071Z" fill="#AB5C4B"/>
</svg>
