<svg width="202" height="121" viewBox="0 0 202 121" fill="none" xmlns="http://www.w3.org/2000/svg">
<path d="M68.3935 153.889C75.5937 166.71 91.9736 167.383 95.064 167.754L161.009 163.572C165.169 151.559 166.195 114.602 164.731 109.917C163.193 104.995 156.725 99.604 152.434 99.9616C148.92 100.254 148.627 100.649 146.871 101.133C141.316 102.663 135.499 105.905 135.159 105.818C133.402 106.403 131.352 108.16 132.523 104.939C134.895 98.4158 138.087 98.7904 140.429 87.664C142.721 76.7763 137.501 71.2672 130.181 68.632C126.87 67.4401 121.69 67.7536 120.811 67.7536C118.469 68.0464 117.355 68.8928 117.591 68.0464C119.055 62.776 121.701 45.3199 118.176 41.4016C114.652 37.4833 109.099 37.888 107.05 37.3024C105.247 36.7874 105.586 36.4345 105.586 32.3248C105.586 24.712 103.536 19.1488 100.608 15.9281C92.4659 6.97156 86.6997 7.13716 84.2114 7.14376C80.2941 6.72917 69.8641 11.5359 69.0172 24.548C68.7077 29.3044 70.3617 39.3731 72.0584 42.5728C73.4157 45.1326 72.9506 45.5583 72.0584 45.442C64.1025 42.2013 59.2545 43.1748 57.825 44.0666C54.6399 45.4876 48.3387 50.1578 48.6153 57.4705C48.961 66.6113 59.6869 79.4113 62.4501 82.0454C64.6607 84.1528 63.574 84.3165 62.7543 84.1349C54.2059 82.6874 50.6891 87.5049 49.9992 90.0946C49.4763 92.1402 49.9403 98.2603 55.9796 106.375C62.019 114.491 74.7431 125.823 80.3927 126.949C84.7373 127.815 94.8559 131.463 86.0286 130.15C79.6878 129.206 75.2475 130.837 73.0569 132.366C69.1024 135.267 62.6333 143.632 68.3935 153.889Z" fill="#EFCB94"/>
</svg>
