<svg width="1920" height="1080" viewBox="0 0 1920 1080" fill="none" xmlns="http://www.w3.org/2000/svg">
<path d="M1212.76 794.579C1216.37 792.325 1221.77 792.505 1224.02 792.876C1227.98 799.973 1220.3 811.363 1215.97 816.171C1213.69 817.396 1208.69 819.586 1206.9 818.546C1204.66 817.247 1202.08 818.648 1200.01 819.08C1197.94 819.513 1191.52 822.789 1190.6 823.257C1189.69 823.725 1188.82 823.893 1188.66 823.866C1188.34 823.813 1188.3 823.324 1188.51 822.912C1189.03 821.914 1189.09 821.385 1189.26 820.713C1189.87 818.338 1190.04 817.467 1190.47 815.189L1190.47 815.182C1191.01 812.329 1191.64 810.699 1191.28 807.417C1191.03 805.209 1191.55 802.456 1191.63 802.055L1191.63 802.054C1191.66 801.854 1191.86 799.955 1193.01 800.889C1194.44 802.055 1198.9 806.508 1200.21 807.498C1201.25 808.29 1202.76 809.778 1205.28 812.238C1204.75 811.531 1203.54 809.876 1202.93 808.907C1202.16 807.697 1202.31 806.018 1203.44 803.571C1204.56 801.124 1208.25 797.397 1212.76 794.579Z" fill="#F5D76A"/>
<path d="M1207.51 809.198C1206.59 808.427 1205.96 806 1206.1 805.249C1206.23 804.548 1206.66 803.544 1207.28 805.134C1207.91 806.724 1209.3 807.634 1209.88 808.041C1210.47 808.447 1210.61 809.452 1210.4 809.675C1209.82 809.837 1208.42 809.968 1207.51 809.198Z" fill="#ECC852"/>
<path d="M1216.99 802.866C1217.02 802.004 1217.09 799.114 1217.13 797.778C1217.16 796.544 1217.79 796.751 1218.1 797.009C1218.5 797.798 1219.33 799.628 1219.4 800.631C1219.5 801.886 1219.09 802.283 1218.71 802.531C1218.34 802.778 1216.95 803.944 1216.99 802.866Z" fill="#ECC852"/>
<path d="M1211.92 805.126C1211.08 803.995 1210.75 801.681 1211.08 800.806C1211.87 799.449 1212.02 801.114 1212.17 802.069C1212.88 803.581 1214.85 804.525 1214.74 805.126C1214.63 805.727 1214.32 806.451 1213.81 806.522C1213.3 806.592 1212.98 806.539 1211.92 805.126Z" fill="#ECC852"/>
<path d="M1221.71 803.333C1223.2 798.252 1222.84 791.492 1222.48 788.747C1223.14 787.369 1224.57 788.474 1225.21 789.198L1232.35 804.006L1214.59 837.468L1207.8 835.727C1203.41 834.383 1198.5 829.7 1198.1 829.17C1197.7 828.64 1197.17 827.933 1197.29 827.332C1197.4 826.732 1201.86 820.654 1207.79 818.226C1213.72 815.797 1219.85 809.685 1221.71 803.333Z" fill="#575853"/>
<path d="M1219.97 784.465C1214.01 775.305 1200.05 770.026 1193.82 768.532C1193.93 767.931 1197.34 768.029 1199.03 768.153C1211.16 769.166 1221.5 772.277 1225.15 773.706C1230.63 775.694 1243.65 781.22 1251.89 787.412C1262.19 795.153 1268.81 806.622 1270.68 815.138C1272.55 823.655 1274.53 826.306 1276.23 827.826C1277.59 829.042 1276.86 829.787 1276.32 830.008C1274.16 830.323 1268.12 831.814 1261.24 835.262C1252.64 839.572 1238.03 840.567 1235.26 841.194C1232.49 841.821 1205.58 836.913 1208.15 835.633C1210.71 834.352 1219.92 825.961 1224.01 816.571C1228.11 807.18 1227.42 795.916 1219.97 784.465Z" fill="#F5FFFD"/>
<path d="M1242.4 781.509C1240.78 780.466 1241.08 781.188 1241.22 781.623C1243 784.147 1243.95 787.958 1244.2 789.549C1246.32 801.979 1244.22 807.827 1239.72 817.615C1236.12 825.445 1233.47 827.889 1230.86 831.175C1226.63 836.051 1224.3 838.453 1222.65 839.575L1225.22 839.999C1224.61 841.137 1224.36 841.304 1224.32 841.245C1223.58 842.361 1220.92 843.471 1219.68 843.886C1218.71 844.097 1218.37 844.651 1218.33 844.901C1217.97 846.082 1221.34 847.361 1223.07 847.853C1229.15 849.352 1234.76 848.544 1236.81 847.952C1247.27 842.556 1245.4 844.57 1249.16 838.687C1252.92 832.804 1257.1 818.625 1255.61 804.596C1254.41 793.372 1252.07 787.957 1251.04 786.652C1247.84 784.637 1243.95 782.384 1242.4 781.509Z" fill="#575853"/>
<path d="M1262.45 820.536C1261.99 819.437 1260.77 819.524 1260.09 819.659C1259.68 819.895 1259.46 820.204 1259.47 820.725C1259.49 821.765 1260.81 822.084 1261.47 822.113C1262.14 822.106 1262.9 821.635 1262.45 820.536Z" fill="#575853" stroke="#575853" stroke-width="0.416826"/>
</svg>
