<svg width="99" height="90" viewBox="0 0 99 90" fill="none" xmlns="http://www.w3.org/2000/svg">
<path d="M30.4765 27.5792C33.8482 25.3253 38.8963 25.5047 40.9988 25.8761C44.7009 32.9727 37.5264 44.3632 33.4764 49.1714C31.3501 50.3961 26.6785 52.5856 25.0037 51.5463C22.9101 50.2473 20.4945 51.6475 18.5596 52.0801C16.6248 52.5126 10.6255 55.7891 9.76849 56.2572C8.91145 56.7253 8.10748 56.893 7.9573 56.8664C7.65694 56.8134 7.61582 56.3236 7.81612 55.9123C8.3022 54.9141 8.35189 54.3847 8.51445 53.7126C9.08875 51.3384 9.24273 50.4667 9.64519 48.1886L9.64628 48.1824C10.1504 45.3289 10.7395 43.6986 10.3986 40.417C10.1693 38.2086 10.6556 35.4558 10.7264 35.0547L10.7265 35.0545C10.7618 34.8542 10.9424 32.9554 12.0165 33.8886C13.3592 35.055 17.5283 39.5083 18.7472 40.498C19.7224 41.2898 21.1322 42.7778 23.4853 45.2382C22.9906 44.5314 21.8583 42.8756 21.286 41.9072C20.5706 40.6967 20.7123 39.0182 21.764 36.5712C22.8158 34.1242 26.262 30.3967 30.4765 27.5792Z" fill="#F5D76A"/>
<path d="M25.5703 42.1998C24.7152 41.4293 24.122 39.0015 24.2546 38.2506C24.3785 37.5497 24.7727 36.5456 25.359 38.1359C25.9453 39.7262 27.2403 40.6364 27.788 41.0429C28.3356 41.4494 28.468 42.4536 28.2736 42.6774C27.7287 42.8393 26.4253 42.9704 25.5703 42.1998Z" fill="#ECC852"/>
<path d="M34.4337 35.8662C34.4621 35.0039 34.5286 32.1145 34.5583 30.7775C34.5863 29.5435 35.1767 29.7511 35.4684 30.0091C35.8452 30.7984 36.6164 32.6279 36.6869 33.6315C36.775 34.886 36.3951 35.2835 36.0417 35.5308C35.6882 35.7781 34.3982 36.944 34.4337 35.8662Z" fill="#ECC852"/>
<path d="M29.6957 38.1255C28.9043 36.9946 28.603 34.6808 28.9123 33.8062C29.6475 32.4494 29.7849 34.1145 29.9261 35.0687C30.5903 36.5805 32.4346 37.5252 32.3285 38.126C32.2224 38.7267 31.9394 39.4511 31.4624 39.5217C30.9853 39.5923 30.6849 39.5392 29.6957 38.1255Z" fill="#ECC852"/>
<path d="M38.8413 36.335C40.2345 31.2536 39.9006 24.494 39.5595 21.7493C40.1746 20.3712 41.5179 21.4758 42.1126 22.2003L48.7888 37.0082L32.1915 70.4704L25.8398 68.7288C21.7408 67.3852 17.1477 62.7021 16.7767 62.172C16.4058 61.6418 15.9112 60.935 16.0173 60.3342C16.1234 59.7335 20.2944 53.6561 25.8341 51.2276C31.3738 48.7991 37.0997 42.6867 38.8413 36.335Z" fill="#575853"/>
<path d="M37.2185 17.4652C31.6508 8.3045 18.6038 3.02614 12.7762 1.53205C12.8823 0.931325 16.0657 1.02908 17.6441 1.15305C28.9875 2.16579 38.6489 5.27671 42.0618 6.70559C47.1825 8.69429 59.3496 14.2199 67.0521 20.4125C76.6804 28.1533 82.8624 39.6217 84.6101 48.1385C86.3578 56.6553 88.2126 59.306 89.8025 60.8258C91.0745 62.0417 90.3852 62.7872 89.8816 63.0079C87.8644 63.3227 82.2218 64.8141 75.7896 68.2619C67.7494 72.5717 54.0999 73.5675 51.5112 74.1943C48.9226 74.8211 23.7716 69.9133 26.166 68.6327C28.5604 67.3522 37.1667 58.9609 40.9938 49.5705C44.8209 40.1801 44.178 28.916 37.2185 17.4652Z" fill="#F5FFFD"/>
<path d="M58.185 14.5087C56.6655 13.4661 56.9512 14.1875 57.0807 14.6234C58.7413 17.1467 59.6268 20.9582 59.862 22.5486C61.8473 34.9791 59.8852 40.8272 55.6781 50.6151C52.3125 58.4454 49.8366 60.8886 47.3977 64.1746C43.4389 69.0505 41.2593 71.4531 39.719 72.5748L42.1219 72.9993C41.5492 74.1371 41.3236 74.3038 41.2824 74.2449C40.5895 75.3614 38.1015 76.4706 36.9441 76.8856C36.0394 77.0975 35.7248 77.651 35.6806 77.9013C35.3482 79.0816 38.4984 80.3608 40.115 80.8529C45.7971 82.3522 51.0402 81.544 52.9516 80.9524C62.7324 75.5563 60.9828 77.5702 64.5 71.6871C68.0172 65.8039 71.9158 51.6252 70.5225 37.5957C69.4079 26.3721 67.2155 20.9567 66.2587 19.652C63.2695 17.6372 59.6308 15.3836 58.185 14.5087Z" fill="#575853"/>
<path d="M76.9157 53.538C76.492 52.4391 75.346 52.5264 74.7098 52.6613C74.3283 52.8974 74.1246 53.2063 74.1332 53.7267C74.1502 54.7671 75.3855 55.086 76.0012 55.1154C76.6318 55.1076 77.3393 54.6369 76.9157 53.538Z" fill="#575853" stroke="#575853" stroke-width="0.416826"/>
</svg>
