<svg width="1920" height="1080" viewBox="0 0 1920 1080" fill="none" xmlns="http://www.w3.org/2000/svg">
<path d="M1279.11 477.745C1284.32 475.693 1291.11 477.312 1293.86 478.377C1296.87 488.756 1283.92 501.825 1277.07 507.062C1273.84 508.097 1266.89 509.708 1264.91 507.878C1262.44 505.591 1258.77 506.777 1256.02 506.819C1253.28 506.86 1244.22 509.542 1242.92 509.926L1242.92 509.926C1241.63 510.309 1240.49 510.31 1240.3 510.234C1239.9 510.082 1239.99 509.424 1240.37 508.936C1241.32 507.752 1241.53 507.067 1241.94 506.224C1243.39 503.248 1243.85 502.14 1245.04 499.243L1245.04 499.235C1246.53 495.608 1247.79 493.617 1248.26 489.193C1248.57 486.216 1250.01 482.716 1250.22 482.206L1250.22 482.206C1250.32 481.951 1251.1 479.495 1252.3 481.02C1253.79 482.927 1258.18 489.945 1259.55 491.585C1260.65 492.897 1262.14 495.246 1264.64 499.137C1264.17 498.069 1263.1 495.574 1262.6 494.139C1261.97 492.346 1262.64 490.17 1264.75 487.228C1266.87 484.287 1272.6 480.31 1279.11 477.745Z" fill="#F5D76A"/>
<path d="M1268.32 495.698C1267.38 494.447 1267.26 491.081 1267.66 490.126C1268.02 489.235 1268.84 488.018 1269.19 490.277C1269.53 492.536 1271.03 494.092 1271.66 494.778C1272.28 495.465 1272.18 496.826 1271.85 497.068C1271.07 497.133 1269.26 496.949 1268.32 495.698Z" fill="#ECC852"/>
<path d="M1282.13 489.766C1282.41 488.636 1283.32 484.84 1283.74 483.084C1284.13 481.463 1284.87 481.899 1285.19 482.319C1285.48 483.464 1286.01 486.089 1285.82 487.433C1285.58 489.113 1284.95 489.533 1284.41 489.763C1283.86 489.993 1281.78 491.178 1282.13 489.766Z" fill="#ECC852"/>
<path d="M1275.07 491.45C1274.32 489.74 1274.56 486.604 1275.23 485.535C1276.61 483.945 1276.33 486.181 1276.25 487.478C1276.72 489.655 1278.95 491.407 1278.64 492.171C1278.33 492.934 1277.74 493.813 1277.07 493.776C1276.4 493.738 1276.01 493.586 1275.07 491.45Z" fill="#ECC852"/>
<path d="M1287.97 491.59C1291.3 485.265 1292.76 476.253 1293.07 472.537C1294.3 470.887 1295.81 472.712 1296.41 473.831L1301.27 495.201L1269.31 534.82L1261.19 530.783C1256.01 527.888 1251.11 520.451 1250.75 519.65C1250.4 518.848 1249.93 517.78 1250.24 517.016C1250.56 516.253 1257.93 509.374 1266.13 507.685C1274.33 505.996 1283.82 499.496 1287.97 491.59Z" fill="#575853"/>
<path d="M1291.11 466.243C1286.15 452.629 1269.96 442.093 1262.48 438.526C1262.79 437.762 1267.08 438.762 1269.19 439.358C1284.28 443.799 1296.5 450.549 1300.72 453.368C1307.1 457.394 1322.04 468.017 1330.73 478.297C1341.59 491.148 1346.73 507.975 1346.69 519.693C1346.65 531.412 1348.42 535.418 1350.14 537.858C1351.52 539.811 1350.38 540.606 1349.63 540.76C1346.81 540.623 1338.74 541.047 1329.04 543.837C1316.92 547.325 1298.13 544.903 1294.45 545.022C1290.76 545.141 1258.05 531.781 1261.66 530.746C1265.26 529.711 1279.31 520.992 1287.15 509.647C1295 498.301 1297.31 483.26 1291.11 466.243Z" fill="#F5FFFD"/>
<path d="M1320.37 468.08C1318.61 466.289 1318.79 467.319 1318.84 467.93C1320.38 471.714 1320.5 476.987 1320.37 479.15C1319.55 496.098 1315.24 503.279 1306.76 515.045C1299.99 524.458 1295.94 527.005 1291.7 530.674C1284.96 536.026 1281.32 538.6 1278.92 539.659L1282.05 540.877C1280.95 542.222 1280.6 542.38 1280.56 542.291C1279.31 543.575 1275.62 544.358 1273.93 544.589C1272.65 544.621 1272.06 545.265 1271.93 545.583C1271.15 547.05 1275.06 549.6 1277.11 550.692C1284.39 554.226 1291.73 554.594 1294.49 554.337C1309.27 549.892 1306.33 552.071 1312.76 545.269C1319.2 538.468 1328.49 520.822 1330.57 501.926C1332.23 486.808 1330.79 479.062 1329.86 477.078C1326.38 473.601 1322.09 469.631 1320.37 468.08Z" fill="#575853"/>
<path d="M1334.73 524.714C1334.47 523.148 1332.89 522.95 1331.99 522.954C1331.41 523.161 1331.04 523.513 1330.91 524.202C1330.64 525.58 1332.22 526.339 1333.05 526.546C1333.9 526.708 1335 526.281 1334.73 524.714Z" fill="#575853" stroke="#575853" stroke-width="0.53094"/>
</svg>
