<svg width="151" height="145" viewBox="0 0 151 145" fill="none" xmlns="http://www.w3.org/2000/svg">
<path d="M89.1825 48.8894C88.3108 50.1113 86.7206 57.1509 86.0345 60.5179C86.1825 61.9143 86.8054 64.2489 88.113 62.416C89.7476 60.125 90.3193 53.7104 91.335 51.485C92.3507 49.2596 90.2722 47.3621 89.1825 48.8894Z" fill="#DC6127"/>
<path d="M115.741 131.006C114.768 130.22 114.597 123.715 114.634 120.561L114.025 120.07C114.112 119.134 114.794 117.876 116.832 120.328C119.38 123.394 119.413 128.949 119.155 131.756C118.897 134.563 116.957 131.989 115.741 131.006Z" fill="#DC6127"/>
<path d="M113.593 121.228C113.06 120.395 113.177 119.048 113.302 118.479C117.583 116.913 116.717 119.229 116.833 120.328C116.95 121.428 114.259 122.269 113.593 121.228Z" fill="#DC6127"/>
<path d="M115.5 118.245C114.294 115.26 109.207 111.315 106.814 109.716C104.401 107.929 102.954 110.015 102.532 111.282L110.553 118.77C112.704 119.839 116.706 121.231 115.5 118.245Z" fill="#DC6127"/>
<path d="M129.766 113.088C128.793 112.301 127.239 113.726 126.584 114.537L127.458 122.783C128.096 125.309 129.743 129.656 131.223 126.831C133.072 123.299 131.998 118.41 131.706 115.662C131.415 112.913 130.982 114.071 129.766 113.088Z" fill="#DC6127"/>
<path d="M127.161 109.472C123.616 105.401 115.706 101.051 112.194 99.3847C110.043 98.3157 106.637 97.3054 110.228 101.817C114.717 107.456 123.546 112.079 126.469 113.437C129.392 114.794 129.884 114.186 130.317 113.029C130.663 112.103 128.357 110.272 127.161 109.472Z" fill="#DC6127"/>
<path d="M142.427 96.1796C140.042 94.6536 137.98 94.4275 137.247 94.5052C134.826 94.3912 130.91 94.5097 134.615 95.8959C138.32 97.2821 140.734 101.177 141.477 102.951C145.242 106.999 143.942 110.472 146.199 110.789C148.457 111.105 147.033 102.918 146.8 100.719C146.567 98.5203 145.409 98.0872 142.427 96.1796Z" fill="#DC6127"/>
<path d="M137.13 93.4068C132.892 91.1877 119.661 91.1818 113.576 91.4562C110.808 91.5643 106.661 92.3003 112.218 94.3795C117.775 96.4588 131.008 96.8351 136.929 96.7633C139.128 96.5303 137.979 94.4285 137.13 93.4068Z" fill="#DC6127"/>
<path d="M137.718 86.0909C135.333 84.5649 134.87 81.9457 134.937 80.8268C134.84 79.9107 134.975 78.0433 136.295 77.9035C137.944 77.7287 145.181 83.0764 146.08 86.3164C146.98 89.5564 145.505 91.3803 144.839 90.3392C144.173 89.298 140.7 87.9984 137.718 86.0909Z" fill="#DC6127"/>
<path d="M134.893 77.5239C130.842 77.0638 118.546 78.8859 112.904 79.8544C111.266 80.1286 107.815 84.2847 112.213 83.8186L135.301 81.3715C136.853 80.2806 138.944 77.9839 134.893 77.5239Z" fill="#DC6127"/>
<path d="M24.3066 119.818C24.0736 117.619 27.697 113.344 29.5378 111.481C30.676 111.731 32.756 112.474 31.9697 113.447C30.9868 114.663 26.2471 122.392 25.1477 122.508C24.0482 122.625 24.598 122.567 24.3066 119.818Z" fill="#DC6127"/>
<path d="M68.4987 47.2376C67.5706 50.1117 69.6624 58.2171 69.7351 58.9033C69.8683 59.5826 74.9034 61.1317 73.4662 59.2022C72.0289 57.2728 70.5465 49.1024 71.0833 48.3515C71.6201 47.6007 69.4268 44.3636 68.4987 47.2376Z" fill="#DC6127"/>
<path d="M66.7413 49.0643C64.9187 48.2685 64.521 45.2738 66.4695 43.5431C70.9747 40.5255 73.4704 45.9403 71.8841 47.6788C70.2978 49.4172 69.0194 50.0591 66.7413 49.0643Z" fill="#42322B"/>
<path d="M88.9788 50.8743C86.2305 49.2269 88.1962 46.0873 89.4572 45.2873C93.8504 43.9641 94.3752 47.2875 94.4295 48.3922C94.4903 49.6271 93.2005 53.4049 88.9788 50.8743Z" fill="#42322B"/>
<path d="M29.5944 112.031C29.5012 111.151 30.1331 110.121 30.4608 109.716C34.3087 109.308 33.5589 112.722 32.5177 113.389C31.4766 114.055 29.7109 113.13 29.5944 112.031Z" fill="#DC6127"/>
<path d="M31.5621 109.599C32.695 107.7 39.3805 104.693 42.5817 103.428L43.1307 103.369C44.4134 103.233 46.389 103.691 44.03 106.609C41.6711 109.528 36.0677 111.9 33.5608 112.722C32.4226 112.472 30.4293 111.497 31.5621 109.599Z" fill="#DC6127"/>
<path d="M14.6955 113.054C14.4625 110.855 17.3141 106.291 18.769 104.284C19.5407 104.572 21.0957 105.26 21.1423 105.7C21.2005 106.249 20.509 110.214 19.5847 111.979C18.6604 113.745 16.6689 121.183 15.3364 119.1C14.2705 117.435 14.465 114.375 14.6955 113.054Z" fill="#DC6127"/>
<path d="M20.7928 102.402C19.8667 102.055 18.6911 103.551 18.219 104.342C19.1183 107.582 22.3584 106.683 22.8498 106.075C23.3412 105.467 21.9505 102.835 20.7928 102.402Z" fill="#DC6127"/>
<path d="M21.7755 101.187C24.5743 98.2216 34.7246 95.7375 39.4499 94.8661C40.7523 94.9134 42.2292 95.9057 37.718 99.4968C33.2068 103.088 24.7878 105.129 21.1422 105.701C20.1872 105.431 18.9768 104.151 21.7755 101.187Z" fill="#DC6127"/>
<path d="M19.5373 85.3029C26.227 85.4832 34.9013 85.1568 38.4023 84.971C40.9006 85.818 44.1731 88.0283 37.2766 90.0934C28.656 92.6747 21.1602 90.1339 20.0616 90.2503C19.1828 90.3434 16.1692 95.4805 14.7722 98.0375C13.5006 100.025 10.9506 102.89 10.9243 98.4453C10.8913 92.8899 11.9325 92.2237 14.3315 88.6341C16.2507 85.7624 18.6017 85.2167 19.5373 85.3029Z" fill="#DC6127"/>
<path d="M19.2967 72.5438C22.1684 74.463 33.9802 78.214 39.5271 79.8496C42.6327 83.9677 39.7041 85.0191 37.8516 85.03C32.6905 83.5388 22.0037 80.2615 20.5445 79.082C19.0854 77.9025 18.0265 78.0518 17.6794 78.2739C15.8001 79.7702 11.3586 82.6128 8.6267 82.0128C5.89485 81.4128 7.25538 79.5641 8.27713 78.7147C10.7538 75.8581 16.425 70.6246 19.2967 72.5438Z" fill="#DC6127"/>
<path d="M36.6982 47.9064C26.3768 51.2239 19.1218 42.9134 16.7844 38.3434C15.0457 34.5259 15.3219 29.7893 15.6774 27.8982C17.9597 23.2085 21.2834 17.8542 25.4481 15.1893C29.6127 12.5243 37.6253 9.45152 43.847 10.4598C50.0686 11.468 54.2661 14.3584 55.1654 17.5984C56.0647 20.8384 55.0818 22.0544 51.5252 25.2108C48.6798 27.7359 41.6827 31.9981 38.5398 33.8136L42.2713 32.3068C45.4336 30.6745 52.1114 27.595 53.5239 28.3347C54.9365 29.0744 54.1733 32.7129 53.6151 34.4398C52.2767 37.5463 47.0196 44.5889 36.6982 47.9064Z" fill="#DC6127"/>
<path d="M21.2224 53.9937C20.4098 50.5221 21.6505 45.7953 22.3725 43.8658C25.8175 38.6089 30.9653 42.7698 33.1086 45.5073C32.9946 47.9283 32.4718 53.1349 31.2923 54.594C30.1128 56.0532 30.6117 60.4103 31.0086 62.4065C30.556 63.381 28.9328 64.8501 26.0612 62.9309C23.1895 61.0117 21.6388 56.1731 21.2224 53.9937Z" fill="#DC6127"/>
<path d="M24.2111 66.4624C23.2383 65.6761 24.2668 63.4918 24.9027 62.4979C27.9094 59.3998 31.4995 61.7987 31.6743 63.4479C31.8491 65.097 30.9244 66.8627 28.7839 67.6454C26.6433 68.4282 25.4271 67.4453 24.2111 66.4624Z" fill="#DC6127"/>
<path d="M41.0033 78.0227C36.9988 78.0025 30.862 71.5005 28.2941 68.252C27.0075 66.6328 29.242 61.4836 31.2457 64.6054C34.1876 69.1889 40.9316 72.1009 43.2275 72.784C44.1547 74.5387 45.0079 78.043 41.0033 78.0227Z" fill="#DC6127"/>
<path d="M108.51 43.631C104.665 40.9255 103.355 36.9508 103.18 35.3017C102.561 32.9583 101.693 27.5652 103.172 24.7401C104.652 21.9151 106.315 22.9247 106.962 23.7826C107.484 25.2096 109.32 28.2021 112.492 28.7553C115.664 29.3086 115.568 28.0587 115.124 27.3646C113.281 25.707 109.536 21.8421 109.303 19.6433C109.07 17.4444 111.133 15.929 112.193 15.4462C113.823 15.0882 117.985 14.4988 121.597 15.0054C126.111 15.6388 134.331 19.7705 136.188 26.8002C138.045 33.8299 137.645 40.543 136.287 43.4663C134.929 46.3897 129.723 49.7209 121.969 49.9869C114.215 50.2528 113.315 47.0128 108.51 43.631Z" fill="#DC6127"/>
<path d="M120.993 61.7634C121.593 59.0316 120.311 51.8297 119.595 48.5703C122.047 46.5315 127.463 45.8834 129.864 45.8142C130.367 47.058 131.256 50.5585 130.796 54.6096C130.336 58.6607 126.79 62.2608 125.074 63.5544C123.464 64.0957 120.393 64.4952 120.993 61.7634Z" fill="#DC6127"/>
<path d="M120.127 64.0779C119.107 62.8518 120.935 61.2128 121.976 60.5466C122.69 60.2856 124.383 60.1803 125.449 61.8461C126.781 63.9284 125.915 66.2438 124.266 66.4186C122.617 66.5934 121.401 65.6105 120.127 64.0779Z" fill="#DC6127"/>
<path d="M117.063 66.6258C115.004 68.1781 110.98 70.4205 109.225 71.3477C107.544 72.2669 108.469 74.7016 109.142 75.804C109.383 76.3343 110.931 76.9486 115.188 75.1631C120.511 72.9314 119.786 71.3405 122.735 67.6926C125.684 64.0448 123.485 64.2775 123.368 63.178C123.252 62.0786 119.637 64.6853 117.063 66.6258Z" fill="#DC6127"/>
<path d="M69.6758 58.2818C58.1319 59.5057 52.5618 64.6447 48.8816 66.6359C42.5727 70.0488 37.1009 84.7607 37.6007 89.4759C38.6169 95.6037 43.6573 108.683 53.8304 113.327C66.5467 119.131 84.792 116.16 92.9511 115.295C101.11 114.43 105.963 109.577 110.043 103.475C117.24 92.7086 115.202 80.4845 112.627 75.4092C107.006 64.3314 98.4018 61.9375 97.2563 61.5087C96.1107 61.0799 81.6918 57.008 69.6758 58.2818Z" fill="#DC6127"/>
<path d="M75.0391 61.3301C76.4821 63.0136 80.0897 64.9377 84.4188 62.0516" stroke="#42322B" stroke-width="1.32262" stroke-linecap="round"/>
</svg>
