<svg width="49" height="89" viewBox="0 0 49 89" fill="none" xmlns="http://www.w3.org/2000/svg">
<path d="M38.0649 37.1859C36.6616 36.7649 33.6212 37.8291 32.2764 38.4138C25.9617 43.6762 30.1715 52.4463 30.1715 53.4988C30.1715 54.5512 32.2764 54.9021 34.2059 55.2529C35.7495 55.5335 36.6032 54.6682 36.837 54.2004C39.2928 51.0431 40.3452 45.0792 39.9944 41.571C39.6436 38.0628 39.819 37.7121 38.0649 37.1859Z" fill="#E09868"/>
<path d="M8.43588 21.7519C6.89228 22.7342 4.68507 22.9761 2.98945 22.5668C-0.518731 22.1331 -0.227712 23.7886 0.356984 25.1972C1.46791 27.1267 1.77978 28.1886 2.6373 29.5824C3.71648 31.3365 5.33017 29.918 7.72515 26.6005C9.9866 23.4679 15.4821 23.9083 16.9958 24.0296L17.0309 24.0324C21.2306 24.671 22.0008 26.722 21.5915 28.0668C20.3286 31.2944 15.8031 35.7264 13.6981 37.5389C11.9441 39.1176 8.99719 43.6782 11.2424 49.2913C13.4877 54.9044 20.8314 59.465 24.2227 61.0437C28.374 63.2655 37.5537 69.0688 37.5537 74.7256C37.5537 79.8125 36.5013 81.2157 32.8177 82.619C29.1341 84.0223 25.2035 83.075 24.2227 78.2338C23.5119 74.7256 27.0201 72.9084 28.4234 73.9609C29.3004 74.6187 29.8267 75.1887 30.87 77.406C31.7885 79.3579 32.8086 73.9609 28.9496 71.6806C26.7278 70.5112 22.9156 70.3755 20.53 74.7256C18.1444 79.0757 19.8868 82.439 20.8808 83.7838C23.7797 87.7058 28.4234 89.2215 35.098 87.7058C41.0754 86.3486 42.5146 81.6789 42.9823 79.7494C43.3916 76.592 43.8334 69.2178 38.7816 64.7273C32.4669 59.1142 30.8421 52.562 32.8177 41.2225C34.3873 32.2136 37.5219 29.2513 38.4217 28.7054C39.4742 28.0668 42.6315 26.2497 43.684 27.3021L44.561 28.7054C46.1397 30.2841 47.5197 29.3858 47.8938 29.0562C48.7617 28.2915 50.1741 25.4357 47.2012 24.0324C44.4706 22.7435 44.5519 25.485 43.684 25.3726L42.9823 25.1972C42.1053 25.0218 38.4217 20.6366 38.4217 19.7595C38.4217 17.094 40.6653 12.3964 41.5791 12.9186C42.8069 13.6202 43.9874 13.5644 44.3856 13.3325C45.0963 12.9186 46.4996 11.7538 45.0963 9.82431C43.9737 8.28071 42.5237 8.71338 41.939 9.12267C39.825 10.4629 41.5791 11.6907 40.5266 12.0415L39.4742 12.3924C33.6857 14.3219 31.602 10.3513 31.2299 9.235C30.7037 7.65632 31.4053 5.02571 32.2824 5.02571C32.984 5.02571 33.8611 5.37653 34.7472 4.91267C36.9352 3.76735 36.0348 1.34213 34.9135 0.640925C33.5103 -0.236626 32.0987 -0.315835 31.239 1.05391C30.1775 2.74522 31.7562 3.62192 31.239 4.14867L30.1866 4.91267C29.4758 5.37673 24.7489 6.66676 23.6964 4.91267C22.8545 3.5094 21.7085 3.74328 21.2407 4.03563C19.8284 4.6751 19.8375 7.7543 17.0309 12.8061C13.5227 19.1208 10.3654 20.5241 8.43588 21.7519Z" fill="#F3C551"/>
<path d="M18.7714 50.5183C15.964 41.2216 20.1162 37.0703 22.8058 33.5036C23.8584 32.4512 23.5074 32.4512 24.209 32.4512C24.7703 32.4512 24.5599 33.7375 24.3844 34.3807C19.6484 43.8527 21.2263 52.7986 21.9279 54.2019C22.4892 55.3245 21.4601 55.1374 21.0509 54.9035C20.3492 53.9212 19.5315 51.9216 18.7714 50.5183Z" fill="#F5D687"/>
<path d="M31.0248 37.4962C28.5669 35.7437 26.4641 36.6199 24.8844 37.4962C23.3057 38.7239 24.8101 38.581 26.1112 38.0232C27.337 37.4977 28.5677 37.4962 30.6728 38.374C31.2575 38.7248 32.488 38.5395 31.0248 37.4962Z" fill="#F5D687"/>
<path d="M29.9086 42.0848C27.7264 40.2871 25.8594 41.1859 24.4568 42.0848C23.0552 43.3442 24.3909 43.1977 25.5461 42.6255C26.6344 42.0863 27.7271 42.0848 29.5962 42.9853C30.1153 43.3452 31.2078 43.155 29.9086 42.0848Z" fill="#F5D687"/>
<path d="M29.8291 45.883C26.9383 44.5949 24.8617 45.8352 23.338 46.9819C21.8741 48.4749 23.4405 48.0648 24.7228 47.282C25.931 46.5444 27.2317 46.3227 29.6035 46.8115C30.2802 47.0528 31.55 46.6498 29.8291 45.883Z" fill="#F5D687"/>
<path d="M30.2912 50.8543C28.2238 49.0566 26.4551 49.9555 25.1264 50.8543C23.7985 52.1138 25.0639 51.9672 26.1583 51.395C27.1894 50.8559 28.2245 50.8543 29.9952 51.7549C30.487 52.1147 31.522 51.9246 30.2912 50.8543Z" fill="#F5D687"/>
<path d="M23.2867 15.0692C22.2404 14.8519 21.2242 15.9388 21.4943 16.6633C21.9263 17.8246 23.792 17.0384 24.0285 16.4662C24.1795 16.1009 24.4314 15.3071 23.2867 15.0692Z" fill="#91705B"/>
</svg>
