<svg width="1920" height="635" viewBox="0 0 1920 635" fill="none" xmlns="http://www.w3.org/2000/svg">
<path d="M591.598 633.346L570.498 634.146C574.998 634.546 582.398 634.246 591.598 633.346Z" fill="#1F1D39"/>
<path d="M1333.6 320.743C1339.9 352.543 1367.5 351.043 1367.5 351.043C1410.2 345.343 1443.8 315.043 1443.8 315.043C1472.8 274.843 1486.8 231.743 1486.8 231.743C1503.5 197.043 1521.9 178.443 1534.9 168.743C1514.2 170.143 1505.1 176.643 1505.1 176.643C1461.9 196.843 1369.8 254.143 1369.8 254.143C1364.4 259.043 1353.3 263.543 1340.8 266.843C1331.8 293.443 1333.6 320.743 1333.6 320.743Z" fill="#2E2D4B"/>
<path d="M1948 30.3431C1875.9 18.0431 1799.2 63.7431 1799.2 63.7431C1733.9 94.9431 1693.2 113.143 1674.3 121.343L1674.2 130.743C1640.3 238.643 1507.2 459.243 1507.2 459.243L1161.5 475.743L1193.7 346.043C1209.2 332.043 1235.5 306.5 1235.5 306.5C1240.8 299.4 1220 306 1220 306C1210 305.6 1234 287 1234 287C1241.8 277.6 1232.5 278.5 1232.5 278.5C1222.4 280.6 1215 281 1215 281C1210.4 278.5 1220.6 262 1222 260C1221.3 259.8 1220.7 259.743 1220.7 259.743C1203 263.943 1147 326.143 1147 326.143C1129.4 327.943 1104.6 324.643 1104.6 324.643C1059.7 320.643 1006.4 342.843 1006.4 342.843C948.199 362.543 902.599 377.843 902.599 377.843C841.899 396.243 832.099 391.043 832.099 391.043C807.599 378.043 782.899 369.843 782.899 369.843C763.099 363.043 716.499 339.543 716.499 339.543C687.299 316.643 661.199 314.543 661.199 314.543C608.899 301.543 550.599 280.143 541.399 276.743C538.999 274.543 536.599 272.043 533.999 269.343C518.299 251.043 485.399 209.443 475.799 197.243L479.399 226.743C483.799 243.843 507.699 273.843 507.699 273.843C514.699 286.243 516.699 300.843 516.699 300.843L530.699 295.343C542.699 307.943 574.599 326.043 574.599 326.043C613.699 351.743 645.099 381.943 645.099 381.943C678.699 419.543 703.699 470.343 703.699 470.343C703.699 470.343 710.399 534.043 717.399 540.343L1918.3 611.943L1948 30.3431Z" fill="#2E2D4B"/>
<path d="M474.797 196.044C473.597 194.544 472.997 193.744 472.997 193.744L472.697 193.944C473.597 194.744 474.297 195.444 474.797 196.044Z" fill="#2E2D4B"/>
<path d="M407.7 373.143C358.6 349.543 315.1 306.743 315.1 306.743C303.2 289.343 284.5 254.743 284.5 254.743C282.4 242.543 258.4 217.443 258.4 217.443L259.7 216.243C272.8 211.443 282.3 210.243 293.9 206.443C280.8 196.943 278.1 192.343 270.8 187.643C259.6 178.743 251.7 172.943 251.7 172.943C223 137.943 199.9 120.043 199.9 120.043C88.7001 82.0426 -42.3 25.1426 -42.3 25.1426L-58 456.843L174.1 526.443L555.6 483.943C553.3 483.643 551.8 483.243 551.2 482.643C544 475.143 407.7 373.143 407.7 373.143Z" fill="#2E2D4B"/>
<path d="M1213 282.5C1213 282.5 1213 284.5 1225 282.5C1225 282.5 1240.3 275.1 1232.4 284.5C1232.4 284.5 1207.4 309.5 1217.61 310.544C1217.61 310.544 1240.9 298.5 1230.9 308.5C1230.9 308.5 1209.31 332.144 1193.81 346.044L1143.11 526.444L1509.41 526.844C1509.41 526.844 1640.31 238.544 1674.31 130.644L1674.41 121.244C1666.11 124.844 1662.01 126.544 1662.01 126.544C1619.51 141.544 1589.11 153.444 1589.11 153.444C1581.71 159.044 1574.31 161.944 1574.31 161.944C1566.51 168.944 1547.91 168.544 1547.91 168.544C1543.11 168.344 1538.81 168.444 1534.91 168.744C1521.91 178.444 1503.51 197.144 1486.81 231.744C1486.81 231.744 1472.71 274.844 1443.81 315.044C1443.81 315.044 1410.21 345.344 1367.51 351.044C1367.51 351.044 1339.91 352.444 1333.61 320.744C1333.61 320.744 1331.81 293.444 1340.81 266.844C1320.71 272.144 1314.21 276.544 1290.91 262.744C1277.31 254.644 1253.91 276.644 1253.91 276.644C1249.91 282.544 1243.81 278.744 1243.81 278.744C1232.01 264.544 1224.81 260.944 1222.11 260.044C1222 261 1222.51 261.344 1222.51 261.444C1222.51 261.444 1222.41 261.044 1222.11 260.044C1222.05 260.026 1222.11 260.044 1222 260C1220.6 262 1211.5 276.5 1213 282.5Z" fill="#1F1D39"/>
<path d="M475.699 197.144C475.699 197.144 475.399 196.744 474.799 196.044C475.099 196.344 475.399 196.744 475.699 197.144Z" fill="#1F1D39"/>
<path d="M644.903 381.742C643.603 380.442 612.703 351.042 574.503 325.942C574.503 325.942 574.503 325.942 574.403 325.942C573.203 325.242 543.603 308.342 531.303 296.042C530.703 296.242 530.003 296.142 529.503 295.642L518.503 300.042C518.303 299.042 517.203 298.442 516.303 298.842C515.503 294.442 513.102 283.542 507.702 273.942C507.702 273.842 507.603 273.842 507.603 273.742C506.103 271.842 483.702 243.442 479.402 226.842C479.402 226.742 479.402 226.642 479.402 226.642L475.902 197.642C475.702 197.442 475.602 197.142 475.602 196.842C475.402 196.542 475.202 196.342 475.002 196.142C475.002 196.142 475.002 196.142 474.902 196.042C474.502 195.542 473.902 195.042 473.202 194.342C472.902 194.542 472.502 194.542 472.202 194.242L472.002 194.342C471.802 194.042 471.302 193.942 470.902 194.142C470.702 194.242 470.402 194.242 470.202 194.142C469.902 194.042 469.702 194.042 469.402 194.142C444.402 207.342 408.302 222.142 406.902 222.742H406.802C385.302 233.642 363.702 235.342 347.302 239.342C347.302 239.342 342.502 237.042 342.202 237.142C318.102 219.242 315.102 215.142 306.102 207.842C305.802 206.742 299.202 202.542 299.102 202.542C298.102 201.542 297.102 201.442 297.102 201.442C296.102 201.442 285.702 203.042 283.602 203.942C272.202 207.642 272.602 211.242 259.802 216.042C259.702 216.142 259.602 216.142 259.502 216.242C260.102 216.842 260.002 217.842 259.402 218.442C264.102 223.442 282.402 243.642 284.402 254.442C284.502 254.542 284.502 254.742 284.502 254.842C286.002 257.642 303.602 289.842 314.902 306.542C315.002 306.642 315.002 306.742 315.102 306.742C317.502 309.142 359.802 350.042 407.502 372.942C407.602 373.042 407.702 373.042 407.702 373.142C412.102 376.442 544.003 475.142 551.103 482.542C551.703 483.142 553.203 483.542 555.403 483.842C555.503 483.842 555.703 493.142 555.803 493.142L576.403 494.942C576.403 494.942 592.303 541.542 592.003 536.442C631.503 534.342 716.603 529.242 730.003 527.442C729.503 526.442 701.403 468.342 702.503 468.242C697.603 458.642 674.603 415.142 644.903 381.742C644.903 381.842 644.903 381.742 644.903 381.742Z" fill="#1F1D39"/>
<path d="M68.9966 128.243C68.9966 128.243 129.697 178.843 167.497 240.843C152.497 249.643 356.097 532.543 382.097 525.443C432.097 511.743 -56.6035 518.499 -56.6035 518.499L-45.1035 102.243L68.9966 128.243Z" fill="#1F1D39"/>
<path d="M276.199 214.845C281.699 216.745 284.299 224.145 286.499 229.045C290.499 238.045 294.499 246.945 298.399 255.945C305.899 272.745 312.399 290.745 323.399 305.745C333.499 319.645 346.399 330.845 358.899 342.545C371.599 354.445 382.799 367.246 391.999 381.946C395.399 377.546 398.799 373.146 402.199 368.746C382.799 362.046 364.799 352.246 348.599 339.946C346.299 345.446 343.999 350.946 341.699 356.446C345.099 357.246 348.399 358.046 351.799 358.846C355.799 359.846 359.799 358.146 361.999 354.745C367.699 345.546 361.099 336.946 354.899 330.146C349.199 323.846 342.999 318.045 337.099 312.045C325.499 300.345 316.499 287.945 310.699 272.545C304.899 257.345 300.799 241.345 292.999 226.945C284.799 211.745 269.799 195.145 250.999 204.545C246.099 207.045 244.899 215.045 249.199 218.645C263.899 231.145 269.599 249.645 274.899 267.445C278.299 278.745 294.099 273.845 292.299 262.645C290.199 250.045 285.299 238.045 278.199 227.545C271.699 218.045 256.399 226.745 262.699 236.645C269.299 247.145 276.199 257.445 283.599 267.345C290.399 276.445 297.299 289.345 309.699 290.345C315.499 290.845 319.999 284.245 318.399 278.945C315.899 270.845 313.299 262.745 310.799 254.545C305.299 256.845 299.799 259.145 294.299 261.445C307.499 279.945 321.399 297.945 336.299 315.146C343.599 323.546 350.999 331.846 358.699 339.846C365.199 346.746 372.099 353.746 374.299 363.346C376.899 374.646 394.299 369.846 391.699 358.545C389.299 348.145 382.999 339.646 375.999 331.945C368.299 323.445 360.399 315.245 352.799 306.646C337.599 289.345 323.299 271.145 309.999 252.445C304.399 244.645 290.299 248.945 293.499 259.345C295.999 267.445 298.599 275.545 301.099 283.745C303.999 279.945 306.899 276.145 309.799 272.345C311.099 272.445 308.499 270.245 308.099 269.745C306.499 267.845 304.999 265.845 303.499 263.945C300.599 260.145 297.699 256.245 294.899 252.345C289.099 244.345 283.599 236.045 278.399 227.645C273.199 230.645 267.999 233.745 262.899 236.745C269.299 246.145 273.399 256.345 275.199 267.545C280.999 265.945 286.799 264.345 292.599 262.745C286.499 242.045 279.299 220.345 262.299 205.945C261.699 210.645 261.099 215.345 260.499 220.045C265.299 217.645 270.499 224.545 272.799 227.745C276.599 233.045 279.599 238.945 282.199 244.945C287.499 257.445 290.899 270.645 296.199 283.145C301.699 296.445 309.199 307.945 318.999 318.545C323.999 323.945 329.299 329.045 334.499 334.245C336.899 336.645 339.299 339.045 341.599 341.545C342.699 342.745 343.899 344.046 344.999 345.346C345.599 345.846 345.999 346.446 346.399 347.146C346.999 348.146 347.199 347.645 346.999 345.545C350.399 344.145 353.799 342.745 357.199 341.446C353.799 340.646 350.499 339.845 347.099 339.045C336.599 336.545 332.299 349.545 340.199 355.545C357.699 368.846 377.299 379.046 398.099 386.246C405.499 388.846 412.299 379.446 408.299 373.046C398.299 357.045 386.199 342.846 372.399 329.945C359.899 318.245 346.199 307.045 336.699 292.445C326.199 276.245 319.299 257.345 311.499 239.745C304.699 224.345 299.299 203.645 281.699 197.545C269.999 193.645 265.299 211.045 276.199 214.845Z" fill="#2E2D4B"/>
<path d="M1945.6 4.44391C1955.3 0.743907 1962 -0.956088 1963.7 0.543913L1992.6 525.244L1646.2 513.744C1646.2 513.744 1732 384.844 1748.6 346.644C1748.6 346.644 1771.6 313.544 1769.5 250.444C1769.5 250.444 1789.8 110.544 1826.4 63.4439C1863 16.3439 1826.4 63.4439 1826.4 63.4439C1826.4 63.4439 1908 18.8439 1945.6 4.44391Z" fill="#1F1D39"/>
<path d="M288.398 508.115C288.398 508.115 327.502 452.417 364.506 429.771C364.506 429.771 407.81 394.394 506.82 441.4C506.82 441.4 622.831 516.072 628.331 524.274C633.932 532.598 288.398 508.115 288.398 508.115Z" fill="#1F1D39"/>
</svg>
