<svg width="82" height="66" viewBox="0 0 82 66" fill="none" xmlns="http://www.w3.org/2000/svg">
<path d="M10.1137 47.4048C10.8615 43.0187 15.0495 36.8469 15.5557 35.9966C16.104 35.0756 16.5604 34.2822 18.3116 32.1765C18.9984 31.3507 19.1472 31.5016 18.9518 31.1283C17.6906 29.173 17.9667 27.1261 18.2958 26.2406C19.5674 23.6731 21.4012 22.6338 22.7403 22.0121C25.9922 20.5024 28.5524 20.3967 31.0224 21.4816C33.4924 22.5665 32.8462 23.0347 34.9767 21.3138C36.6478 19.964 41.7411 15.1578 45.8734 14.4215C50.0058 13.6853 53.5118 16.3752 55.0872 18.3966C56.535 20.2543 56.4432 20.3816 56.7217 20.1566C59.6103 18.4069 61.0057 17.4388 62.0819 14.4978C62.9428 12.145 64.728 11.5277 65.5129 11.5131C67.4294 11.5404 71.7542 12.7165 73.722 17.2029C76.1817 22.8109 76.1102 24.0372 75.3097 26.5962C74.6692 28.6433 73.2829 29.084 71.4966 29.3052C66.1206 29.0284 65.7729 29.2345 65.0897 29.3302C61.9883 29.7646 61.8017 29.8623 62.29 30.7952C62.5849 31.3586 63.5369 32.9958 64.2613 35.47C64.9856 37.9442 63.8631 39.4035 63.2113 39.8239C60.1448 42.1423 56.3427 43.6213 52.7244 43.4106C50.2718 43.2678 50.7428 43.2592 49.8096 43.7475C48.3165 44.529 42.6283 47.7439 41.5974 48.0457C40.5665 48.3475 41.7125 49.1743 42.3964 50.4808C43.0802 51.7873 42.4639 52.427 42.1557 52.7469C41.6935 53.2266 39.9979 54.5298 36.6192 53.9803C34.5399 53.6421 33.8312 53.3554 33.5003 53.4726C29.2878 54.9645 27.2174 55.0975 23.0762 55.3624C17.3245 55.7304 14.1072 54.4293 12.7774 53.8572C11.0627 52.8525 9.36586 51.7908 10.1137 47.4048Z" fill="white"/>
<path d="M71.4959 29.306C66.1199 29.0292 65.7722 29.2353 65.089 29.331C65.6646 27.6758 66.6977 25.4259 65.4829 22.4476C64.268 19.4693 61.9835 16.6705 61.1305 16.4036C61.6817 15.6396 62.0159 14.6676 62.0812 14.4986C62.9421 12.1458 64.7273 11.5284 65.5122 11.5139C67.4287 11.5411 71.7535 12.7173 73.7213 17.2037C76.181 22.8117 76.1095 24.038 75.309 26.5969C74.6685 28.6441 73.2822 29.0848 71.4959 29.306Z" fill="#E59E75"/>
<path d="M52.7241 43.4115C50.2715 43.2687 50.7425 43.2601 49.8093 43.7484C50.1218 42.6153 49.7972 39.0601 49.7414 37.3456C49.7779 34.2354 48.3579 28.7966 42.5211 24.0051C39.102 21.1982 36.8409 20.8753 35.7687 20.6439C37.4398 19.2941 41.7408 15.1586 45.8731 14.4224C50.0054 13.6862 53.5114 16.3761 55.0868 18.3975C56.5347 20.2552 55.6208 19.0503 57.0687 20.908C57.7268 21.7524 61.8014 29.8632 62.2896 30.7961C62.5845 31.3594 63.5366 32.9967 64.2609 35.4709C64.9852 37.945 63.8628 39.4044 63.211 39.8248C60.1445 42.1431 56.3423 43.6222 52.7241 43.4115Z" fill="#E59E75"/>
<path d="M36.6192 53.9808C34.54 53.6426 33.8313 53.3559 33.5003 53.4731C31.5586 54.1243 29.9132 54.5517 29.3332 54.684C28.8447 53.7508 28.7121 51.6803 28.9615 49.8854C30.0217 41.0083 28.764 39.1231 27.508 37.5686C26.1579 35.8975 24.3957 34.6799 23.5814 34.155C21.2003 32.7858 19.1088 32.3081 18.3117 32.177C18.9985 31.3512 19.1472 31.5021 18.9519 31.1288C17.6906 29.1735 17.9668 27.1266 18.2959 26.2411C19.5674 23.6736 21.4013 22.6343 22.7403 22.0126C25.9922 20.5029 28.5524 20.3972 31.0225 21.4821C33.4925 22.567 33.0156 22.6795 34.0977 21.9931C36.2397 20.6342 45.3564 39.2333 43.282 47.2631C42.6382 47.6186 42.0501 47.9137 41.5974 48.0462C40.5665 48.348 41.7126 49.1748 42.3964 50.4813C43.0802 51.7878 42.4639 52.4275 42.1558 52.7473C41.6935 53.2271 39.9979 54.5303 36.6192 53.9808Z" fill="#E69E75"/>
<path d="M10.1142 47.4052C10.862 43.0191 15.05 36.8473 15.5562 35.997C19.2033 35.9901 21.8122 37.268 22.5588 38.0192C25.9786 41.4599 25.2304 46.8447 24.6077 48.835C23.1986 53.3391 22.8376 54.207 23.0767 55.3628C17.325 55.7308 14.1077 54.4297 12.7779 53.8576C11.0632 52.8529 9.36634 51.7912 10.1142 47.4052Z" fill="#E59E75"/>
<path d="M16.2625 45.1961C16.272 45.8953 15.9582 47.2615 14.6272 47.133C12.9634 46.9724 13.5479 44.1482 16.2625 45.1961Z" fill="#8D583A"/>
<path d="M23.0326 55.3643L22.9262 54.7067C22.722 53.8624 24.5273 49.5887 24.9546 47.2251C25.3819 44.8615 25.4184 41.7513 23.1001 38.6848C21.2454 36.2316 18.7287 36.6929 15.9831 35.99L15.601 35.7144" stroke="#B87B58" stroke-width="0.625239"/>
<path d="M29.3321 54.6831C29.2344 54.4964 28.9064 52.0526 29.3337 49.689C29.7609 47.3254 29.5934 43.371 28.7769 39.9939C27.9604 36.6169 25.5794 35.2477 24.2467 34.5186C22.7905 33.7219 20.2869 32.7075 18.8356 32.3575L18.4536 32.0819" stroke="#B87B58" stroke-width="0.625239"/>
<path d="M34.2842 21.894C34.8616 22.5428 37.145 23.7254 41.1146 33.5364C44.3633 41.5659 42.7364 45.7651 43.5179 47.2582" stroke="#B87B58" stroke-width="0.625239"/>
<path d="M56.4922 20.2578C57.3539 20.9956 59.3879 23.9732 62.1407 30.1411" stroke="#B87B58" stroke-width="0.625239"/>
<path d="M35.7676 20.6426C36.2473 21.1048 38.8695 21.7402 40.3256 22.5368C40.992 22.9013 43.373 24.2706 46.7485 28.4482C49.4488 31.7903 49.8799 36.3994 49.7578 38.2862L49.8539 43.4669L49.9516 43.6536" stroke="#B87B58" stroke-width="0.625239"/>
<path d="M61.1312 16.402C61.5132 16.6776 62.3799 17.2992 63.6274 18.8998C65.0753 20.7575 65.9458 21.9663 66.0959 24.9788C66.2272 27.6151 65.2151 28.2931 65.3302 29.4217" stroke="#B87B58" stroke-width="0.625239"/>
</svg>
