<svg width="300" height="278" viewBox="0 0 300 278" fill="none" xmlns="http://www.w3.org/2000/svg">
<path d="M52.8646 212.533L45.701 205.37L55.9986 189.252L116.889 146.27L191.659 148.061L196.584 140.897L177.332 125.227L154.05 114.482L120.471 111.348L102.562 116.273L85.5484 114.482L70.7735 122.093L49.7305 125.227L37.642 135.525L21.9717 140.897L11.2263 154.777L7.64453 176.715L23.3148 189.252L29.1352 212.533L49.7305 217.906L52.8646 212.533Z" fill="#FFEFE0"/>
<path d="M191.659 141.345C187.032 135.973 174.018 125.675 158.975 127.466M154.465 123.228C156.405 124.422 162.019 130.6 163.452 141.345M105.215 119.199C106.11 124.72 110.084 137.316 116.889 137.316M70.7735 127.466C72.8629 133.734 79.1575 148.211 85.9629 151.435M42.086 136.212C45.5185 142.032 57.8458 157.345 67.1585 161.285M20.5953 158.598C23.7293 162.329 33.6125 171.522 42.5669 174.029C51.5214 176.536 58.2373 176.864 60.4759 176.715M28.2066 189.043C31.1914 190.984 40.3283 197.49 45.701 205.37M45.701 205.37L52.8646 212.533L49.7305 217.906L29.1352 212.533L23.3148 189.251L7.64453 176.715L11.2263 154.777L21.9717 140.897L37.642 135.525L49.7305 125.227L70.7735 122.093L85.5484 114.482L102.562 116.273L120.471 111.348L154.05 114.482L177.332 125.227L196.584 140.897L191.659 148.061L116.889 146.27L55.9986 189.251L45.701 205.37Z" stroke="#FFD6B0" stroke-opacity="0.53" stroke-width="1.68472"/>
<path d="M81.0703 44.6378L86.8907 69.7103L98.9792 76.8739L119.127 82.6943L127.634 100.603L137.036 105.528L159.422 128.065C162.645 127.349 165.242 127.467 167.929 128.065C170.521 128.929 172.897 129.844 175.059 130.774C177.211 131.701 179.151 132.643 180.879 133.567C186.051 136.332 189.333 138.931 190.762 140.451L247.176 203.132L256.578 198.655L266.875 170.448L244.042 153.435L235.535 122.989C224.342 121.348 201.687 117.885 200.612 117.169C199.538 116.453 192.404 99.857 188.972 91.6488L161.213 86.2761L141.065 61.6513L115.545 59.4127L106.143 39.7129L81.0703 44.6378Z" fill="#FFE5CD"/>
<path d="M172.373 113.827C175.208 116.988 180.879 125.361 180.879 133.567M180.879 133.567C186.051 136.332 189.333 138.931 190.762 140.451L247.176 203.132L256.578 198.655L266.875 170.448L244.042 153.435L235.535 122.989C224.342 121.348 201.687 117.885 200.612 117.169C199.538 116.453 192.404 99.857 188.972 91.6488L161.213 86.2761L141.065 61.6513L115.545 59.4127L106.143 39.7129L81.0703 44.6378L86.8907 69.7103L98.9792 76.8739L119.127 82.6943L127.634 100.603L137.036 105.528L159.422 128.065C162.645 127.349 165.242 127.467 167.929 128.065C170.521 128.929 172.897 129.844 175.059 130.774M180.879 133.567C179.151 132.643 177.211 131.701 175.059 130.774M192.52 132.631C194.46 135.019 198.43 140.959 198.788 145.615M197.893 129.497C199.374 132.93 202.164 141.317 201.475 147.406M149.539 105.528C156.105 107.057 170.403 114.245 175.059 130.774M122.675 82.6943C128.335 79.7095 141.632 75.5307 149.539 82.6943M124.466 86.2761C127.025 85.3113 133.122 83.6503 137.036 84.7248M215.354 133.567C216.846 137.871 219.115 149.005 219.831 154.57" stroke="#FFCB9A" stroke-opacity="0.5" stroke-width="1.68472"/>
<path d="M93.6083 50.9051C89.6684 50.547 87.4895 52.8453 86.8925 54.0392H84.6539L78.3858 49.5612L60.0291 48.6658L46.1497 42.3977L43.0156 31.6523L50.6269 24.041L62.2677 30.3091L96.2947 31.6523C100.921 38.0699 109.637 50.9051 107.488 50.9051C104.801 50.9051 98.5333 51.3529 93.6083 50.9051Z" fill="#ADD3EA"/>
<path d="M74.323 47.3226C77.3078 46.5764 87.5193 44.6363 93.6083 46.4272C99.6974 48.2181 102.115 47.7703 102.563 47.3226M86.8925 54.0392C87.4895 52.8453 89.6684 50.547 93.6083 50.9051C98.5333 51.3529 104.801 50.9051 107.488 50.9051C109.637 50.9051 100.921 38.0699 96.2947 31.6523L62.2677 30.3091L50.6269 24.041L43.0156 31.6523L46.1497 42.3977L60.0291 48.6658L78.3858 49.5612L84.6539 54.0392H86.8925Z" stroke="#FCFCFC" stroke-width="0.842358"/>
<path d="M285.684 192.386C277.445 203.848 265.536 208.803 260.611 209.847L255.685 210.743V196.415L264.64 178.059L262.85 162.836L242.254 155.225L236.881 133.286L231.509 123.885L200.615 117.616L190.766 89.8573L159.425 86.7233L144.65 63.4416L111.966 58.069L104.355 37.4737L94.0573 28.5192L69.4325 33.8919L60.9265 27.6238C54.6584 22.4004 42.4803 11.7744 43.913 11.058C45.7039 10.1626 53.3152 10.1626 66.2992 11.058C79.2831 11.9535 92.2671 7.92406 97.6398 5.68544C103.012 3.44683 130.324 -0.582683 146.889 1.65593C160.142 3.44683 167.335 8.06546 169.276 10.1509C169.591 10.1523 169.89 10.1563 170.171 10.1629C197.034 12.4015 198.378 16.8787 207.332 20.9082C214.496 24.1318 225.241 34.6627 229.718 39.5252C254.506 46.9029 251.94 51.4841 257.477 54.0396C263.297 56.7259 268.222 62.5463 267.775 66.5758C267.416 69.7994 269.508 73.2917 270.599 74.6348C275.685 79.2456 276.756 83.4376 276.48 85.3807C280.308 88.6663 282.652 92.0366 284.788 94.783C287.295 98.0066 286.728 105.866 286.131 109.392C287.811 110.76 289.461 112.301 291.056 114.035C299.294 122.989 298.264 135.973 296.719 141.346C297.218 142.997 297.579 144.784 297.772 146.718C300.011 169.104 295.981 178.059 285.684 192.386Z" fill="#B4DAF1"/>
<path d="M253 123.885C258.731 122.81 265.238 122.243 267.775 122.093C270.638 121.684 291.439 123.891 296.719 141.346M296.719 141.346C297.218 142.997 297.579 144.784 297.772 146.718C300.011 169.104 295.981 178.059 285.684 192.386C277.445 203.848 265.536 208.803 260.611 209.847L255.685 210.743V196.415L264.64 178.059L262.85 162.836L242.254 155.225L236.881 133.286L231.509 123.885L200.615 117.616L190.766 89.8573L159.425 86.7233L144.65 63.4416L111.966 58.069L104.355 37.4737L94.0573 28.5192L69.4325 33.8919L60.9265 27.6238C54.6584 22.4004 42.4803 11.7744 43.913 11.058C45.7039 10.1626 53.3152 10.1626 66.2992 11.058C79.2831 11.9535 92.2671 7.92406 97.6398 5.68544C103.012 3.44683 130.324 -0.582683 146.889 1.65593C160.142 3.44683 167.335 8.06546 169.276 10.1509M296.719 141.346C298.264 135.973 299.294 122.989 291.056 114.035C289.461 112.301 287.811 110.76 286.131 109.392M231.509 103.737C237.777 100.603 251.209 98.8124 259.716 99.2601C266.904 99.6384 276.97 101.935 286.131 109.392M286.131 109.392C286.728 105.866 287.295 98.0066 284.788 94.783C282.652 92.0366 280.308 88.6663 276.48 85.3807M251.657 77.3218C255.089 77.0233 263.566 77.3218 270.013 80.9036C272.579 82.3293 274.692 83.8457 276.48 85.3807M276.48 85.3807C276.756 83.4376 275.685 79.2456 270.599 74.6348M199.273 65.2332C206.735 63.5915 223.987 60.5769 233.3 61.6514C244.941 62.9946 248.075 61.2037 262.85 69.2627C266.12 71.0464 268.653 72.8713 270.599 74.6348M270.599 74.6348C269.508 73.2917 267.416 69.7994 267.775 66.5758C268.222 62.5463 263.297 56.7259 257.477 54.0396C251.94 51.4841 254.506 46.9029 229.718 39.5252M114.172 53.8313C120.261 52.7568 130.324 50.4579 133.458 49.5625C145.636 47.0553 155.843 43.7418 158.529 38.3693C165.245 29.4147 196.587 30.3102 225.689 38.3693C227.107 38.762 228.448 39.1472 229.718 39.5252M229.718 39.5252C225.241 34.6627 214.496 24.1318 207.332 20.9082C198.378 16.8787 197.034 12.4015 170.171 10.1629C169.89 10.1563 169.591 10.1523 169.276 10.1509M70.7425 25.6248C72.9811 23.3862 75.2536 21.3558 81.074 19.1171C86.8944 16.8785 105.699 18.6694 117.787 19.1171C127.458 19.4753 133.756 17.7741 135.696 16.8787C147.342 11.3986 162.371 10.1217 169.276 10.1509" stroke="#88BCD8" stroke-width="1.26354" stroke-linecap="round" stroke-linejoin="round"/>
<path d="M47.0423 11.506C42.7442 10.7896 39.8788 13.8938 38.9833 15.5355C32.2675 25.386 35.8493 37.4733 42.5651 44.1891C49.2809 50.905 54.6536 52.2481 64.0558 52.2481C71.5776 52.2481 76.1443 54.039 77.4875 54.9345C86.442 61.2026 77.9352 77.3206 91.3669 81.3501C104.799 85.3797 106.142 80.4547 112.41 83.141C118.678 85.8274 123.155 91.6478 123.155 98.8113C123.155 104.542 126.737 107.766 128.528 108.661C141.422 113.676 145.956 118.303 148.675 120.75C155.123 125.764 156.138 124.929 155.839 123.884C154.794 122.69 152.615 119.317 152.257 115.377C151.81 110.452 151.81 106.87 147.78 102.841C143.751 98.8113 137.035 100.602 134.348 100.155C131.662 99.7068 126.737 96.125 126.289 90.7523C125.842 85.3797 126.289 85.8274 123.155 80.4547C120.021 75.082 110.619 73.7389 101.665 74.6343C92.7101 75.5297 91.3669 70.1571 90.0238 67.4707C88.6806 64.7844 90.0238 47.3232 79.2784 46.8755C70.6821 46.5173 64.9513 45.8308 63.1604 45.5323C53.2772 44.1891 41.2219 35.2347 48.3855 29.4143C54.1164 24.7579 58.6499 36.1301 64.0558 38.8164C70.7717 42.3982 73.9057 40.6073 79.2784 37.4733C83.5765 34.966 89.7253 35.5331 92.2624 36.1301C104.351 40.6073 102.56 53.5913 107.485 61.6503C112.41 69.7093 122.708 68.8139 129.871 67.4707C135.602 66.3962 138.826 68.2169 139.721 69.2616C148.675 88.066 151.362 91.2001 155.391 93.8864C159.421 96.5727 167.032 97.0205 173.3 95.2296C178.315 93.7969 181.658 94.6326 182.702 95.2296C187.717 95.9459 188.971 104.483 188.971 108.661C191.657 122.541 198.373 126.122 203.298 129.257C208.223 132.391 214.491 129.257 218.073 127.913C221.654 126.57 233.295 128.361 232.4 136.868C231.683 143.673 232.698 148.061 233.295 149.404C237.325 157.463 237.772 157.015 244.041 161.493C250.309 165.97 257.025 163.283 259.263 170.895C261.502 178.506 260.159 178.954 256.577 187.908C253.711 195.072 253.89 202.832 254.338 205.817C254.696 209.757 256.278 208.951 257.025 208.056C255.681 199.101 261.502 190.595 263.74 188.356C265.531 186.565 266.576 183.133 266.874 181.64C271.352 169.104 268.218 163.283 266.874 159.702C265.531 156.12 261.054 154.777 256.129 153.881C251.204 152.986 241.802 145.822 242.25 133.286C242.697 120.75 240.459 119.854 236.877 116.72C234.012 114.213 223.744 114.183 218.968 114.482C213.297 115.526 201.955 115.646 201.955 107.766C201.955 97.9159 201.955 95.2296 198.373 90.3046C194.791 85.3797 193.448 82.6933 181.359 81.7979C169.271 80.9024 172.405 82.2456 164.794 79.1115C157.182 75.9775 155.839 65.6798 155.391 65.2321C154.944 64.7844 154.944 56.2776 145.541 54.4868C138.02 53.054 126.886 54.4868 122.26 55.3822C119.573 55.8299 113.753 54.4868 111.962 45.5323C109.724 34.3392 109.724 35.2347 107.485 30.7574C105.246 26.2802 100.769 21.3552 90.0238 21.803C79.2784 22.2507 80.1738 24.0416 72.1148 24.937C65.6676 25.6534 61.784 19.3907 59.5786 17.7735C52.8627 12.8485 52.415 12.4014 47.0423 11.506Z" fill="#F8F8F8"/>
<path d="M233.296 158.805C219.417 152.09 216.283 153.432 204.642 152.537C200.164 146.268 202.852 148.956 197.031 143.584C191.211 138.211 171.511 140.449 166.138 140.449C160.766 140.449 142.409 133.733 126.291 135.076C110.173 136.419 108.83 137.762 102.114 140.449C96.7413 142.598 93.9057 147.685 93.1595 149.959C88.8778 150.006 84.9006 149.54 80.1755 151.194C71.221 154.328 66.7438 157.014 61.3711 163.283C57.073 168.297 57.7893 174.598 58.6848 177.122C53.4003 179.388 45.8647 185.578 44.3572 194.623C42.9245 203.22 47.6405 211.338 50.1776 214.323L63.1616 220.143L78.8319 238.5H105.695L129.872 254.618L154.945 247.455L185.39 251.036L200.165 238.5H230.162L255.235 211.189C254.936 208.055 254.16 200.891 253.444 197.31L253.425 197.215C252.475 192.462 247.081 165.476 233.296 158.805Z" fill="#FED1CE"/>
<path d="M78.3837 254.171C61.9074 255.246 41.6703 231.636 33.6113 219.697C36.8349 216.472 53.1619 217.16 60.9224 217.907L74.8019 235.367L106.59 238.502L132.558 256.858L154.497 247.008L185.837 250.143L204.194 241.188L232.4 235.367C240.758 225.517 257.473 207.519 257.473 214.324C257.473 221.129 256.577 228.8 256.13 231.785C249.414 253.724 242.698 257.753 241.355 259.096C240.012 260.44 231.953 265.812 222.551 264.021C221.404 263.803 220.207 263.373 218.99 262.784C218.799 264.201 216.868 266.765 210.014 268.946C200.164 272.08 189.867 271.185 179.569 269.842C178.482 269.7 177.403 269.416 176.343 269.02C165.205 277.893 158.5 276.558 149.124 276.558C146.678 276.558 143.566 275.548 140.275 274.02C137.376 275.195 129.045 276.619 115.992 273.871C106.201 271.81 94.5877 262.366 86.2847 254.171H78.3837Z" fill="#B4DAF1"/>
<path d="M86.8904 254.171H78.3837C61.9074 255.246 41.6703 231.636 33.6113 219.697C36.8349 216.472 53.1619 217.16 60.9224 217.907L74.8019 235.367L106.59 238.502L132.558 256.858L154.497 247.008L185.837 250.143L204.194 241.188L232.4 235.367C240.758 225.517 257.473 207.519 257.473 214.324C257.473 221.129 256.578 228.8 256.13 231.785C249.414 253.724 242.698 257.753 241.355 259.096C240.012 260.44 231.953 265.812 222.551 264.021C215.029 262.589 205.388 252.082 201.508 247.008M78.3837 245.665C85.2487 253.873 102.382 271.006 115.992 273.871C129.603 276.737 138.08 275.065 140.617 273.871M121.813 262.23C127.782 267.006 141.602 276.558 149.124 276.558C158.526 276.558 165.242 277.901 176.435 268.946M160.765 255.067C163.6 259.544 171.331 268.767 179.569 269.842C189.867 271.185 200.164 272.08 210.014 268.946C217.894 266.439 219.267 263.424 218.969 262.23" stroke="#8ABBDE" stroke-width="0.842358"/>
<path d="M132.526 110.245C137.541 110.961 142.707 114.852 144.647 116.494L145.543 117.837C139.454 114.613 126.59 115.001 120.919 115.598C110.621 115.598 110.173 119.628 105.248 120.523C101.308 121.24 94.9506 120.225 92.2642 119.628C81.9666 118.732 78.8325 122.762 74.803 125.896C70.7735 129.03 65.4008 126.344 57.7891 127.239C51.6997 127.956 45.9992 132.91 43.9101 135.298C42.7162 137.388 39.0747 141.387 34.0602 140.671C27.7921 139.775 21.0762 146.939 22.4194 153.207C23.4939 158.222 21.9717 160.072 21.0762 160.371C16.4199 162.878 14.6589 166.191 14.3604 167.534C10.7786 174.698 14.6589 178.877 17.0467 180.071C20.1808 184.1 29.1352 183.652 30.0307 190.816C30.9261 197.979 30.9261 203.352 37.1943 210.068C43.4624 216.784 53.3123 214.097 60.9236 213.65C67.0126 213.292 70.0273 216.187 70.7735 217.679C74.3553 226.186 74.3553 229.32 86.8915 230.216C99.4278 231.111 100.323 227.529 103.905 227.529C107.487 227.529 109.278 225.291 114.65 236.036C120.023 246.781 123.605 247.229 132.112 247.677C140.618 248.124 145.991 244.095 150.468 240.961C154.05 238.454 157.035 239.319 158.08 240.065C170.974 247.945 180.764 246.035 184.047 244.095C193.897 243.199 194.793 236.931 196.136 233.797C197.211 231.29 202.852 232.156 205.538 232.902C219.865 236.484 226.432 232.603 227.924 230.216C236.431 226.186 243.147 213.202 246.281 210.516C249.415 207.829 257.474 203.352 260.608 209.62C263.115 214.635 261.056 217.082 259.713 217.679C257.176 217.381 251.116 219.112 247.176 228.425C243.236 237.737 238.371 242.752 236.431 244.095C230.163 249.02 217.179 250.363 210.015 247.229C204.285 244.722 201.956 245.289 201.509 245.886C198.285 251.975 194.494 254.393 193.002 254.84C183.6 258.422 174.645 256.631 168.825 253.945C164.169 251.796 160.318 253.646 158.975 254.84C152.886 260.929 144.499 262.452 141.066 262.452C116.889 264.69 109.725 250.811 108.382 248.124C107.039 245.438 105.248 241.409 100.323 244.095C95.3983 246.781 68.0872 249.915 65.4008 234.693C63.2518 222.515 56.4464 220.664 53.3123 221.261C39.8806 222.156 38.9852 221.709 34.0602 221.261C29.1352 220.813 19.7331 215.441 21.0762 203.352C22.1508 193.681 17.9422 190.965 15.7035 190.816C12.4201 189.92 5.0474 186.249 1.82422 178.727C-2.20475 169.325 1.3765 163.505 3.61511 160.371C5.406 157.863 5.85337 155.744 5.85319 154.998C5.13683 149.267 7.04712 144.85 8.09181 143.357C14.3599 136.194 18.3894 136.194 25.553 134.403C32.7166 132.612 34.9552 128.582 39.4324 123.657C43.9097 118.732 53.3119 118.285 57.7891 119.628C61.3709 120.702 63.7587 120.076 64.5049 119.628C75.2503 105.748 95.3978 108.435 99.4273 109.778C102.651 110.852 106.143 110.226 107.486 109.778C117.157 106.554 124.948 107.539 127.634 108.435C128.64 108.77 131.183 110.096 132.526 110.245Z" fill="#F8F8F8"/>
<g filter="url(#filter0_f_115_2129)">
<circle cx="145.509" cy="170.687" r="35.3701" fill="#FFEAEA"/>
</g>
<g filter="url(#filter1_d_115_2129)">
<circle cx="145.51" cy="172.477" r="30.8929" fill="#FFF9F1"/>
</g>
<path d="M176.317 153.403C181.109 152.504 182.671 149.644 184.245 142.655C183.108 149.742 183.729 153.095 187.673 155.961C183.477 156.251 181.14 161.287 180.364 164.728C181.136 158.307 178.94 154.861 176.317 153.403Z" fill="white"/>
<path d="M182.051 167.536C184.562 167.066 185.381 165.567 186.206 161.904C185.61 165.618 185.935 167.375 188.002 168.877C185.803 169.029 184.578 171.669 184.172 173.472C184.576 170.107 183.426 168.301 182.051 167.536Z" fill="white"/>
<defs>
<filter id="filter0_f_115_2129" x="87.395" y="112.573" width="116.228" height="116.228" filterUnits="userSpaceOnUse" color-interpolation-filters="sRGB">
<feFlood flood-opacity="0" result="BackgroundImageFix"/>
<feBlend mode="normal" in="SourceGraphic" in2="BackgroundImageFix" result="shape"/>
<feGaussianBlur stdDeviation="11.3718" result="effect1_foregroundBlur_115_2129"/>
</filter>
<filter id="filter1_d_115_2129" x="110.405" y="139.057" width="75.2629" height="75.2629" filterUnits="userSpaceOnUse" color-interpolation-filters="sRGB">
<feFlood flood-opacity="0" result="BackgroundImageFix"/>
<feColorMatrix in="SourceAlpha" type="matrix" values="0 0 0 0 0 0 0 0 0 0 0 0 0 0 0 0 0 0 127 0" result="hardAlpha"/>
<feOffset dx="2.52707" dy="4.21179"/>
<feGaussianBlur stdDeviation="3.36943"/>
<feComposite in2="hardAlpha" operator="out"/>
<feColorMatrix type="matrix" values="0 0 0 0 0.575 0 0 0 0 0.215625 0 0 0 0 0.215625 0 0 0 0.25 0"/>
<feBlend mode="normal" in2="BackgroundImageFix" result="effect1_dropShadow_115_2129"/>
<feBlend mode="normal" in="SourceGraphic" in2="effect1_dropShadow_115_2129" result="shape"/>
</filter>
</defs>
</svg>
