<svg width="123" height="118" viewBox="0 0 123 118" fill="none" xmlns="http://www.w3.org/2000/svg">
<path d="M17.8467 0.923638C16.6737 1.51014 15.8917 4.34491 15.6473 5.68897C15.5862 7.09421 15.3539 10.7844 14.9141 14.3035C14.3642 18.7022 13.0812 25.8502 16.7469 33.7314C20.4125 41.6125 23.8949 46.0113 24.9947 47.6608C25.8746 48.9805 25.3613 50.0435 24.9947 50.4101C18.9466 55.7252 14.3642 54.9921 8.49919 63.6064C2.63416 72.2206 0.618058 76.6194 0.984764 78.269C1.27813 79.5886 1.107 81.0182 0.984764 81.568C0.434917 83.7674 1.16805 87.7996 4.65041 85.6002C8.13277 83.4008 8.49933 83.4008 9.78231 83.0343C11.0653 82.6677 17.4802 83.9507 24.9947 82.851C31.0064 81.9712 34.4643 80.5294 35.4418 79.9185C37.2746 79.0021 40.867 77.6091 40.5737 79.3686C40.2805 81.1282 40.6959 83.1565 40.9403 83.9507C42.4065 88.716 41.3069 92.3817 42.7731 94.0312C43.9461 95.3508 44.2394 96.6583 44.2394 97.147C44.0927 99.7863 44.9114 101.424 45.3391 101.912C48.0883 107.044 46.622 105.945 49.7378 109.977C52.8536 114.009 54.8697 115.109 56.1527 116.941C57.1791 118.408 57.6801 117.797 57.8022 117.308C59.4518 111.626 61.2846 110.71 61.8345 108.877C62.3843 107.044 65.6834 105.211 66.5998 101.912C67.5162 98.6133 71.1818 94.9476 70.8153 91.8318C70.522 89.3392 70.9375 87.0054 71.1818 86.1501C71.5484 85.0504 72.2815 82.2645 72.2815 79.9185C72.2815 76.986 74.4809 74.9699 75.0308 74.42C75.5806 73.8702 77.4134 74.6033 81.9955 76.986C86.5776 79.3686 91.5262 81.0182 95.3751 80.8349C99.224 80.6516 102.523 80.285 105.272 79.0021C108.022 77.7191 109.121 78.6355 111.321 78.0857C113.52 77.5358 114.436 77.3525 115.719 76.2528C116.746 75.3731 119.691 74.42 121.035 74.0535C122.794 73.7602 122.99 72.5872 122.867 72.0374C123.014 71.4509 119.874 69.227 118.285 68.1884C115.658 66.2945 109.671 61.8469 106.739 59.2076C103.073 55.9085 101.423 55.3587 99.9572 54.8088C98.4909 54.259 97.5745 53.7091 96.4748 52.4262C95.3751 51.1432 92.4426 49.3104 90.6098 48.9438C89.1435 48.6505 87.7994 47.7219 87.3107 47.2943C86.1377 46.4145 86.6997 45.4614 87.1274 45.0949C91.3429 40.5128 94.0921 34.6478 94.4587 30.9821C94.8253 27.3165 96.6581 22.9177 96.4748 20.7183C96.2915 18.519 99.0407 17.236 99.5906 16.1363C100.14 15.0366 99.9572 14.4867 98.4909 14.4867H86.3943C82.1421 14.4867 79.2463 15.2199 78.3299 15.5864C78.3299 15.5864 72.4648 17.7858 68.7992 19.6186C65.1335 21.4515 62.201 24.9338 60.918 25.8502C59.6351 26.7667 58.7187 27.8663 56.8858 27.3165C55.4196 26.8766 53.7089 26.7667 53.0369 26.7667C50.471 26.7667 48.4549 26.2168 46.4388 23.101C44.8259 20.6084 42.712 18.519 41.8567 17.7858C37.0914 13.9369 37.0914 13.9369 31.2263 11.7375C25.3613 9.53812 24.0783 7.15523 22.6121 5.13913C21.1458 3.12302 19.313 0.190509 17.8467 0.923638Z" fill="#CD4138"/>
<path d="M27.9278 19.0681C26.6081 19.0681 25.7895 20.1678 25.5451 20.7176C24.6287 22.5504 25.5451 23.6501 26.4615 23.4668C27.3779 23.2836 28.2943 22.3672 28.6609 21.634C29.0275 20.9009 29.5773 19.0681 27.9278 19.0681Z" fill="#E66C5A"/>
<path d="M31.41 23.8334C30.6769 23.98 29.7605 24.872 29.3939 25.2997C28.844 26.3994 29.0273 26.0328 28.844 26.7659C28.6608 27.4991 29.7605 28.9653 31.0434 28.2322C32.3264 27.4991 33.0595 26.5826 33.0595 25.2997C33.0595 24.0167 32.3264 23.6501 31.41 23.8334Z" fill="#E66C5A"/>
<path d="M36.3586 28.9653C35.4422 28.2322 34.1592 29.5152 34.1592 29.6984C33.2428 30.7981 33.6094 32.2644 34.7091 31.8978C35.8088 31.5313 37.275 29.6984 36.3586 28.9653Z" fill="#E66C5A"/>
<path d="M39.4744 31.8978C38.3747 31.7145 37.275 32.8142 37.275 32.9975C36.5419 33.8773 36.4808 34.4638 36.5419 34.6471C36.9085 35.7468 37.6416 36.1133 38.558 35.93C39.4744 35.7468 40.3908 34.0972 40.3908 33.5474C40.3908 32.9975 40.5741 32.0811 39.4744 31.8978Z" fill="#E66C5A"/>
<path d="M41.6738 39.4124C40.3542 39.559 40.1465 38.1294 40.2075 37.3963C40.5741 36.1133 41.6738 36.1133 42.2236 37.7629C42.6635 39.0825 42.0404 39.4124 41.6738 39.4124Z" fill="#E66C5A"/>
<path d="M43.6899 42.3449C42.9568 42.4915 42.8957 41.3063 42.9568 40.6954C42.9568 40.5732 43.1034 40.3288 43.6899 40.3288C44.423 40.3288 44.7896 40.8787 44.6063 41.6118C44.4597 42.1983 43.9343 42.3449 43.6899 42.3449Z" fill="#E66C5A"/>
<path d="M45.3394 46.5604C44.8996 45.9739 45.4005 45.0941 45.706 44.7276C46.4391 44.5443 46.4391 44.5443 46.989 44.5443C47.5388 44.5443 48.4552 45.0941 48.4552 45.644C48.4552 46.1938 48.6385 47.2935 47.5388 47.6601C46.4391 48.0267 45.8893 47.2935 45.3394 46.5604Z" fill="#E66C5A"/>
<path d="M49.3717 47.2935C49.0784 45.6807 50.4713 44.7887 51.2045 44.5443C52.6707 44.1777 55.2367 45.4607 54.6868 47.2935C54.137 49.1264 53.2206 49.4929 52.3042 49.6762C51.3878 49.8595 49.7382 49.3096 49.3717 47.2935Z" fill="#E66C5A"/>
<path d="M52.4875 43.8112C51.901 43.2247 52.4875 41.9784 52.854 41.4285C54.137 40.5121 53.9537 41.9784 53.9537 42.1616C53.9537 42.3449 53.2206 44.5443 52.4875 43.8112Z" fill="#E66C5A"/>
<path d="M53.7704 39.9622C53.4772 39.3757 54.2592 38.2516 54.6868 37.7629C55.6032 37.0297 55.0534 38.8626 54.8701 39.0458C54.6868 39.2291 54.137 40.6954 53.7704 39.9622Z" fill="#E66C5A"/>
<path d="M54.8701 36.4799C54.7235 36.04 55.2978 34.8303 55.6032 34.2805C55.9698 33.7307 56.3364 34.0972 56.1531 34.6471C56.0065 35.0869 55.7254 35.6857 55.6032 35.93C55.42 36.2966 55.0167 36.9198 54.8701 36.4799Z" fill="#E66C5A"/>
<path d="M55.9698 32.9975C55.8232 32.5576 56.0309 31.9589 56.1531 31.7145C56.3642 31.0447 57.0695 31.1647 57.0695 31.7145C57.0695 32.1544 56.8251 32.631 56.7029 32.8142C56.5197 33.0586 56.1164 33.4374 55.9698 32.9975Z" fill="#E66C5A"/>
<path d="M56.5197 30.4316C56.373 29.9917 56.4586 29.2708 56.5197 28.9653C57.0695 28.0489 57.4361 28.782 57.2528 29.6984C57.0695 30.6149 56.7029 30.9814 56.5197 30.4316Z" fill="#E66C5A"/>
<path d="M57.8026 51.1425C56.1898 50.2627 56.3975 47.9656 56.7029 46.927C56.859 46.0472 57.7455 45.7051 58.1692 45.644C59.8187 45.8273 60.1853 46.0106 61.4683 47.4768C62.7513 48.9431 62.568 50.5926 61.6516 51.1425C60.7351 51.6923 59.8187 52.2422 57.8026 51.1425Z" fill="#E66C5A"/>
<path d="M58.719 44.5443C58.5724 43.9578 59.1467 43.2002 59.4522 42.8948C60.5519 42.8948 60.5519 43.078 60.7351 43.6279C60.9184 44.1777 60.3686 45.0941 59.8187 45.0941C59.2689 45.0941 58.9023 45.2774 58.719 44.5443Z" fill="#E66C5A"/>
<path d="M62.3847 41.6118C61.7982 41.1719 62.0181 40.3288 62.2014 39.9622C62.568 39.5957 62.9345 39.4124 63.8509 39.9622C64.5841 40.4021 64.2786 41.123 64.0342 41.4285C63.7288 41.6729 62.9712 42.0517 62.3847 41.6118Z" fill="#E66C5A"/>
<path d="M65.3172 37.9461C65.3172 37.213 65.9281 36.541 66.2336 36.2966C66.6002 36.1133 67.8832 35.93 68.0664 36.4799C68.2497 37.0297 68.0664 38.1294 67.15 38.496C66.2336 38.8626 65.3172 38.8626 65.3172 37.9461Z" fill="#E66C5A"/>
<path d="M69.1661 34.2805C68.8729 33.5474 69.2883 32.7531 69.5327 32.4477C69.9726 32.3011 70.4491 32.2644 70.6324 32.2644C71.3655 32.2644 72.4652 32.8142 72.4652 33.9139C72.4652 35.0136 71.3655 35.93 70.6324 35.7468C69.8993 35.5635 69.5327 35.1969 69.1661 34.2805Z" fill="#E66C5A"/>
<path d="M72.8318 31.348C72.3919 30.6149 72.8929 30.065 73.1983 29.8817C73.4272 29.6984 74.298 29.5152 75.0312 30.2483C75.6177 30.8348 75.1534 31.4702 74.8479 31.7145C74.3591 31.8978 73.2717 32.0811 72.8318 31.348Z" fill="#E66C5A"/>
<path d="M77.4138 28.2322C76.974 27.0592 77.5971 26.5216 77.9637 26.3994C78.3302 26.2161 79.2467 25.9961 79.9798 26.5826C80.7129 27.1692 80.4074 27.9267 80.1631 28.2322C79.4299 28.7209 77.8537 29.4052 77.4138 28.2322Z" fill="#E66C5A"/>
<path d="M82.1792 23.6501C81.446 22.3305 81.8737 21.2675 82.1792 20.9009C82.7657 20.0211 83.7676 19.9234 84.1953 19.9845C85.8448 20.7176 86.2114 21.0842 86.5779 22.7337C86.8712 24.0534 85.8448 24.6276 85.295 24.7498C84.5618 24.9331 82.9123 24.9698 82.1792 23.6501Z" fill="#E66C5A"/>
<path d="M87.8609 18.8848C87.8609 18.2983 88.4719 17.9073 88.7773 17.7851C90.0603 17.2353 91.16 17.9684 90.7934 18.8848C90.4269 19.8012 89.5105 20.1678 88.9606 19.9845C88.4108 19.8012 87.8609 19.6179 87.8609 18.8848Z" fill="#E66C5A"/>
<path d="M63.8509 48.2103C63.4111 47.917 64.1564 47.4769 64.5841 47.2935C64.7307 47.1466 65.1339 46.988 65.3172 46.927C66.0503 47.1099 66.0503 48.2103 65.8671 48.3936C65.6838 48.5768 64.4008 48.5768 63.8509 48.2103Z" fill="#E66C5A"/>
<path d="M70.2658 46.5604C68.6163 46.5604 67.6999 47.2935 67.5166 47.4768C67.5166 48.0267 67.15 47.6601 68.9828 48.2103C70.4491 48.6504 70.8157 48.0269 70.8157 47.6601C70.9623 46.7801 70.5102 46.5603 70.2658 46.5604Z" fill="#E66C5A"/>
<path d="M73.1983 47.4768C72.7585 47.1833 73.3816 46.7436 73.7482 46.5604L75.581 46.3775C77.6338 46.5241 77.0473 47.1715 76.4974 47.4768C75.581 47.5991 73.6382 47.7703 73.1983 47.4768Z" fill="#E66C5A"/>
<path d="M83.8287 46.3775C81.6293 46.2311 80.7129 46.6828 80.5296 46.927C81.556 47.9534 83.7676 47.8434 84.7451 47.6601C85.3561 47.2935 86.0281 46.5238 83.8287 46.3775Z" fill="#E66C5A"/>
<path d="M63.4844 57.3744C63.0445 57.0811 63.3011 55.7859 63.4844 55.175C63.7075 54.0753 66.2336 53.7087 66.2336 55.175C66.2336 56.6413 66.2336 57.3744 65.3172 57.7409C64.4008 58.1075 64.0342 57.7409 63.4844 57.3744Z" fill="#E66C5A"/>
<path d="M70.2658 59.2072C69.2394 59.0606 69.3494 57.9242 69.5327 57.3744C70.6324 56.458 71.3655 57.3744 71.5488 58.2908C71.7321 59.2072 71.5488 59.3905 70.2658 59.2072Z" fill="#E66C5A"/>
<path d="M74.6646 60.1236C73.9315 59.3905 74.3591 58.5963 74.6646 58.2908C75.7643 57.9242 75.3977 58.1075 76.6807 58.4741C77.7071 58.7673 77.5971 59.4516 77.4138 59.7571C76.8029 60.1847 75.3977 60.8567 74.6646 60.1236Z" fill="#E66C5A"/>
<path d="M79.6132 61.7732C79.4666 60.7468 80.1631 60.2458 80.5296 60.1236C82.3624 59.7571 82.1792 60.8567 81.6293 61.4066C81.0795 61.9564 79.7965 63.0561 79.6132 61.7732Z" fill="#E66C5A"/>
<path d="M84.1953 63.9725C83.7554 62.9462 84.8673 62.0786 85.4782 61.7732C87.3844 60.7468 88.2275 61.5899 88.4108 62.1397C88.4108 64.1558 87.4944 65.4388 86.9445 65.8054C86.3947 66.1719 85.4782 66.3552 85.4782 65.6221C85.4782 64.889 84.7451 65.2555 84.1953 63.9725Z" fill="#E66C5A"/>
<path d="M90.7934 64.7057C90.3536 64.2658 90.9767 63.6671 91.3433 63.4227C91.8114 63.005 93.3594 63.0561 93.7259 63.4227C94.0925 63.7893 93.7259 64.7057 93.3594 65.0722C92.9928 65.4388 91.3433 65.2555 90.7934 64.7057Z" fill="#E66C5A"/>
<path d="M97.7582 67.0883C97.6115 65.6221 98.4302 64.889 98.8578 64.7057C100.691 64.3391 100.324 65.6221 99.9576 66.7218C99.591 67.8215 97.9414 68.9212 97.7582 67.0883Z" fill="#E66C5A"/>
<path d="M102.34 69.6543C102.34 68.7745 103.073 67.9437 103.44 67.6382C104.32 66.7584 105.151 67.2716 105.456 67.6382C106.006 68.9212 104.54 71.1205 103.806 71.3038C103.073 71.4871 102.34 70.754 102.34 69.6543Z" fill="#E66C5A"/>
<path d="M107.839 70.9373C107.692 70.0575 108.266 69.3488 108.572 69.1044C110.771 68.5546 110.588 69.6543 110.038 70.5707C109.488 71.4871 108.022 72.037 107.839 70.9373Z" fill="#E66C5A"/>
<path d="M112.054 70.5707C112.494 70.2775 113.459 70.0819 113.887 70.0209C114.254 69.958 115.353 70.0209 115.353 70.5707C115.353 71.1205 114.987 71.6704 113.887 71.6704C112.787 71.6704 111.504 70.9373 112.054 70.5707Z" fill="#E66C5A"/>
<path d="M56.7029 57.0078C56.2631 56.4213 56.5197 55.175 56.7029 54.6251C57.5827 53.4521 58.7801 53.892 59.2689 54.2586C59.5744 54.8695 60.0387 56.2747 59.4522 57.0078C58.719 57.9242 57.2528 57.7409 56.7029 57.0078Z" fill="#E66C5A"/>
<path d="M59.6355 59.9403C59.4888 60.8201 58.719 60.0625 58.3525 59.5738C58.3525 59.0239 58.3525 58.2908 58.719 58.2908C59.0856 58.2908 59.8187 58.8406 59.6355 59.9403Z" fill="#E66C5A"/>
<path d="M60.1853 61.04C59.8921 61.1867 60.0631 61.7121 60.1853 61.9564C60.7351 63.0561 61.8348 63.4227 61.8348 62.6896C61.8348 61.9564 60.5519 60.8567 60.1853 61.04Z" fill="#E66C5A"/>
<path d="M62.3847 63.4227C61.9448 63.7159 62.2014 64.4002 62.3847 64.7057C64.0342 66.3552 64.0342 65.4388 64.0342 64.889C64.0342 64.3391 62.9345 63.0561 62.3847 63.4227Z" fill="#E66C5A"/>
<path d="M64.5841 66.3552C64.5841 67.4549 65.8671 68.188 66.2336 68.3713C67.8832 68.9212 67.15 67.6382 66.6002 66.9051C66.0503 66.1719 64.5841 65.2555 64.5841 66.3552Z" fill="#E66C5A"/>
<path d="M67.8832 68.9212C67.8832 69.471 69.8993 70.9373 69.8993 71.3038C71.3655 73.3199 72.0986 72.4035 71.7321 71.6704C71.4388 71.0839 70.388 70.0819 69.8993 69.6543C69.5327 69.2877 67.8832 68.3713 67.8832 68.9212Z" fill="#E66C5A"/>
<path d="M48.6385 60.1236C48.052 59.3905 48.1498 58.4741 48.272 58.1075C49.1884 57.1911 49.9215 57.3744 50.8379 57.7409C51.7543 58.1075 51.9376 59.9403 51.3878 60.4902C50.8379 61.04 49.3717 61.04 48.6385 60.1236Z" fill="#E66C5A"/>
<path d="M46.6224 62.6896C46.5613 62.1397 46.7324 61.04 47.9054 61.04C49.3717 61.04 47.5388 63.4227 46.6224 62.6896Z" fill="#E66C5A"/>
<path d="M46.0726 63.4227C45.1928 63.9077 44.7285 64.8467 44.6063 65.2555C44.6063 65.9886 44.9729 66.3552 45.5227 65.8054C46.0726 65.2555 47.1723 62.8164 46.0726 63.4227Z" fill="#E66C5A"/>
<path d="M44.2398 66.9051C43.36 67.6609 43.0179 69.2972 42.9568 70.0209C42.8957 70.3874 42.9568 71.0106 43.6899 70.5707C44.423 70.1308 44.8507 69.1655 44.9729 68.7379C45.0951 67.812 45.1195 66.1493 44.2398 66.9051Z" fill="#E66C5A"/>
<path d="M41.8571 75.8859C42.7368 74.7129 42.5902 73.1977 42.4069 72.5868C41.8571 70.9373 41.3072 74.0531 40.7574 75.336C40.2075 76.619 40.5741 77.3521 40.9407 76.9856C41.2339 76.6923 41.6738 76.1303 41.8571 75.8859Z" fill="#E66C5A"/>
<path d="M53.0373 60.4902C52.7441 59.7571 53.7704 58.8406 54.3203 58.4741C54.809 58.1075 55.8232 57.5577 55.9698 58.2908C56.1531 59.2072 55.42 59.9403 55.2367 60.1236C55.0534 60.3069 53.4039 61.4066 53.0373 60.4902Z" fill="#E66C5A"/>
<path d="M53.9537 64.7057C53.3672 64.559 53.5872 63.7893 53.7704 63.4227C54.6868 62.5063 55.2367 62.6896 55.42 63.4227C55.6032 64.1558 54.6868 64.889 53.9537 64.7057Z" fill="#E66C5A"/>
<path d="M52.854 68.0047C52.5608 67.4182 52.9762 66.7829 53.2206 66.5385C53.9537 65.952 54.5036 66.2941 54.6868 66.5385C54.8701 66.844 55.1267 67.5649 54.6868 68.0047C54.137 68.5546 53.2206 68.7379 52.854 68.0047Z" fill="#E66C5A"/>
<path d="M53.2206 69.6543C52.0476 69.6543 50.899 70.754 50.4713 71.3038C50.1048 71.9759 49.4816 73.4666 49.9215 74.0531C50.4713 74.7862 51.9376 74.7862 53.2206 74.6029C54.5036 74.4196 55.42 73.8698 55.42 72.037C55.42 70.2041 54.6868 69.6543 53.2206 69.6543Z" fill="#E66C5A"/>
<path d="M51.2045 78.2686C50.618 78.1219 51.0823 77.1078 51.3878 76.619C52.854 75.5193 53.9537 75.8859 53.7704 76.9856C53.5872 78.0853 51.9376 78.4518 51.2045 78.2686Z" fill="#E66C5A"/>
<path d="M53.9537 83.2172C51.7543 84.2436 50.1048 83.4005 49.5549 82.8506C49.2495 82.3619 49.0051 81.0911 50.4713 79.9181C51.9376 78.7451 53.6482 79.4293 54.3203 79.9181C55.1145 80.5901 56.1531 82.1908 53.9537 83.2172Z" fill="#E66C5A"/>
<path d="M52.1209 86.333C51.2411 86.7729 51.1434 87.4938 51.2045 87.7992C52.854 88.8989 54.6868 87.7992 54.3203 87.0661C53.9537 86.333 53.2206 85.7831 52.1209 86.333Z" fill="#E66C5A"/>
<path d="M53.7704 89.632C52.3042 90.0719 51.8154 91.1594 51.7543 91.6482C52.6707 94.0308 54.6868 93.2977 55.9698 93.1144C57.2528 92.9311 57.9859 91.6482 57.2528 90.5485C56.5197 89.4488 55.6033 89.0822 53.7704 89.632Z" fill="#E66C5A"/>
<path d="M54.3203 96.0469C53.0006 95.9003 52.7929 96.9633 52.854 97.5132C53.2206 98.9794 54.3203 98.6129 54.6868 98.6129C55.0534 98.6129 55.9698 96.2302 54.3203 96.0469Z" fill="#E66C5A"/>
<path d="M54.6868 104.111C55.8598 103.085 54.6868 102.217 53.9537 101.912C51.9376 102.279 52.4875 103.562 52.854 104.111C53.2206 104.661 53.2206 105.394 54.6868 104.111Z" fill="#E66C5A"/>
<path d="M53.9537 108.877C52.9273 108.877 53.0373 107.655 53.2206 107.044C54.1003 106.311 54.809 106.983 55.0534 107.41C55.1145 107.899 54.9801 108.877 53.9537 108.877Z" fill="#E66C5A"/>
<path d="M45.1562 54.2586C43.9832 52.6457 45.034 51.265 45.706 50.7762C46.2559 50.2328 46.6224 50.5929 47.3555 50.4097C48.0887 50.2264 49.7382 51.1425 49.3717 53.3422C49.0051 55.5419 46.989 55.9081 46.4391 55.5416C45.9993 55.2483 45.4005 54.5641 45.1562 54.2586Z" fill="#E66C5A"/>
<path d="M44.6063 50.0431C44.4597 49.4566 42.9568 49.5541 42.2236 49.6762C41.3072 49.7658 41.6738 50.7762 42.9568 51.1425C44.2398 51.5087 44.7896 50.7762 44.6063 50.0431Z" fill="#E66C5A"/>
<path d="M40.0243 49.6762C39.5844 49.3827 38.8635 49.5539 38.558 49.6762C36.7252 50.0424 38.558 50.7762 39.4744 50.7762C40.3908 50.7762 40.5741 50.0431 40.0243 49.6762Z" fill="#E66C5A"/>
<path d="M35.6255 50.4097C36.212 49.8234 34.8924 49.6764 34.1592 49.6762C32.3997 49.9692 32.693 50.2873 33.0595 50.4097C33.6705 50.6539 35.039 50.9959 35.6255 50.4097Z" fill="#E66C5A"/>
<path d="M30.4936 50.0431C30.6402 49.4566 29.3328 49.31 28.6608 49.31C27.781 49.31 27.9276 49.5541 28.1109 49.6762C28.844 50.0429 30.347 50.6296 30.4936 50.0431Z" fill="#E66C5A"/>
<path d="M44.2398 54.6251C43.36 54.1853 42.1626 55.4194 41.6738 56.0914C40.3908 58.2908 42.7735 56.8245 43.3233 56.6413C43.8732 56.458 45.3394 55.175 44.2398 54.6251Z" fill="#E66C5A"/>
<path d="M39.1078 59.2072C39.2545 58.4741 38.8024 57.4355 38.558 57.0078C37.0917 56.2747 37.275 56.6413 35.6255 57.7409C34.3059 58.6207 35.0756 59.9403 35.6255 60.4902C37.8249 61.7732 38.9246 60.1236 39.1078 59.2072Z" fill="#E66C5A"/>
<path d="M33.4261 62.6896C32.693 62.6896 31.9598 61.04 32.1431 60.1236C33.2428 58.4741 34.1592 59.2072 34.7091 61.04C35.149 62.5063 34.037 62.7507 33.4261 62.6896Z" fill="#E66C5A"/>
<path d="M30.4936 62.2008C29.4672 61.8097 28.7219 62.4859 28.4775 62.8728C27.7444 64.0459 28.5386 64.7057 29.0273 64.889C30.8602 65.0722 31.0434 64.3391 31.2267 64.1558C31.41 63.9725 31.7766 62.6896 30.4936 62.2008Z" fill="#E66C5A"/>
<path d="M25.1784 65.9886C24.7385 65.1089 25.3617 64.1558 25.7282 63.7893C26.3146 63.3494 26.7058 63.7282 26.8281 63.9725C27.3779 65.4388 27.0114 66.1719 26.8281 66.5385C26.6448 66.9051 25.7282 67.0883 25.1784 65.9886Z" fill="#E66C5A"/>
<path d="M19.1302 67.2716C18.9836 65.8054 19.6801 64.95 20.0466 64.7057C20.9631 64.0336 22.9059 63.0561 23.3458 64.5224C23.8956 66.3552 24.0789 68.188 23.5291 69.6543C23.0892 70.8273 21.7573 70.6318 21.1464 70.3874C20.7798 70.3874 19.3135 69.1044 19.1302 67.2716Z" fill="#E66C5A"/>
<path d="M18.0306 70.754C17.884 69.4344 16.6254 68.9823 16.0145 68.9212C15.7701 68.9212 15.1714 69.1044 14.7315 69.8376C14.1817 70.754 15.4646 71.1205 16.1978 71.6704C16.9309 72.2202 18.2139 72.4035 18.0306 70.754Z" fill="#E66C5A"/>
<path d="M11.6157 73.5032C10.3327 73.5032 9.96611 72.037 9.96611 71.8537C9.96611 70.8273 10.3327 70.4485 10.516 70.3874C11.5423 69.8009 12.2877 70.6318 12.5321 71.1205C12.6543 71.9148 12.642 73.5032 11.6157 73.5032Z" fill="#E66C5A"/>
<path d="M7.95001 73.1367C7.40016 73.3199 7.40016 74.0531 7.40016 74.2363C7.25354 75.4094 7.70563 75.4582 7.95001 75.336C8.43876 75.1528 9.41627 74.6396 9.41627 74.0531C9.41627 73.3199 8.49986 72.9534 7.95001 73.1367Z" fill="#E66C5A"/>
<path d="M6.85032 77.902C7.2902 77.1689 6.78923 76.619 6.48376 76.4357C5.89723 76.2891 5.62843 76.4968 5.56735 76.619C4.98084 77.3521 5.07859 77.7798 5.20078 77.902C6.08054 78.3419 6.66704 78.0853 6.85032 77.902Z" fill="#E66C5A"/>
<path d="M2.81814 80.6512C2.63486 80.2847 3.1847 78.8184 3.36798 78.8184C3.61236 78.6351 4.13775 78.3785 4.28438 78.8184C4.431 79.2583 4.34547 79.6126 4.28438 79.7348C4.28438 80.1014 3.00142 81.0178 2.81814 80.6512Z" fill="#E66C5A"/>
<path d="M50.2882 55.9081C50.1416 55.3216 50.838 54.8084 51.2045 54.6251C51.4489 54.503 52.0477 54.4052 52.4875 54.9917C53.0372 55.7248 52.4875 56.6413 51.9378 57.0078C51.388 57.3744 50.4715 56.6413 50.2882 55.9081Z" fill="#E66C5A"/>
<path d="M52.3042 53.1589C51.7543 53.3422 51.2045 51.8759 51.2045 51.6926C51.0578 51.2534 51.1434 50.7765 51.2045 50.5929C52.1207 50.2264 52.854 50.4097 53.404 51.3261C53.954 52.2425 52.854 52.9756 52.3042 53.1589Z" fill="#E66C5A"/>
<path d="M53.7704 54.2586C53.6238 53.5255 54.6868 52.9756 55.2367 52.7923C56.5197 52.7923 55.42 54.6251 55.2367 55.175C55.0534 55.7248 53.9537 55.175 53.7704 54.2586Z" fill="#E66C5A"/>
</svg>
