<svg width="563" height="593" viewBox="0 0 563 593" fill="none" xmlns="http://www.w3.org/2000/svg">
<path d="M182.784 52.227C16.0854 -30.1424 42.0295 17.7074 -3 0V593H563V410.653C563 383.197 540.038 309.184 525.128 294.262C510.217 279.34 473.239 239.647 473.239 236.364C473.239 233.738 469.86 230.893 468.17 229.799C466.48 228.704 461.694 223.946 459.223 221.144C454.75 216.07 444.313 213.086 419.263 210.102C399.224 207.714 404.353 182.944 393.319 181.75C390.337 176.676 367.508 145.979 355.745 136.387C339.642 123.256 332.127 109.348 327.117 107.438C322.107 105.528 311.411 91.2231 308.032 85.9507L295.507 75.5053H288.648H274.036L256.74 71.0287C247.793 65.7562 227.456 56.047 217.674 59.3895C207.893 62.7321 188.649 51.8291 182.784 52.227Z" fill="#584358"/>
</svg>
