<svg width="97" height="108" viewBox="0 0 97 108" fill="none" xmlns="http://www.w3.org/2000/svg">
<path d="M44.1183 91.6825C41.9608 86.989 43.2193 79.3469 44.1183 76.1125C45.0171 70.6245 48.688 66.0033 50.4111 64.3786C52.7334 63.5513 58.5016 61.7612 62.9964 61.2196C68.6148 60.5427 75.3569 61.4453 80.3011 61.2196C84.2565 61.0391 89.74 58.4366 91.9873 57.1579C92.4368 56.857 93.2009 55.8039 92.6616 53.9988C92.1223 52.1937 90.4891 52.6449 89.74 53.0962C87.7173 54.6004 82.5484 57.5188 78.0537 57.1579C72.4353 56.7068 62.9964 57.3835 57.378 58.5118C52.8832 59.4144 53.108 58.286 53.7822 57.609C57.0184 53.6375 61.8727 48.1317 63.8953 45.8753C65.1538 44.0701 68.0155 43.7691 69.289 43.8442C75.3569 43.8442 80.3011 43.1675 85.0205 41.5877C89.7399 40.008 94.909 33.2386 96.2574 30.3051C97.3361 27.9583 97.0065 26.4691 96.7069 26.0179C95.8763 23.9191 93.629 23.9191 92.6616 26.0179C91.0884 31.885 84.7958 38.2031 80.3011 38.2031C75.8064 38.2031 76.0311 38.6544 71.7611 39.3314C68.3451 39.8729 68.3901 38.8048 68.8396 38.2031C70.4577 35.4954 71.012 33.0131 71.0869 32.1103C71.5364 28.9512 73.1097 24.4381 78.5034 21.5048C83.8971 18.5715 86.1444 11.8018 86.5938 8.86831C86.9534 6.52153 86.5938 5.76913 86.1444 5.03222C84.8642 2.93348 82.8416 3.38478 82.6169 5.64131C82.2356 10.7634 79.8518 14.8857 78.5034 16.0892C77.155 17.2174 74.4581 19.158 74.4581 17.8944C74.4581 16.3149 77.1549 4.12952 76.7055 2.09864C76.256 0.0677741 75.1323 -0.38353 73.1097 0.293426C71.0871 0.970383 69.289 15.4121 69.9632 19.4739C70.6374 23.5356 68.39 24.4381 68.39 23.0843C68.39 22.0012 66.4422 17.5182 65.4683 15.4121C62.5466 10.6735 63.8953 4.12944 63.8953 2.54988C63.8953 0.970309 62.3222 0.0677001 60.9737 1.19596C59.895 2.09857 59.4755 5.33292 59.4006 6.83727C59.1758 8.64249 59.1758 13.2909 60.9737 17.4429C62.7716 21.5949 64.7192 27.7477 65.4683 30.3051C66.592 37.3003 59.1757 43.1673 56.9283 46.7777C55.1305 49.6661 54.3813 47.9812 54.2315 46.7777C52.6584 43.6186 54.2316 35.2695 55.3553 33.2386C56.2542 31.6139 55.7298 30.3051 55.3553 29.8538C53.917 28.7707 52.3588 29.7034 51.7595 30.3051C49.0627 36.1721 48.3885 41.5877 49.7369 47.4547C50.8156 52.1483 50.1864 54.3747 49.7369 54.9012C49.5571 57.2479 45.1673 62.1973 42.9948 64.3786C42.1708 65.9582 40.4778 68.5757 40.298 66.4095C40.1182 64.2432 38.2753 60.9938 37.3764 59.6399C36.5524 57.8347 35.5336 51.6969 38.0506 41.5877C41.1969 28.9512 40.298 29.1768 40.298 24.4381C40.298 20.6472 38.7997 20.0003 38.0506 20.1508C35.5336 19.6092 35.9531 23.2347 36.4775 25.1151C37.0168 30.1697 35.9531 33.9908 35.3538 35.2695C34.5297 36.4729 32.8367 39.8727 32.6569 43.8442C32.4771 47.8158 31.3834 47.4547 30.8591 46.7777C29.3608 44.8221 25.3305 39.1507 21.1954 32.1103C16.0265 23.3099 17.8244 25.792 16.4759 22.4073C15.3972 19.6995 14.8279 17.9693 14.6781 17.4427C13.2397 15.8181 11.9812 17.0667 11.5317 17.8941C11.7565 23.0841 13.1049 29.4023 16.4759 32.7871C19.1728 35.4949 19.2477 36.6232 18.948 36.8489C17.5097 37.7515 15.5021 36.9241 14.6781 36.3975C6.13808 31.4332 7.03703 29.6281 5.0144 27.5972C3.39629 25.9725 2.39248 25.7168 2.09283 25.792C0.0701981 25.7918 -0.154533 26.8451 0.0701981 27.5972C1.86809 30.2299 6.40776 36.172 10.1833 38.8799C14.9028 42.2646 15.3523 40.9107 17.8244 42.2646C19.802 43.3478 21.1954 44.5212 21.6449 44.9725C26.3643 48.3573 30.1848 54.2242 30.8591 56.2551C31.3984 57.8799 29.8852 57.8347 29.0612 57.609C26.5441 57.4285 23.0682 55.7286 21.6449 54.9012C15.3523 52.8703 15.577 52.419 12.6554 49.9369C10.3182 47.9511 9.4342 47.906 9.28439 48.1316C7.4865 48.6732 7.78614 50.313 8.16071 51.0651C9.7788 53.0509 12.5805 55.3525 13.7791 56.2551C20.7459 60.3169 25.2406 61.2195 29.0612 62.5734C32.1176 63.6565 34.0803 66.3343 34.6796 67.5377C36.6572 69.5235 36.5524 83.8599 36.2527 90.7799C36.028 95.2178 35.8032 104.409 36.7022 105.673C37.8259 107.253 36.7022 107.478 41.6464 107.929C45.6017 108.291 46.7403 107.177 46.8151 106.576C48.4332 104.59 45.6914 95.8195 44.1183 91.6825Z" fill="#AB7F4B"/>
</svg>
